<svg width="100" height="100" viewBox="0 0 100 100" fill="none" xmlns="http://www.w3.org/2000/svg">
<path d="M65.3416 54.7231H34.8866H27.2275C26.5227 54.7231 25.9268 54.2563 25.7322 53.615L22.067 43.6774L22.0648 43.6782C21.7663 42.8685 22.1805 41.9701 22.9902 41.6715C23.1799 41.6016 23.3745 41.5707 23.5652 41.575H76.4692C77.3322 41.575 78.0318 42.2746 78.0318 43.1375C78.0318 43.3597 77.9853 43.5711 77.9017 43.7624L74.2373 53.6977L72.7725 53.1606L74.2385 53.7012C74.002 54.3426 73.389 54.7357 72.7419 54.7231H65.3416H65.3416ZM34.8866 51.598H65.3416H71.6858L74.23 44.7H25.7701L28.3142 51.598H34.8867H34.8866Z" fill="black"/>
<path d="M25.8809 42.8333C25.9027 43.263 26.269 43.5937 26.6988 43.5718C27.1285 43.5499 27.4592 43.1837 27.4373 42.7539C27.4322 42.6589 27.4288 42.5851 27.4275 42.5327L27.4272 42.3082C27.4272 40.054 28.3365 38.0144 29.8065 36.5394C31.2751 35.0659 33.3061 34.1544 35.5509 34.1544V34.1513L35.615 34.1515C36.0447 34.1515 36.3932 33.8031 36.3932 33.3733C36.3932 32.9435 36.0447 32.5951 35.615 32.5951L35.5509 32.5949V32.5919C32.8778 32.5919 30.4561 33.6806 28.7018 35.4408C26.9489 37.1996 25.8647 39.6278 25.8647 42.3082C25.8647 42.3262 25.8668 42.4132 25.871 42.5692C25.874 42.6786 25.8773 42.7668 25.8809 42.8333L25.8809 42.8333Z" fill="black"/>
<path d="M35.3855 31.8557C34.5226 31.8557 33.823 32.5553 33.823 33.4182C33.823 34.2812 34.5226 34.9808 35.3855 34.9808H36.604C37.4669 34.9808 38.1665 34.2812 38.1665 33.4182C38.1665 32.5553 37.4669 31.8557 36.604 31.8557H35.3855Z" fill="black"/>
<path d="M50 14.0625C47.9609 14.0625 46.1562 14.3817 44.9323 15.2478C43.8168 16.0371 43.1268 17.391 43.1268 19.5494C43.1268 21.9511 44.1024 24.4917 45.5305 26.4342C46.8494 28.2281 48.4986 29.4607 50 29.4607C51.5014 29.4607 53.1506 28.2281 54.4696 26.4342C55.8977 24.4917 56.8733 21.9511 56.8733 19.5494C56.8733 17.391 56.1833 16.0371 55.0678 15.2478C53.8439 14.3817 52.0391 14.0625 50 14.0625ZM43.1378 12.7087C44.9669 11.4144 47.3802 10.9374 50 10.9374C52.6198 10.9374 55.0331 11.4144 56.8622 12.7087C58.7999 14.0798 59.9983 16.2508 59.9983 19.5495C59.9983 22.6241 58.7751 25.8417 56.9843 28.2775C55.1067 30.8311 52.5533 32.5858 50 32.5858C47.4468 32.5858 44.8933 30.8311 43.0158 28.2775C41.225 25.8417 40.0018 22.6241 40.0018 19.5495C40.0018 16.2508 41.2002 14.0798 43.1378 12.7087H43.1378Z" fill="black"/>
<path d="M54.2048 13.1245C54.2891 12.2683 53.6633 11.5059 52.8071 11.4216C51.9509 11.3373 51.1885 11.9631 51.1042 12.8193L51.084 13.0216C50.9478 14.3845 49.545 16.1554 47.7216 17.6253C45.8822 19.1081 43.6915 20.1992 41.9822 20.1992C41.1192 20.1992 40.4196 20.8988 40.4196 21.7617C40.4196 22.6246 41.1192 23.3242 41.9822 23.3242C44.4231 23.3242 47.3379 21.9383 49.6747 20.0545C52.0856 18.1109 53.9621 15.5529 54.1847 13.3268L54.2049 13.1245L54.2048 13.1245Z" fill="black"/>
<path d="M52.2601 15.8317C51.7545 15.1374 50.7816 14.9843 50.0872 15.4899C49.3929 15.9955 49.2398 16.9684 49.7454 17.6628L50.1196 18.1752C51.0029 19.3847 52.2939 20.3244 53.7123 20.9683C55.2348 21.6594 56.9347 22.0263 58.4357 22.0263C59.2986 22.0263 59.9982 21.3267 59.9982 20.4638C59.9982 19.6008 59.2986 18.9012 58.4357 18.9012C57.3507 18.9012 56.1124 18.6317 54.9941 18.1241C54.026 17.6847 53.1729 17.0817 52.6343 16.3442L52.2601 15.8317L52.2601 15.8317Z" fill="black"/>
<path d="M58.7857 43.0259C58.7857 43.8888 59.4853 44.5884 60.3483 44.5884C61.2112 44.5884 61.9108 43.8888 61.9108 43.0259C61.9108 40.3853 61.0715 38.2638 59.6351 36.5936C58.0897 34.7965 55.8756 33.5783 53.3006 32.8353L53.3026 32.8282C52.7251 32.6616 52.1297 32.8433 51.7407 33.249L49.9999 34.9897L48.235 33.2248L48.2351 33.2247C47.7778 32.7673 47.1074 32.6529 46.5434 32.8811C44.0282 33.6295 41.8237 34.8391 40.2703 36.6097C38.8071 38.2774 37.9378 40.3939 37.9378 43.0259C37.9378 43.8888 38.6374 44.5884 39.5003 44.5884C40.3633 44.5884 41.0629 43.8888 41.0629 43.0259C41.0629 41.2066 41.641 39.7695 42.614 38.6605C43.6098 37.5256 45.0314 36.6868 46.6925 36.1012L48.8864 38.2952L48.8951 38.3041C49.5052 38.9143 50.4946 38.9143 51.1048 38.3041L51.1047 38.304L53.3068 36.1019C54.9362 36.68 56.3084 37.5053 57.2669 38.62C58.2255 39.7347 58.7857 41.1848 58.7857 43.0259V43.0259Z" fill="black"/>
<path d="M25.4086 56.8606C27.8618 56.8606 30.1243 57.3092 31.8443 58.5262C33.6727 59.82 34.8037 61.8649 34.8037 64.9685C34.8037 67.8473 33.659 70.8592 31.9834 73.1384C30.2201 75.5366 27.8169 77.1845 25.4086 77.1845C23.0004 77.1845 20.5971 75.5366 18.8339 73.1384C17.1582 70.8591 16.0135 67.8473 16.0135 64.9685C16.0135 61.8649 17.1444 59.82 18.9729 58.5262C20.6929 57.3092 22.9554 56.8606 25.4086 56.8606H25.4086ZM30.0498 61.0652C28.935 60.2764 27.2811 59.9857 25.4086 59.9857C23.536 59.9857 21.8821 60.2764 20.7674 61.0652C19.761 61.7773 19.1385 63.0052 19.1385 64.9685C19.1385 67.1744 20.0355 69.5091 21.3486 71.2951C22.5531 72.9335 24.0522 74.0594 25.4086 74.0594C26.7651 74.0594 28.264 72.9335 29.4686 71.2951C30.7816 69.5091 31.6786 67.1744 31.6786 64.9685C31.6786 63.0052 31.0561 61.7773 30.0498 61.0652H30.0498Z" fill="black"/>
<path d="M14.2377 86.7663C14.2377 87.6292 14.9373 88.3288 15.8002 88.3288C16.6632 88.3288 17.3628 87.6292 17.3628 86.7663C17.3628 85.0854 17.8729 83.763 18.7459 82.7479C19.6095 81.7436 20.8429 80.9951 22.3087 80.466L24.3039 82.4611L24.3038 82.4612C24.9139 83.0713 25.9033 83.0713 26.5135 82.4612L26.5222 82.4522L28.5091 80.4652C30.0054 81.0016 31.2846 81.7629 32.1826 82.7864C33.0685 83.7962 33.5949 85.1061 33.5949 86.7663C33.5949 87.6292 34.2945 88.3288 35.1574 88.3288C36.0203 88.3288 36.7199 87.6292 36.7199 86.7663C36.7199 84.2935 35.9024 82.304 34.5263 80.7356C33.0715 79.0774 31.0107 77.9446 28.6609 77.2436C28.0966 77.0148 27.4257 77.1293 26.9681 77.5869L26.9682 77.5871L25.4086 79.1468L23.8724 77.6106C23.4834 77.2054 22.8883 77.0239 22.3111 77.1904L22.3131 77.1974C19.9021 77.8932 17.8276 79.0354 16.3777 80.7215C15.027 82.2921 14.2377 84.286 14.2377 86.7663L14.2377 86.7663Z" fill="black"/>
<path d="M49.9299 56.8606C52.3831 56.8606 54.6456 57.3092 56.3655 58.5262C58.194 59.82 59.3249 61.8649 59.3249 64.9685C59.3249 67.8473 58.1803 70.8592 56.5046 73.1384C54.7414 75.5366 52.3382 77.1845 49.9299 77.1845C47.5216 77.1845 45.1183 75.5366 43.3551 73.1384C41.6794 70.8591 40.5347 67.8473 40.5347 64.9685C40.5347 61.8649 41.6657 59.82 43.4941 58.5262C45.2141 57.3092 47.4767 56.8606 49.9299 56.8606H49.9299ZM54.5711 61.0652C53.4563 60.2764 51.8024 59.9857 49.9299 59.9857C48.0573 59.9857 46.4034 60.2764 45.2886 61.0652C44.2823 61.7773 43.6598 63.0052 43.6598 64.9685C43.6598 67.1744 44.5567 69.5091 45.8698 71.2951C47.0744 72.9335 48.5734 74.0594 49.9298 74.0594C51.2863 74.0594 52.7852 72.9335 53.9899 71.2951C55.3029 69.5091 56.1998 67.1744 56.1998 64.9685C56.1998 63.0052 55.5773 61.7773 54.571 61.0652H54.5711Z" fill="black"/>
<path d="M74.4511 56.8606C76.9043 56.8606 79.1668 57.3092 80.8868 58.5262C82.7152 59.82 83.8462 61.8649 83.8462 64.9685C83.8462 67.8473 82.7015 70.8592 81.0258 73.1384C79.2626 75.5366 76.8594 77.1845 74.4511 77.1845C72.0429 77.1845 69.6395 75.5366 67.8764 73.1384C66.2007 70.8591 65.056 67.8473 65.056 64.9685C65.056 61.8649 66.187 59.82 68.0154 58.5262C69.7353 57.3092 71.9979 56.8606 74.4511 56.8606H74.4511ZM79.0923 61.0652C77.9775 60.2764 76.3236 59.9857 74.4511 59.9857C72.5786 59.9857 70.9246 60.2764 69.8098 61.0652C68.8035 61.7773 68.181 63.0052 68.181 64.9685C68.181 67.1744 69.078 69.5091 70.391 71.2951C71.5956 72.9335 73.0947 74.0594 74.4511 74.0594C75.8075 74.0594 77.3065 72.9335 78.5111 71.2951C79.8241 69.5091 80.7211 67.1744 80.7211 64.9685C80.7211 63.0052 80.0986 61.7773 79.0923 61.0652H79.0923Z" fill="black"/>
<path d="M38.7589 86.7663C38.7589 87.6292 39.4585 88.3288 40.3215 88.3288C41.1844 88.3288 41.884 87.6292 41.884 86.7663C41.884 85.0854 42.3942 83.763 43.2671 82.7479C44.1307 81.7436 45.3642 80.9951 46.83 80.466L48.8251 82.4611L48.8249 82.4612C49.4351 83.0713 50.4245 83.0713 51.0347 82.4612L51.0433 82.4523L53.0303 80.4652C54.5267 81.0016 55.8058 81.7629 56.7038 82.7864C57.5897 83.7962 58.1161 85.1061 58.1161 86.7663C58.1161 87.6292 58.8157 88.3288 59.6786 88.3288C60.5416 88.3288 61.2412 87.6292 61.2412 86.7663C61.2412 84.2935 60.4236 82.304 59.0475 80.7356C57.5927 79.0774 55.5319 77.9444 53.182 77.2436C52.6178 77.0149 51.947 77.1293 51.4894 77.5869L51.4895 77.587L49.9298 79.1468L48.3936 77.6106C48.0046 77.2054 47.4096 77.0239 46.8323 77.1904L46.8344 77.1974C44.4233 77.8932 42.3489 79.0354 40.8989 80.7215C39.5482 82.2921 38.7589 84.286 38.7589 86.7663L38.7589 86.7663Z" fill="black"/>
<path d="M63.28 86.7663C63.28 87.6292 63.9796 88.3288 64.8426 88.3288C65.7055 88.3288 66.4051 87.6292 66.4051 86.7663C66.4051 85.0854 66.9153 83.763 67.7882 82.7479C68.6519 81.7436 69.8853 80.9951 71.3511 80.466L73.3462 82.4611L73.3461 82.4612C73.9563 83.0713 74.9457 83.0713 75.5558 82.4612L75.5645 82.4522L77.5514 80.4652C79.0478 81.0016 80.3269 81.7629 81.2249 82.7864C82.1108 83.7962 82.6372 85.1061 82.6372 86.7663C82.6372 87.6292 83.3368 88.3288 84.1997 88.3288C85.0627 88.3288 85.7623 87.6292 85.7623 86.7663C85.7623 84.2935 84.9447 82.304 83.5686 80.7356C82.1139 79.0774 80.0531 77.9446 77.7033 77.2436C77.139 77.0148 76.4681 77.1293 76.0105 77.5869L76.0106 77.5871L74.4509 79.1468L72.9147 77.6106C72.5257 77.2054 71.9307 77.0239 71.3535 77.1904L71.3555 77.1974C68.9444 77.8932 66.87 79.0354 65.42 80.7215C64.0693 82.2921 63.28 84.286 63.28 86.7663L63.28 86.7663Z" fill="black"/>
</svg>
