<svg width="100" height="100" viewBox="0 0 100 100" fill="none" xmlns="http://www.w3.org/2000/svg">
<path d="M50 23.2671C57.3819 23.2671 64.0651 26.2594 68.9028 31.0971C73.7406 35.9348 76.7328 42.6181 76.7328 49.9999C76.7328 57.3817 73.7406 64.065 68.9028 68.9027C64.0651 73.7404 57.3818 76.7327 50 76.7327C42.6182 76.7327 35.9349 73.7404 31.0972 68.9027C26.2595 64.065 23.2672 57.3817 23.2672 49.9999C23.2672 42.6181 26.2595 35.9348 31.0972 31.0971C35.935 26.2594 42.6182 23.2671 50 23.2671V23.2671ZM66.6934 33.3066C62.4214 29.0345 56.5193 26.3922 50 26.3922C43.4808 26.3922 37.5787 29.0345 33.3066 33.3066C29.0346 37.5786 26.3922 43.4807 26.3922 50C26.3922 56.5192 29.0346 62.4213 33.3066 66.6933C37.5787 70.9654 43.4807 73.6078 50 73.6078C56.5193 73.6078 62.4213 70.9654 66.6934 66.6933C70.9654 62.4213 73.6078 56.5192 73.6078 50C73.6078 43.4807 70.9654 37.5786 66.6934 33.3066Z" fill="black"/>
<path d="M50 13.0668C52.277 13.0668 54.0704 14.4231 55.8387 15.7605C56.9167 16.5758 57.9833 17.3825 58.9174 17.6394C59.8924 17.9076 61.2369 17.7385 62.5755 17.5702C64.6938 17.3038 66.8007 17.0389 68.6409 18.1167C70.4898 19.1999 71.2816 21.1733 72.0711 23.1416C72.5613 24.3636 73.0507 25.5834 73.7336 26.2664C74.4165 26.9493 75.6363 27.4386 76.8583 27.9288C78.8267 28.7184 80.8001 29.5101 81.8832 31.3591C82.9612 33.1992 82.6962 35.3062 82.4298 37.4244C82.2614 38.763 82.0923 40.1075 82.3606 41.0825C82.6175 42.0166 83.4241 43.0831 84.2394 44.1612C85.5768 45.9295 86.9332 47.7229 86.9332 50C86.9332 52.277 85.5768 54.0704 84.2395 55.8386C83.4241 56.9167 82.6175 57.9833 82.3606 58.9173C82.0923 59.8924 82.2614 61.2369 82.4298 62.5754C82.6962 64.6937 82.9611 66.8007 81.8832 68.6408C80.8001 70.4898 78.8267 71.2815 76.8584 72.0711C75.6363 72.5613 74.4165 73.0506 73.7336 73.7336C73.0507 74.4164 72.5614 75.6362 72.0712 76.8583C71.2816 78.8266 70.4899 80.8001 68.6409 81.8832C66.8007 82.9611 64.6938 82.6961 62.5755 82.4297C61.237 82.2614 59.8925 82.0923 58.9174 82.3605C57.9834 82.6174 56.9168 83.4241 55.8388 84.2394C54.0705 85.5768 52.2771 86.9331 50 86.9331C47.723 86.9331 45.9296 85.5768 44.1613 84.2394C43.0833 83.4241 42.0167 82.6174 41.0826 82.3605C40.1076 82.0923 38.7631 82.2614 37.4246 82.4297C35.3062 82.6961 33.1993 82.961 31.3592 81.8832C29.5102 80.8 28.7185 78.8266 27.9289 76.8583C27.4387 75.6363 26.9494 74.4165 26.2664 73.7335C25.5835 73.0507 24.3637 72.5613 23.1417 72.0711C21.1734 71.2815 19.1999 70.4898 18.1168 68.6408C17.0388 66.8007 17.3039 64.6937 17.5703 62.5755C17.7386 61.2369 17.9077 59.8924 17.6395 58.9174C17.3825 57.9834 16.5759 56.9168 15.7606 55.8387C14.4232 54.0704 13.0668 52.277 13.0668 50C13.0668 47.7229 14.4232 45.9295 15.7605 44.1613C16.5759 43.0832 17.3825 42.0166 17.6395 41.0826C17.9077 40.1075 17.7386 38.763 17.5703 37.4245C17.3039 35.3062 17.0389 33.1992 18.1168 31.3591C19.1999 29.5101 21.1734 28.7184 23.1416 27.9288C24.3637 27.4386 25.5835 26.9493 26.2664 26.2664C26.9493 25.5835 27.4387 24.3637 27.9289 23.1416C28.7184 21.1733 29.5101 19.1999 31.3591 18.1167C33.1993 17.0388 35.3063 17.3038 37.4245 17.5702C38.7631 17.7385 40.1075 17.9076 41.0826 17.6394C42.0166 17.3825 43.0832 16.5758 44.1612 15.7605C45.9295 14.4231 47.7229 13.0668 50 13.0668V13.0668ZM53.9588 18.2507C52.6073 17.2286 51.2366 16.1919 50 16.1919C48.7634 16.1919 47.3926 17.2286 46.0411 18.2508C44.7326 19.2403 43.4381 20.2194 41.9005 20.6423C40.3369 21.0724 38.6878 20.8651 37.046 20.6586C35.4501 20.4579 33.8626 20.2582 32.9339 20.8023C32.0081 21.3445 31.4142 22.8249 30.822 24.3013C30.209 25.8294 29.5971 27.3547 28.4759 28.4758C27.3547 29.5971 25.8295 30.209 24.3013 30.822C22.825 31.4142 21.3446 32.0081 20.8023 32.9339C20.2583 33.8626 20.458 35.45 20.6587 37.046C20.8651 38.6878 21.0725 40.3369 20.6424 41.9005C20.2194 43.4381 19.2404 44.7326 18.2508 46.0411C17.2286 47.3926 16.1919 48.7634 16.1919 49.9999C16.1919 51.2365 17.2287 52.6073 18.2508 53.9589C19.2404 55.2673 20.2194 56.5619 20.6424 58.0995C21.0725 59.6631 20.8651 61.3122 20.6587 62.9539C20.458 64.5499 20.2583 66.1374 20.8023 67.0661C21.3446 67.9919 22.825 68.5857 24.3013 69.178C25.8295 69.791 27.3547 70.4029 28.4759 71.524C29.5972 72.6453 30.209 74.1705 30.822 75.6987C31.4143 77.175 32.0081 78.6554 32.9339 79.1976C33.8626 79.7417 35.4501 79.542 37.0461 79.3413C38.6878 79.1348 40.3369 78.9275 41.9005 79.3576C43.4382 79.7805 44.7327 80.7595 46.0412 81.7492C47.3927 82.7713 48.7634 83.808 50 83.808C51.2366 83.808 52.6074 82.7713 53.959 81.7491C55.2674 80.7595 56.5619 79.7805 58.0996 79.3576C59.6631 78.9275 61.3123 79.1348 62.954 79.3413C64.55 79.542 66.1374 79.7417 67.0661 79.1976C67.9919 78.6554 68.5858 77.175 69.1781 75.6986C69.791 74.1705 70.4029 72.6452 71.5241 71.524C72.6454 70.4028 74.1706 69.7909 75.6987 69.1779C77.1751 68.5857 78.6554 67.9918 79.1977 67.066C79.7417 66.1374 79.5421 64.5499 79.3414 62.9539C79.1349 61.3121 78.9275 59.663 79.3576 58.0994C79.7806 56.5618 80.7596 55.2673 81.7492 53.9588C82.7714 52.6073 83.8081 51.2365 83.8081 49.9999C83.8081 48.7634 82.7714 47.3926 81.7492 46.041C80.7596 44.7326 79.7806 43.438 79.3576 41.9004C78.9275 40.3368 79.1349 38.6877 79.3414 37.046C79.5421 35.45 79.7418 33.8625 79.1977 32.9338C78.6554 32.008 77.1751 31.4142 75.6987 30.8219C74.1705 30.2089 72.6453 29.597 71.5241 28.4758C70.4029 27.3546 69.791 25.8294 69.178 24.3012C68.5858 22.8249 67.9919 21.3445 67.0661 20.8023C66.1374 20.2582 64.55 20.4579 62.9539 20.6586C61.3122 20.8651 59.6631 21.0724 58.0995 20.6423C56.5619 20.2194 55.2673 19.2404 53.9588 18.2507V18.2507Z" fill="black"/>
<path d="M34.6665 55.0775L31.037 44.9223H33.262L35.8297 52.4388L38.3172 44.9223H40.4924L36.8559 55.0775H34.6665H34.6665ZM41.1238 50.0626C41.1238 49.0269 41.2775 48.1592 41.5872 47.4569C41.8189 46.9415 42.1334 46.4757 42.533 46.0643C42.9326 45.6552 43.37 45.3502 43.8452 45.1517C44.4789 44.8821 45.2071 44.7497 46.0347 44.7497C47.5314 44.7497 48.7278 45.2131 49.6263 46.1423C50.5247 47.0692 50.974 48.3602 50.974 50.0129C50.974 51.6539 50.5271 52.9354 49.6357 53.8623C48.7443 54.7867 47.5527 55.2502 46.0631 55.2502C44.5522 55.2502 43.351 54.7891 42.4597 53.8693C41.5683 52.9472 41.1238 51.6775 41.1238 50.0626H41.1238ZM43.2352 49.994C43.2352 51.1431 43.5024 52.0156 44.032 52.6091C44.564 53.2026 45.2379 53.4981 46.056 53.4981C46.8717 53.4981 47.5432 53.2049 48.0681 52.6138C48.5906 52.0251 48.8531 51.1431 48.8531 49.9656C48.8531 48.8024 48.5977 47.9346 48.0894 47.36C47.5787 46.7878 46.9001 46.5017 46.056 46.5017C45.2095 46.5017 44.5286 46.7926 44.0107 47.3718C43.4953 47.9511 43.2352 48.8236 43.2352 49.994L43.2352 49.994ZM54.8588 55.0775V46.6412H51.8465V44.9223H59.9163V46.6412H56.9111V55.0775H54.8588V55.0775ZM61.2404 55.0775V44.9223H68.7688V46.6412H63.2904V48.8921H68.3881V50.6017H63.2904V53.3657H68.9626V55.0775H61.2404V55.0775Z" fill="black"/>
<path d="M27.5751 38.9225C26.7122 38.9225 26.0126 39.6221 26.0126 40.485C26.0126 41.348 26.7122 42.0476 27.5751 42.0476H72.4249C73.2878 42.0476 73.9874 41.3479 73.9874 40.485C73.9874 39.6221 73.2878 38.9225 72.4249 38.9225H27.5751V38.9225Z" fill="black"/>
<path d="M26.9384 58.85C26.0755 58.85 25.3759 59.5496 25.3759 60.4125C25.3759 61.2754 26.0755 61.975 26.9384 61.975H73.0618C73.9248 61.975 74.6244 61.2754 74.6244 60.4125C74.6244 59.5496 73.9247 58.85 73.0618 58.85H26.9384Z" fill="black"/>
<path d="M33.0302 65.6254C32.1673 65.6254 31.4677 66.325 31.4677 67.188C31.4677 68.0509 32.1673 68.7505 33.0302 68.7505H66.9698C67.8327 68.7505 68.5323 68.0509 68.5323 67.188C68.5323 66.325 67.8327 65.6254 66.9698 65.6254H33.0302V65.6254Z" fill="black"/>
<path d="M50.7417 29.3324L51.4013 31.3757L53.5503 31.3716L55.963 31.3669L54.008 32.7815L52.2681 34.0405L52.9358 36.0822L53.6852 38.3736L51.7365 36.9519L50.0001 35.6852L48.2637 36.9519L46.3151 38.3736L47.0644 36.0822L47.7321 34.0405L45.9922 32.7815L44.0373 31.3669L46.45 31.3716L48.599 31.3757L49.2585 29.3324L50.0001 27.035L50.7417 29.3324H50.7417ZM50.0928 32.393L50.0001 32.1058L49.9074 32.393L49.7327 32.9343L49.1658 32.9332L48.8626 32.9327L49.1079 33.1101L49.5683 33.4432L49.3918 33.9829L49.2969 34.273L49.5423 34.0939L50.0001 33.76L50.4578 34.0939L50.7033 34.273L50.6084 33.9829L50.4319 33.4432L50.8922 33.1101L51.1375 32.9327L50.8344 32.9332L50.2675 32.9343L50.0928 32.393H50.0928Z" fill="black"/>
<path d="M60.7465 33.376L60.9067 33.8715L61.4293 33.8705L63.8421 33.8658L61.8871 35.2804L61.4646 35.5861L61.6269 36.082L62.3763 38.3735L60.4275 36.9518L60.0051 36.6436L59.5824 36.9518L57.6338 38.3735L58.3832 36.082L58.5453 35.5861L58.123 35.2804L56.168 33.8658L58.5808 33.8705L59.1034 33.8715L59.2634 33.376L60.0051 31.0787L60.7465 33.376Z" fill="black"/>
<path d="M39.0791 33.376L39.2391 33.8715L39.7619 33.8705L42.1746 33.8658L40.2195 35.2804L39.7972 35.5861L39.9594 36.082L40.7089 38.3735L38.7601 36.9518L38.3375 36.6436L37.915 36.9518L35.9663 38.3735L36.7156 36.082L36.8779 35.5861L36.4554 35.2804L34.5006 33.8658L36.9132 33.8705L37.436 33.8715L37.596 33.376L38.3375 31.0787L39.0791 33.376Z" fill="black"/>
</svg>
