<svg width="100" height="100" viewBox="0 0 100 100" fill="none" xmlns="http://www.w3.org/2000/svg">
<path d="M40.7448 28.9146C40.5729 29.605 40.5547 30.3247 40.6914 31.0229C40.8282 31.7211 41.1165 32.3808 41.5362 32.9553C41.9558 33.5298 42.4965 34.0051 43.1201 34.3477C43.7436 34.6904 44.4347 34.8919 45.1447 34.9381C45.2012 34.9471 45.2572 34.959 45.3125 34.9737V51.5625C45.3125 51.839 45.3859 52.1105 45.5252 52.3494C45.6645 52.5883 45.8646 52.7859 46.1053 52.9222C46.3459 53.0584 46.6184 53.1283 46.8949 53.1248C47.1714 53.1213 47.442 53.0444 47.6791 52.9021L54.6875 48.6968L61.6959 52.9021C61.933 53.0444 62.2036 53.1213 62.4801 53.1248C62.7566 53.1283 63.0291 53.0584 63.2697 52.9222C63.5104 52.7859 63.7105 52.5883 63.8498 52.3494C63.9891 52.1105 64.0625 51.839 64.0625 51.5625V34.9742C64.1198 34.9588 64.1778 34.9465 64.2364 34.9373C64.9463 34.8902 65.6371 34.6879 66.2602 34.3445C66.8833 34.0011 67.4233 33.5251 67.8422 32.95C68.2611 32.375 68.5486 31.715 68.6843 31.0166C68.8201 30.3183 68.8009 29.5986 68.628 28.9085C68.5479 28.5925 68.5597 28.2601 68.6622 27.9506C68.7646 27.6411 68.9533 27.3673 69.2061 27.1614C69.753 26.7063 70.193 26.1362 70.4947 25.4919C70.7964 24.8475 70.9525 24.1445 70.9517 23.433C70.951 22.7215 70.7935 22.0188 70.4905 21.3751C70.1875 20.7313 69.7463 20.1622 69.1984 19.7082C68.9472 19.5011 68.7602 19.2267 68.6594 18.9171C68.5586 18.6075 68.5482 18.2756 68.6294 17.9603C68.8012 17.27 68.8194 16.5504 68.6826 15.8524C68.5459 15.1543 68.2576 14.4948 67.838 13.9203C67.4184 13.3459 66.8779 12.8706 66.2545 12.528C65.6311 12.1854 64.9401 11.9838 64.2303 11.9375C63.9036 11.9149 63.5897 11.8014 63.3241 11.6099C63.0586 11.4183 62.8518 11.1563 62.7273 10.8534C62.4587 10.1945 62.0494 9.60219 61.5279 9.11803C61.0064 8.63387 60.3855 8.26952 59.7084 8.05048C59.0314 7.83144 58.3147 7.763 57.6085 7.84995C56.9022 7.9369 56.2235 8.17714 55.6198 8.55386C55.3394 8.72707 55.0163 8.81881 54.6867 8.81881C54.3571 8.81881 54.034 8.72707 53.7536 8.55386C53.15 8.17711 52.4713 7.93688 51.765 7.85C51.0588 7.76312 50.3421 7.83169 49.6652 8.0509C48.9882 8.27012 48.3674 8.63467 47.8462 9.11904C47.3249 9.60341 46.9159 10.1959 46.6477 10.8549C46.5221 11.1582 46.3142 11.4203 46.0476 11.6118C45.7809 11.8032 45.4661 11.9163 45.1386 11.9382C44.4286 11.9851 43.7377 12.1873 43.1145 12.5306C42.4913 12.874 41.9512 13.35 41.5323 13.9251C41.1133 14.5002 40.8259 15.1603 40.6902 15.8587C40.5545 16.5572 40.5739 17.2769 40.747 17.967C40.8269 18.283 40.8149 18.6153 40.7125 18.9248C40.6101 19.2343 40.4215 19.5081 40.1689 19.7142C39.622 20.1693 39.182 20.7393 38.8803 21.3837C38.5786 22.0281 38.4226 22.731 38.4233 23.4425C38.424 24.1541 38.5815 24.8567 38.8845 25.5004C39.1875 26.1442 39.6287 26.7133 40.1766 27.1673C40.4275 27.3745 40.6142 27.6488 40.7149 27.9583C40.8155 28.2678 40.8259 28.5995 40.7448 28.9146V28.9146ZM60.9375 48.8029L55.4916 45.5353C55.2487 45.3895 54.9708 45.3125 54.6875 45.3125C54.4042 45.3125 54.1263 45.3895 53.8834 45.5353L48.4375 48.8029V38.2343C49.2547 38.7575 50.2009 39.0442 51.1711 39.0625C52.0526 39.0603 52.9171 38.8194 53.6727 38.3653C53.6994 38.3496 53.7288 38.339 53.7552 38.3225C54.038 38.1515 54.3623 38.0615 54.6928 38.0624C55.0232 38.0634 55.3471 38.1552 55.6289 38.3278C56.4315 38.8176 57.357 39.0687 58.2972 39.0517C59.2373 39.0347 60.1531 38.7503 60.9375 38.2317V48.8029ZM42.1769 22.1084C42.8763 21.522 43.3969 20.7509 43.6795 19.8831C43.9621 19.0152 43.9952 18.0854 43.7752 17.1996C43.7125 16.956 43.705 16.7015 43.753 16.4546C43.801 16.2077 43.9034 15.9745 44.0528 15.7721C44.2043 15.5639 44.3998 15.3915 44.6254 15.2675C44.8511 15.1434 45.1013 15.0706 45.3583 15.0543C46.2691 14.9894 47.1436 14.6715 47.8835 14.1363C48.6233 13.6012 49.199 12.8701 49.5458 12.0254C49.6398 11.7893 49.7852 11.5771 49.9714 11.4042C50.1575 11.2312 50.3798 11.1018 50.6222 11.0254C50.867 10.9455 51.1263 10.9202 51.3818 10.9513C51.6374 10.9824 51.8831 11.0691 52.1016 11.2054C52.8786 11.6858 53.774 11.9402 54.6875 11.9402C55.601 11.9402 56.4964 11.6858 57.2734 11.2054C57.4922 11.0688 57.7382 10.9819 57.9942 10.9508C58.2502 10.9197 58.5099 10.9452 58.755 11.0254C58.9975 11.1019 59.2201 11.2312 59.4065 11.4042C59.593 11.5771 59.7387 11.7893 59.8331 12.0254C60.1795 12.8714 60.7555 13.6036 61.4963 14.1393C62.237 14.675 63.1128 14.9927 64.0247 15.0567C64.2804 15.0736 64.5293 15.1466 64.7537 15.2704C64.9781 15.3942 65.1726 15.5658 65.3233 15.7731C65.4733 15.9766 65.5759 16.2111 65.6237 16.4593C65.6715 16.7076 65.6632 16.9634 65.5994 17.2081C65.381 18.0944 65.4159 19.0243 65.6999 19.8918C65.9839 20.7593 66.5058 21.5297 67.2061 22.1153C67.4015 22.2769 67.5587 22.4799 67.6664 22.7095C67.774 22.9392 67.8295 23.1898 67.8288 23.4434C67.8281 23.6971 67.7712 23.9474 67.6622 24.1764C67.5533 24.4055 67.3949 24.6075 67.1986 24.7681C66.4997 25.3552 65.9794 26.1266 65.697 26.9946C65.4146 27.8626 65.3813 28.7924 65.6009 29.6784C65.664 29.9215 65.6719 30.1757 65.6241 30.4222C65.5763 30.6688 65.474 30.9016 65.3247 31.1035C65.1732 31.312 64.9776 31.4844 64.7519 31.6087C64.5261 31.7329 64.2757 31.8058 64.0186 31.8223C63.2057 31.8823 62.421 32.1456 61.7364 32.5879C61.7052 32.6053 61.6713 32.6137 61.6413 32.6334C60.8371 33.182 60.2091 33.9517 59.8331 34.8496C59.7347 35.0854 59.5863 35.297 59.3981 35.4699C59.2099 35.6427 58.9864 35.7726 58.7431 35.8507C58.4998 35.9287 58.2425 35.9531 57.9889 35.922C57.7353 35.8909 57.4915 35.8051 57.2742 35.6706C56.4976 35.1903 55.6025 34.9359 54.6894 34.9359C53.7762 34.9359 52.8812 35.1903 52.1045 35.6706C51.8852 35.7962 51.6421 35.8747 51.3907 35.9011C51.1393 35.9275 50.8852 35.9013 50.6445 35.824C50.4038 35.7468 50.1819 35.6203 49.9928 35.4525C49.8038 35.2847 49.6517 35.0794 49.5464 34.8496C49.375 34.4218 49.1409 34.0218 48.8517 33.6629C48.5144 33.2333 48.1024 32.8681 47.6355 32.5848C46.9507 32.1438 46.1665 31.8813 45.3542 31.821C45.0982 31.804 44.8491 31.731 44.6244 31.6071C44.3998 31.4832 44.205 31.3115 44.0541 31.104C43.9042 30.9005 43.8017 30.6662 43.7541 30.418C43.7064 30.1698 43.7149 29.9141 43.7788 29.6696C43.9973 28.7833 43.9625 27.8534 43.6784 26.9859C43.3944 26.1183 42.8724 25.3479 42.172 24.7624C41.9767 24.6008 41.8196 24.3978 41.712 24.1683C41.6043 23.9387 41.5488 23.6882 41.5494 23.4346C41.55 23.1811 41.6066 22.9308 41.7153 22.7017C41.824 22.4726 41.9821 22.2704 42.1781 22.1096L42.1769 22.1084Z" fill="#222226"/>
<path d="M54.6875 31.25C56.2327 31.25 57.7431 30.7918 59.0279 29.9334C60.3126 29.0749 61.314 27.8548 61.9053 26.4272C62.4966 24.9997 62.6513 23.4288 62.3499 21.9134C62.0484 20.3979 61.3044 19.0058 60.2118 17.9132C59.1192 16.8206 57.7271 16.0766 56.2116 15.7751C54.6962 15.4737 53.1253 15.6284 51.6978 16.2197C50.2702 16.811 49.0501 17.8124 48.1916 19.0971C47.3332 20.3819 46.875 21.8923 46.875 23.4375C46.8774 25.5088 47.7013 27.4945 49.1659 28.9591C50.6305 30.4237 52.6162 31.2476 54.6875 31.25ZM54.6875 18.75C55.6146 18.75 56.5209 19.0249 57.2917 19.54C58.0626 20.0551 58.6634 20.7871 59.0182 21.6437C59.373 22.5002 59.4658 23.4427 59.2849 24.352C59.1041 25.2613 58.6576 26.0965 58.0021 26.7521C57.3465 27.4076 56.5113 27.8541 55.602 28.0349C54.6927 28.2158 53.7502 28.123 52.8937 27.7682C52.0371 27.4134 51.3051 26.8126 50.79 26.0417C50.2749 25.2709 50 24.3646 50 23.4375C50.0014 22.1947 50.4957 21.0032 51.3744 20.1244C52.2532 19.2457 53.4447 18.7514 54.6875 18.75V18.75Z" fill="#222226"/>
<path d="M31.25 60.9375H78.125C78.5394 60.9375 78.9368 60.7729 79.2299 60.4799C79.5229 60.1868 79.6875 59.7894 79.6875 59.375C79.6875 58.9606 79.5229 58.5632 79.2299 58.2701C78.9368 57.9771 78.5394 57.8125 78.125 57.8125H31.25C30.8356 57.8125 30.4382 57.9771 30.1451 58.2701C29.8521 58.5632 29.6875 58.9606 29.6875 59.375C29.6875 59.7894 29.8521 60.1868 30.1451 60.4799C30.4382 60.7729 30.8356 60.9375 31.25 60.9375Z" fill="#222226"/>
<path d="M31.25 68.75H78.125C78.5394 68.75 78.9368 68.5854 79.2299 68.2924C79.5229 67.9993 79.6875 67.6019 79.6875 67.1875C79.6875 66.7731 79.5229 66.3757 79.2299 66.0826C78.9368 65.7896 78.5394 65.625 78.125 65.625H31.25C30.8356 65.625 30.4382 65.7896 30.1451 66.0826C29.8521 66.3757 29.6875 66.7731 29.6875 67.1875C29.6875 67.6019 29.8521 67.9993 30.1451 68.2924C30.4382 68.5854 30.8356 68.75 31.25 68.75Z" fill="#222226"/>
<path d="M31.25 76.5625H78.125C78.5394 76.5625 78.9368 76.3979 79.2299 76.1049C79.5229 75.8118 79.6875 75.4144 79.6875 75C79.6875 74.5856 79.5229 74.1882 79.2299 73.8951C78.9368 73.6021 78.5394 73.4375 78.125 73.4375H31.25C30.8356 73.4375 30.4382 73.6021 30.1451 73.8951C29.8521 74.1882 29.6875 74.5856 29.6875 75C29.6875 75.4144 29.8521 75.8118 30.1451 76.1049C30.4382 76.3979 30.8356 76.5625 31.25 76.5625Z" fill="#222226"/>
<path d="M31.25 84.375H65.625C66.0394 84.375 66.4368 84.2104 66.7299 83.9174C67.0229 83.6243 67.1875 83.2269 67.1875 82.8125C67.1875 82.3981 67.0229 82.0007 66.7299 81.7076C66.4368 81.4146 66.0394 81.25 65.625 81.25H31.25C30.8356 81.25 30.4382 81.4146 30.1451 81.7076C29.8521 82.0007 29.6875 82.3981 29.6875 82.8125C29.6875 83.2269 29.8521 83.6243 30.1451 83.9174C30.4382 84.2104 30.8356 84.375 31.25 84.375Z" fill="#222226"/>
<path d="M65.625 89.0625H31.25C30.8356 89.0625 30.4382 89.2271 30.1451 89.5201C29.8521 89.8132 29.6875 90.2106 29.6875 90.625C29.6875 91.0394 29.8521 91.4368 30.1451 91.7299C30.4382 92.0229 30.8356 92.1875 31.25 92.1875H65.625C66.0394 92.1875 66.4368 92.0229 66.7299 91.7299C67.0229 91.4368 67.1875 91.0394 67.1875 90.625C67.1875 90.2106 67.0229 89.8132 66.7299 89.5201C66.4368 89.2271 66.0394 89.0625 65.625 89.0625Z" fill="#222226"/>
<path d="M89.0625 82.8125V6.25C89.0608 4.59293 88.4017 3.00423 87.23 1.8325C86.0583 0.660775 84.4696 0.00173719 82.8125 0L17.1875 0C15.5305 0.00186102 13.9418 0.660939 12.7701 1.83264C11.5984 3.00434 10.9394 4.59297 10.9375 6.25V42.1875C10.9375 42.6019 11.1021 42.9993 11.3951 43.2924C11.6882 43.5854 12.0856 43.75 12.5 43.75H20.3125V98.4375C20.3125 98.8519 20.4771 99.2493 20.7701 99.5424C21.0632 99.8354 21.4606 100 21.875 100H71.875C72.2893 99.9993 72.6864 99.8347 72.9797 99.5422L88.6047 83.9172C88.8833 83.6148 89.0456 83.2233 89.0625 82.8125V82.8125ZM14.0625 40.625V6.25C14.0625 5.4212 14.3917 4.62634 14.9778 4.04029C15.5638 3.45424 16.3587 3.125 17.1875 3.125C18.0163 3.125 18.8112 3.45424 19.3972 4.04029C19.9833 4.62634 20.3125 5.4212 20.3125 6.25V40.625H14.0625ZM23.4375 42.1875V6.25C23.4304 5.15398 23.1425 4.07806 22.6012 3.125H82.8125C83.641 3.12595 84.4353 3.4555 85.0212 4.04134C85.607 4.62719 85.9365 5.42149 85.9375 6.25V81.25H71.875C71.4606 81.25 71.0632 81.4146 70.7701 81.7076C70.4771 82.0007 70.3125 82.3981 70.3125 82.8125V96.875H23.4375V42.1875ZM73.4375 94.6655V84.375H83.728L73.4375 94.6655Z" fill="#222226"/>
</svg>
