<svg version="1.0" id="Layer_1" xmlns="http://www.w3.org/2000/svg" xmlns:xlink="http://www.w3.org/1999/xlink" x="0px" y="0px"
	 width="100px" height="100px" viewBox="0 0 100 100" enable-background="new 0 0 100 100" xml:space="preserve">
<path d="M81.823,72.448c-2.377-1.094-5.222-1.071-7.656,0.335c-2.471,1.426-3.93,3.929-4.138,6.572
	C63.952,81.858,57.188,83.333,50,83.333c-7.56,0-14.518-2.047-20.117-5.452c0.37-2.517-0.386-5.169-2.324-7.106
	c-2.012-2.012-4.796-2.773-7.399-2.298c-2.215-3.564-3.493-7.565-3.493-11.81C16.667,41.963,31.62,30,50,30
	c10.84,0,20,6.104,20,13.333c0,4.007-2.822,7.663-7.181,10.133c0.303-1.113,0.514-2.259,0.514-3.467
	c0-7.363-5.97-13.333-13.333-13.333c-14.723,0-26.667,8.955-26.667,20c0,11.041,11.943,20,26.667,20c22.087,0,40-14.929,40-33.333
	c0-5.619-1.687-10.905-4.636-15.55c2.045-3.223,1.674-7.533-1.139-10.342c-2.888-2.891-7.36-3.2-10.605-0.963
	C66.995,12.425,58.848,10,50,10c-7.959,0-15.504,1.543-22.284,4.297c-2.589-2.75-6.805-3.486-10.216-1.514
	c-3.462,1.999-4.94,6.107-3.761,9.766C12.433,23.613,11.18,24.73,10,25.902v10.267c2.241-3.2,5.024-6.074,8.177-8.616
	c2.375,1.094,5.221,1.071,7.656-0.335c2.471-1.426,3.929-3.929,4.136-6.572c6.079-2.506,12.842-3.978,20.031-3.978
	c7.559,0,14.519,2.048,20.117,5.453c-0.371,2.516,0.384,5.169,2.324,7.106c2.012,2.012,4.798,2.773,7.399,2.295
	c2.217,3.568,3.492,7.568,3.492,11.813C83.333,58.037,68.379,70,50,70c-10.84,0-20-6.106-20-13.333
	c0-4.011,2.822-7.667,7.179-10.134c-0.301,1.11-0.513,2.259-0.513,3.467c0,7.363,5.97,13.333,13.333,13.333
	c14.724,0,26.667-8.955,26.667-20c0-11.045-11.943-20-26.667-20c-22.086,0-40,14.925-40,33.333c0,5.618,1.686,10.904,4.635,15.55
	c-2.042,3.223-1.671,7.532,1.14,10.342c2.887,2.888,7.36,3.2,10.605,0.964C33.004,87.575,41.154,90,50,90
	c7.956,0,15.505-1.543,22.285-4.297c2.588,2.751,6.804,3.483,10.215,1.514c3.464-1.999,4.941-6.106,3.763-9.766
	c1.303-1.064,2.559-2.181,3.737-3.353V63.831C87.761,67.031,84.974,69.905,81.823,72.448z M21.667,22.5c-1.38,0-2.5-1.12-2.5-2.5
	s1.12-2.5,2.5-2.5c1.38,0,2.5,1.12,2.5,2.5S23.047,22.5,21.667,22.5z M78.333,25.833c-1.38,0-2.5-1.12-2.5-2.5
	c0-1.38,1.12-2.5,2.5-2.5c1.381,0,2.5,1.12,2.5,2.5C80.833,24.713,79.714,25.833,78.333,25.833z M50,56.667
	c-3.682,0-6.667-2.985-6.667-6.667s2.985-6.667,6.667-6.667s6.667,2.985,6.667,6.667S53.682,56.667,50,56.667z M21.667,79.167
	c-1.38,0-2.5-1.12-2.5-2.5c0-1.381,1.12-2.5,2.5-2.5c1.38,0,2.5,1.119,2.5,2.5C24.167,78.047,23.047,79.167,21.667,79.167z
	 M78.333,82.5c-1.38,0-2.5-1.12-2.5-2.5s1.12-2.5,2.5-2.5c1.381,0,2.5,1.12,2.5,2.5S79.714,82.5,78.333,82.5z"/>
</svg>
