<svg width="100" height="100" viewBox="0 0 100 100" fill="none" xmlns="http://www.w3.org/2000/svg">
<path d="M89.0625 1.5625C89.0607 1.14866 88.8955 0.752279 88.6029 0.459644C88.3102 0.16701 87.9138 0.001809 87.5 0L12.5 0C12.086 0.00127749 11.6893 0.166308 11.3966 0.459057C11.1038 0.751806 10.9388 1.14849 10.9375 1.5625V98.4375C10.9388 98.8515 11.1038 99.2482 11.3966 99.5409C11.6893 99.8337 12.086 99.9987 12.5 100H87.5C87.9138 99.9982 88.3102 99.833 88.6029 99.5404C88.8955 99.2477 89.0607 98.8513 89.0625 98.4375V1.5625ZM21.875 10.9375H78.125V89.0625H21.875V10.9375ZM79.0405 7.8125H20.9595L16.272 3.125H83.728L79.0405 7.8125ZM18.75 10.022V89.978L14.0625 94.6655V5.33453L18.75 10.022ZM20.9595 92.1875H79.0405L83.728 96.875H16.272L20.9595 92.1875ZM81.25 89.978V10.022L85.9375 5.33453V94.6655L81.25 89.978Z" fill="#222226"/>
<path d="M37.5 73.4375H62.5C62.9144 73.4375 63.3118 73.2729 63.6049 72.9799C63.8979 72.6868 64.0625 72.2894 64.0625 71.875C64.0625 71.4606 63.8979 71.0632 63.6049 70.7701C63.3118 70.4771 62.9144 70.3125 62.5 70.3125H37.5C37.0856 70.3125 36.6882 70.4771 36.3951 70.7701C36.1021 71.0632 35.9375 71.4606 35.9375 71.875C35.9375 72.2894 36.1021 72.6868 36.3951 72.9799C36.6882 73.2729 37.0856 73.4375 37.5 73.4375Z" fill="#222226"/>
<path d="M57.8125 76.5625H42.1875C41.7731 76.5625 41.3757 76.7271 41.0826 77.0201C40.7896 77.3132 40.625 77.7106 40.625 78.125C40.625 78.5394 40.7896 78.9368 41.0826 79.2299C41.3757 79.5229 41.7731 79.6875 42.1875 79.6875H57.8125C58.2269 79.6875 58.6243 79.5229 58.9174 79.2299C59.2104 78.9368 59.375 78.5394 59.375 78.125C59.375 77.7106 59.2104 77.3132 58.9174 77.0201C58.6243 76.7271 58.2269 76.5625 57.8125 76.5625Z" fill="#222226"/>
<path d="M68.75 64.0625H31.25C30.8356 64.0625 30.4382 64.2271 30.1451 64.5201C29.8521 64.8132 29.6875 65.2106 29.6875 65.625V84.375C29.6875 84.7894 29.8521 85.1868 30.1451 85.4799C30.4382 85.7729 30.8356 85.9375 31.25 85.9375H68.75C69.1644 85.9375 69.5618 85.7729 69.8549 85.4799C70.1479 85.1868 70.3125 84.7894 70.3125 84.375V65.625C70.3125 65.2106 70.1479 64.8132 69.8549 64.5201C69.5618 64.2271 69.1644 64.0625 68.75 64.0625ZM67.1875 82.8125H32.8125V67.1875H67.1875V82.8125Z" fill="#222226"/>
<path d="M36.0579 35.1647C35.886 35.855 35.8678 36.5746 36.0045 37.2728C36.1412 37.9709 36.4295 38.6306 36.8491 39.2051C37.2687 39.7795 37.8093 40.2549 38.4327 40.5976C39.0562 40.9402 39.7473 41.1418 40.4572 41.1881C40.5137 41.1971 40.5697 41.209 40.625 41.2237V59.375C40.625 59.6515 40.6984 59.923 40.8377 60.1619C40.9769 60.4008 41.1771 60.5984 41.4177 60.7347C41.6584 60.8709 41.9309 60.9408 42.2073 60.9373C42.4838 60.9338 42.7544 60.8569 42.9915 60.7147L50 56.5093L57.0084 60.7147C57.2455 60.8569 57.5161 60.9338 57.7926 60.9373C58.0691 60.9408 58.3416 60.8709 58.5822 60.7347C58.8229 60.5984 59.023 60.4008 59.1623 60.1619C59.3016 59.923 59.375 59.6515 59.375 59.375V41.2242C59.4323 41.2089 59.4903 41.1966 59.5489 41.1873C60.2588 41.1403 60.9496 40.9379 61.5727 40.5945C62.1957 40.2511 62.7358 39.7751 63.1547 39.2C63.5735 38.625 63.861 37.965 63.9968 37.2666C64.1326 36.5683 64.1133 35.8487 63.9404 35.1586C63.8604 34.8425 63.8722 34.5102 63.9746 34.2006C64.0771 33.8911 64.2658 33.6173 64.5186 33.4114C65.0655 32.9563 65.5055 32.3863 65.8072 31.7419C66.1089 31.0975 66.2649 30.3945 66.2642 29.683C66.2635 28.9715 66.106 28.2689 65.803 27.6251C65.4999 26.9813 65.0588 26.4122 64.5109 25.9582C64.2597 25.7511 64.0727 25.4767 63.9719 25.1671C63.8711 24.8575 63.8607 24.5256 63.9418 24.2103C64.1138 23.52 64.132 22.8003 63.9953 22.1022C63.8586 21.404 63.5703 20.7444 63.1507 20.1699C62.7311 19.5954 62.1905 19.12 61.5671 18.7774C60.9436 18.4347 60.2525 18.2331 59.5426 18.1868C59.2159 18.1643 58.9021 18.0508 58.6365 17.8593C58.3709 17.6677 58.1642 17.4057 58.0397 17.1028C57.7711 16.4438 57.3617 15.8516 56.8402 15.3674C56.3188 14.8833 55.6978 14.5189 55.0208 14.2999C54.3437 14.0808 53.627 14.0124 52.9208 14.0993C52.2145 14.1863 51.5358 14.4265 50.9322 14.8032C50.6517 14.9765 50.3286 15.0682 49.999 15.0682C49.6694 15.0682 49.3463 14.9765 49.0659 14.8032C48.4623 14.4264 47.7835 14.1862 47.0772 14.0993C46.3709 14.0124 45.6542 14.0811 44.9772 14.3004C44.3002 14.5197 43.6794 14.8843 43.1582 15.3688C42.637 15.8533 42.228 16.4459 41.96 17.1051C41.8343 17.4083 41.6265 17.6703 41.3598 17.8615C41.0932 18.0528 40.7783 18.1658 40.4509 18.1876C39.7411 18.2347 39.0502 18.4371 38.4271 18.7804C37.8041 19.1238 37.264 19.5999 36.8451 20.1749C36.4263 20.7499 36.1388 21.4099 36.003 22.1083C35.8672 22.8066 35.8865 23.5263 36.0594 24.2164C36.1394 24.5324 36.1276 24.8648 36.0252 25.1743C35.9227 25.4838 35.734 25.7577 35.4812 25.9636C34.9343 26.4187 34.4943 26.9887 34.1926 27.6331C33.8909 28.2774 33.7349 28.9804 33.7356 29.6919C33.7363 30.4034 33.8938 31.1061 34.1968 31.7498C34.4999 32.3936 34.941 32.9627 35.4889 33.4167C35.7401 33.6238 35.9271 33.8982 36.0279 34.2078C36.1287 34.5174 36.1391 34.8493 36.0579 35.1647V35.1647ZM56.25 56.6154L50.804 53.3478C50.5612 53.202 50.2832 53.125 50 53.125C49.7167 53.125 49.4388 53.202 49.1959 53.3478L43.75 56.6154V44.4843C44.5603 45.0218 45.5104 45.3098 46.4828 45.3125C47.3636 45.3105 48.2275 45.0702 48.9828 44.617C49.0104 44.6004 49.0409 44.5897 49.0683 44.5725C49.351 44.4015 49.6754 44.3115 50.0059 44.3125C50.3363 44.3134 50.6602 44.4052 50.942 44.5778C51.7496 45.0773 52.6882 45.3237 53.637 45.2851C54.5712 45.3016 55.4864 45.0202 56.25 44.4817V56.6154ZM37.4908 28.3584C38.1897 27.7713 38.7099 26.9999 38.9924 26.1319C39.2748 25.2639 39.3081 24.3341 39.0884 23.4481C39.0254 23.205 39.0174 22.9508 39.0652 22.7042C39.113 22.4577 39.2153 22.2249 39.3647 22.0229C39.5162 21.8145 39.7117 21.642 39.9375 21.5178C40.1632 21.3936 40.4136 21.3206 40.6708 21.3042C41.5813 21.2397 42.4557 20.9219 43.1952 20.3869C43.9348 19.8518 44.5101 19.1207 44.8562 18.2761C44.9505 18.0397 45.0961 17.8273 45.2825 17.6542C45.469 17.481 45.6917 17.3516 45.9344 17.2751C46.1793 17.1958 46.4386 17.1707 46.6942 17.2018C46.9498 17.2329 47.1956 17.3194 47.4144 17.4551C48.1913 17.9355 49.0868 18.19 50.0003 18.19C50.9138 18.19 51.8092 17.9355 52.5862 17.4551C52.805 17.3186 53.051 17.2316 53.307 17.2005C53.563 17.1694 53.8227 17.1949 54.0678 17.2751C54.3103 17.3516 54.5329 17.4809 54.7193 17.6539C54.9058 17.8268 55.0515 18.039 55.1459 18.2751C55.4922 19.1211 56.0683 19.8533 56.8091 20.389C57.5498 20.9247 58.4256 21.2424 59.3375 21.3064C59.5932 21.3233 59.8421 21.3963 60.0665 21.5201C60.2909 21.6439 60.4853 21.8155 60.6361 22.0228C60.7861 22.2263 60.8887 22.4608 60.9365 22.709C60.9843 22.9573 60.976 23.2131 60.9122 23.4578C60.6938 24.3441 60.7286 25.274 61.0127 26.1415C61.2967 27.009 61.8186 27.7794 62.5189 28.365C62.7143 28.5266 62.8715 28.7296 62.9791 28.9592C63.0868 29.1889 63.1423 29.4395 63.1416 29.6931C63.1408 29.9468 63.084 30.1971 62.975 30.4261C62.866 30.6552 62.7077 30.8572 62.5114 31.0178C61.8124 31.6049 61.2922 32.3763 61.0098 33.2443C60.7274 34.1123 60.6941 35.0421 60.9137 35.9281C60.9768 36.1712 60.9847 36.4254 60.9369 36.6719C60.8891 36.9185 60.7868 37.1513 60.6375 37.3532C60.486 37.5617 60.2904 37.7342 60.0646 37.8584C59.8389 37.9826 59.5885 38.0556 59.3314 38.072C58.5188 38.1321 57.7344 38.3954 57.0501 38.8376C56.1918 39.3711 55.5251 40.1632 55.1459 41.1C55.0458 41.3344 54.8966 41.5445 54.7081 41.7162C54.5197 41.8878 54.2966 42.017 54.0539 42.0948C53.8113 42.1727 53.5547 42.1974 53.3016 42.1674C53.0485 42.1374 52.8048 42.0533 52.587 41.9209C51.8104 41.4406 50.9153 41.1863 50.0022 41.1863C49.089 41.1863 48.194 41.4406 47.4173 41.9209C47.1978 42.0458 46.9548 42.1238 46.7036 42.1499C46.4524 42.176 46.1986 42.1498 45.9581 42.0728C45.7176 41.9957 45.4956 41.8697 45.3064 41.7025C45.1171 41.5353 44.9646 41.3307 44.8584 41.1015C44.4817 40.1607 43.8122 39.3661 42.949 38.8351C42.264 38.3939 41.4794 38.1312 40.6669 38.0711C40.4111 38.0541 40.1623 37.9812 39.9379 37.8574C39.7135 37.7336 39.519 37.562 39.3683 37.3548C39.2182 37.1513 39.1156 36.9168 39.0678 36.6685C39.0201 36.4202 39.0284 36.1643 39.0922 35.9197C39.3105 35.0333 39.2757 34.1035 38.9916 33.2359C38.7076 32.3684 38.1857 31.598 37.4854 31.0125C37.29 30.8508 37.1328 30.6478 37.0252 30.4182C36.9175 30.1886 36.8621 29.9379 36.8628 29.6843C36.8635 29.4307 36.9204 29.1803 37.0293 28.9513C37.1383 28.7223 37.2966 28.5202 37.4929 28.3597L37.4908 28.3584Z" fill="#222226"/>
<path d="M50 37.5C51.5452 37.5 53.0556 37.0418 54.3404 36.1834C55.6251 35.3249 56.6265 34.1048 57.2178 32.6772C57.8091 31.2497 57.9638 29.6788 57.6624 28.1634C57.3609 26.6479 56.6169 25.2558 55.5243 24.1632C54.4317 23.0706 53.0396 22.3266 51.5241 22.0251C50.0087 21.7237 48.4378 21.8784 47.0103 22.4697C45.5827 23.061 44.3626 24.0624 43.5041 25.3471C42.6457 26.6319 42.1875 28.1423 42.1875 29.6875C42.1899 31.7588 43.0138 33.7445 44.4784 35.2091C45.943 36.6737 47.9287 37.4976 50 37.5V37.5ZM50 25C50.9271 25 51.8334 25.2749 52.6042 25.79C53.3751 26.3051 53.9759 27.0371 54.3307 27.8937C54.6855 28.7502 54.7783 29.6927 54.5974 30.602C54.4166 31.5113 53.9701 32.3465 53.3146 33.0021C52.659 33.6576 51.8238 34.1041 50.9145 34.2849C50.0052 34.4658 49.0627 34.373 48.2062 34.0182C47.3496 33.6634 46.6176 33.0626 46.1025 32.2917C45.5874 31.5209 45.3125 30.6146 45.3125 29.6875C45.3139 28.4447 45.8082 27.2532 46.6869 26.3744C47.5657 25.4957 48.7572 25.0014 50 25V25Z" fill="#222226"/>
</svg>
