<svg width="100" height="100" viewBox="0 0 100 100" fill="none" xmlns="http://www.w3.org/2000/svg">
<path d="M96.875 48.4375C96.8739 48.1864 96.8129 47.9392 96.6969 47.7165C96.5809 47.4938 96.4133 47.3021 96.2081 47.1573L81.25 36.6866V28.125H92.1875C92.6019 28.125 92.9993 27.9604 93.2924 27.6674C93.5854 27.3743 93.75 26.9769 93.75 26.5625V7.8125C93.7476 5.74125 92.9237 3.75552 91.4591 2.29092C89.9945 0.826324 88.0088 0.00243977 85.9375 0L26.5625 0C24.4912 0.00243977 22.5055 0.826324 21.0409 2.29092C19.5763 3.75552 18.7524 5.74125 18.75 7.8125V36.6866L3.79188 47.1573C3.58614 47.3015 3.41814 47.4931 3.30207 47.716C3.186 47.9388 3.12526 48.1863 3.125 48.4375V98.4375C3.12955 98.8505 3.29563 99.2453 3.58768 99.5373C3.87972 99.8294 4.27451 99.9955 4.6875 100H95.3125C95.7258 99.9964 96.1211 99.8306 96.4134 99.5384C96.7056 99.2461 96.8714 98.8508 96.875 98.4375V48.4375ZM6.25 51.5839L30.2247 69.7722L6.25 94.5737V51.5839ZM80.6328 61.5402L80.6439 61.5269L93.75 51.5839V94.5737L69.7753 69.7722C71.3381 68.5872 75.6219 65.3495 80.6328 61.5402ZM92.6602 48.488L81.25 57.1442V40.5009L92.6602 48.488ZM90.625 7.8125V25H81.25V7.8125C81.25 6.5693 81.7439 5.37701 82.6229 4.49794C83.502 3.61886 84.6943 3.125 85.9375 3.125C87.1807 3.125 88.373 3.61886 89.2521 4.49794C90.1311 5.37701 90.625 6.5693 90.625 7.8125V7.8125ZM26.5625 3.125H79.6912C79.6462 3.18516 79.6131 3.25422 79.5702 3.31547C79.478 3.44578 79.3983 3.58234 79.3139 3.71828C79.1506 3.98011 79.0031 4.25143 78.872 4.53078C78.8005 4.68437 78.7327 4.8375 78.6708 4.99625C78.5555 5.29868 78.4593 5.60803 78.3827 5.9225C78.3456 6.07031 78.2998 6.21297 78.2714 6.36375C78.1774 6.84103 78.1284 7.32607 78.125 7.8125V59.5156L67.588 67.5095L52.5147 51.9172C51.8009 51.1777 50.948 50 50 50C49.052 50 48.2031 51.1734 47.4892 51.9123L32.4125 67.5081C30.3656 65.9561 32.2575 67.3914 21.875 59.5148V7.8125C21.8764 6.56972 22.3707 5.37823 23.2494 4.49944C24.1282 3.62066 25.3197 3.12636 26.5625 3.125V3.125ZM18.75 57.1442L7.33984 48.488L18.75 40.5009V57.1442ZM8.37094 96.875C23.1562 81.5794 36.8939 67.3759 50 53.8109C59.4944 63.6377 82.1339 87.0525 91.6291 96.875H8.37094Z" fill="#222226"/>
<path d="M37.4375 26.7022C37.2784 27.3404 37.2615 28.0057 37.3879 28.6512C37.5142 29.2967 37.7808 29.9066 38.1687 30.4378C38.5567 30.9689 39.0566 31.4084 39.633 31.7251C40.2095 32.0418 40.8485 32.2281 41.5048 32.2707C41.7497 32.2893 41.9853 32.3725 42.1875 32.5118V46.875C42.1875 47.1651 42.2683 47.4496 42.4208 47.6964C42.5734 47.9433 42.7917 48.1427 43.0512 48.2725C43.3108 48.4023 43.6013 48.4572 43.8903 48.4312C44.1793 48.4051 44.4554 48.2991 44.6875 48.125L50 44.1406L55.3125 48.125C55.5446 48.2991 55.8207 48.4051 56.1097 48.4312C56.3987 48.4572 56.6892 48.4023 56.9488 48.2725C57.2083 48.1427 57.4266 47.9433 57.5791 47.6964C57.7317 47.4496 57.8125 47.1651 57.8125 46.875V32.512C58.0162 32.3719 58.2534 32.2884 58.5 32.27C59.1565 32.2267 59.7955 32.0397 60.3717 31.7222C60.948 31.4048 61.4475 30.9646 61.8349 30.4328C62.2223 29.9011 62.4881 29.2907 62.6136 28.6448C62.7391 27.999 62.7212 27.3334 62.5611 26.6953C62.4983 26.4462 62.5079 26.1843 62.5885 25.9404C62.6692 25.6965 62.8177 25.4807 63.0166 25.3181C63.5225 24.8975 63.9295 24.3705 64.2086 23.7747C64.4878 23.179 64.6323 22.529 64.6317 21.8711C64.6312 21.2131 64.4858 20.5634 64.2057 19.9681C63.9256 19.3727 63.5178 18.8464 63.0112 18.4265C62.8131 18.2631 62.6657 18.0467 62.5863 17.8025C62.5068 17.5583 62.4986 17.2965 62.5626 17.0478C62.7217 16.4096 62.7386 15.7442 62.6123 15.0987C62.4859 14.4532 62.2194 13.8433 61.8314 13.3122C61.4434 12.781 60.9436 12.3416 60.3671 12.0248C59.7907 11.7081 59.1517 11.5218 58.4953 11.4792C58.2375 11.4612 57.9899 11.3716 57.7801 11.2207C57.5703 11.0698 57.4068 10.8634 57.3078 10.6247C57.0599 10.0153 56.6817 9.46748 56.1998 9.01963C55.7179 8.57179 55.1439 8.23475 54.518 8.0321C53.8921 7.82946 53.2295 7.76613 52.5765 7.84655C51.9236 7.92696 51.2961 8.14918 50.7381 8.49762C50.5163 8.63406 50.261 8.70623 50.0006 8.70609C49.7402 8.70595 49.4849 8.63351 49.2633 8.49684C48.7051 8.14855 48.0775 7.9265 47.4244 7.84622C46.7714 7.76595 46.1087 7.8294 45.4827 8.03213C44.8568 8.23486 44.2827 8.57196 43.8008 9.01985C43.3188 9.46773 42.9405 10.0156 42.6925 10.625C42.5933 10.8644 42.4292 11.0714 42.2186 11.2225C42.008 11.3737 41.7594 11.4629 41.5008 11.4803C40.8443 11.5236 40.2053 11.7105 39.629 12.028C39.0528 12.3455 38.5533 12.7856 38.1659 13.3174C37.7785 13.8492 37.5126 14.4596 37.3871 15.1054C37.2617 15.7513 37.2796 16.4168 37.4397 17.055C37.5024 17.3041 37.4929 17.5659 37.4122 17.8098C37.3316 18.0537 37.1831 18.2696 36.9842 18.4322C36.4783 18.8528 36.0713 19.3797 35.7921 19.9755C35.513 20.5713 35.3685 21.2213 35.369 21.8792C35.3695 22.5371 35.515 23.1869 35.7951 23.7822C36.0752 24.3775 36.483 24.9039 36.9895 25.3237C37.1875 25.4872 37.3347 25.7036 37.4141 25.9478C37.4934 26.1919 37.5015 26.4536 37.4375 26.7022V26.7022ZM54.6875 43.75L50.9375 40.9375C50.667 40.7346 50.3381 40.625 50 40.625C49.6619 40.625 49.333 40.7346 49.0625 40.9375L45.3125 43.75V35.6636C45.9605 35.8824 46.6468 35.9643 47.3281 35.904C48.0146 35.8376 48.6767 35.6147 49.2636 35.2523C49.5045 35.1072 49.7822 35.0347 50.0633 35.0435C50.3444 35.0523 50.6169 35.1421 50.8483 35.302C51.2568 35.5488 51.7068 35.7192 52.1764 35.8048C53.0089 36.0105 53.8842 35.96 54.6875 35.6598V43.75ZM38.9916 20.8267C39.6379 20.2843 40.1191 19.5713 40.3802 18.7689C40.6414 17.9665 40.6721 17.1069 40.4687 16.2879C40.4196 16.0959 40.4137 15.8954 40.4515 15.7008C40.4894 15.5063 40.57 15.3225 40.6875 15.1629C40.8065 14.9978 40.9608 14.8613 41.1392 14.7632C41.3176 14.6652 41.5155 14.6081 41.7187 14.5961C42.5605 14.5361 43.3687 14.2423 44.0525 13.7477C44.7363 13.2532 45.2683 12.5775 45.5887 11.7968C45.6635 11.6104 45.7787 11.4429 45.9259 11.3062C46.0731 11.1695 46.2487 11.0671 46.4401 11.0064C46.5824 10.9608 46.7309 10.9376 46.8803 10.9375C47.1389 10.9373 47.3922 11.0108 47.6105 11.1495C48.3285 11.5935 49.1561 11.8287 50.0004 11.8287C50.8446 11.8287 51.6722 11.5935 52.3903 11.1495C52.5616 11.0423 52.7543 10.9738 52.9548 10.9488C53.1553 10.9238 53.3589 10.9428 53.5513 11.0047C53.7437 11.0665 53.9203 11.1696 54.0687 11.3067C54.2171 11.4439 54.3338 11.6118 54.4106 11.7987C54.7317 12.5796 55.2645 13.2554 55.949 13.7498C56.6335 14.2442 57.4424 14.5377 58.2847 14.5972C58.4873 14.6093 58.6846 14.6665 58.8624 14.7644C59.0402 14.8623 59.1939 14.9985 59.3125 15.1633C59.4304 15.3238 59.511 15.5085 59.5486 15.7041C59.5862 15.8996 59.5798 16.1011 59.5298 16.2939C59.3276 17.1136 59.3596 17.9737 59.6222 18.7761C59.8848 19.5785 60.3675 20.2911 61.0153 20.8326C61.1694 20.9601 61.2932 21.1201 61.3781 21.3012C61.4629 21.4823 61.5065 21.6799 61.5059 21.8799C61.5052 22.0798 61.4603 22.2772 61.3743 22.4577C61.2882 22.6382 61.1633 22.7974 61.0084 22.9239C60.3621 23.4662 59.8811 24.1791 59.6199 24.9814C59.3588 25.7837 59.3281 26.6431 59.5312 27.462C59.5804 27.654 59.5863 27.8545 59.5484 28.0491C59.5106 28.2437 59.43 28.4274 59.3125 28.587C59.1935 28.7521 59.0392 28.8886 58.8608 28.9867C58.6824 29.0848 58.4844 29.1419 58.2812 29.1539C57.538 29.2076 56.8194 29.4436 56.1891 29.8411C55.5587 30.2386 55.0361 30.7854 54.6673 31.4329C54.6101 31.5356 54.5583 31.6412 54.5119 31.7492C54.4797 31.8179 54.4403 31.8823 54.4116 31.9531C54.3369 32.1395 54.2219 32.307 54.0748 32.4436C53.9277 32.5802 53.7521 32.6825 53.5608 32.7432C53.3685 32.8055 53.165 32.8251 52.9644 32.8008C52.7638 32.7766 52.5709 32.7089 52.3991 32.6026C51.6796 32.1575 50.8504 31.9214 50.0044 31.9206C49.1583 31.9198 48.3288 32.1544 47.6084 32.5981C47.3549 32.7499 47.0605 32.819 46.7659 32.7961C46.4713 32.7731 46.1911 32.6591 45.9642 32.4698C45.9411 32.4498 45.9194 32.4242 45.8967 32.4017C45.8004 32.3075 45.7207 32.1978 45.6609 32.0772C45.6348 32.0369 45.611 31.9952 45.5897 31.9522C45.5403 31.8304 45.4766 31.7178 45.4178 31.6017C45.3908 31.5498 45.3709 31.4962 45.3397 31.4445C44.9712 30.7935 44.4476 30.2438 43.8153 29.8441C43.183 29.4444 42.4617 29.2073 41.7156 29.1537C41.513 29.1415 41.3157 29.0844 41.1379 28.9865C40.9601 28.8886 40.8064 28.7523 40.6878 28.5876C40.5699 28.4271 40.4893 28.2424 40.4517 28.0468C40.4141 27.8512 40.4205 27.6498 40.4705 27.457C40.6727 26.6373 40.6407 25.7772 40.3781 24.9748C40.1154 24.1723 39.6328 23.4598 38.985 22.9182C38.8309 22.7908 38.7071 22.6307 38.6222 22.4497C38.5374 22.2686 38.4938 22.071 38.4944 21.871C38.4951 21.671 38.54 21.4737 38.626 21.2932C38.712 21.1127 38.837 20.9535 38.9919 20.827L38.9916 20.8267Z" fill="#222226"/>
<path d="M50 29.6875C51.5452 29.6875 53.0556 29.2293 54.3404 28.3709C55.6251 27.5124 56.6265 26.2923 57.2178 24.8647C57.8091 23.4372 57.9638 21.8663 57.6624 20.3509C57.3609 18.8354 56.6169 17.4433 55.5243 16.3507C54.4317 15.2581 53.0396 14.5141 51.5241 14.2126C50.0087 13.9112 48.4378 14.0659 47.0103 14.6572C45.5827 15.2485 44.3626 16.2499 43.5041 17.5346C42.6457 18.8194 42.1875 20.3298 42.1875 21.875C42.1899 23.9463 43.0138 25.932 44.4784 27.3966C45.943 28.8612 47.9287 29.6851 50 29.6875ZM50 17.1875C50.9271 17.1875 51.8334 17.4624 52.6042 17.9775C53.3751 18.4926 53.9759 19.2246 54.3307 20.0812C54.6855 20.9377 54.7783 21.8802 54.5974 22.7895C54.4166 23.6988 53.9701 24.534 53.3146 25.1896C52.659 25.8451 51.8238 26.2916 50.9145 26.4724C50.0052 26.6533 49.0627 26.5605 48.2062 26.2057C47.3496 25.8509 46.6176 25.2501 46.1025 24.4792C45.5874 23.7084 45.3125 22.8021 45.3125 21.875C45.3139 20.6322 45.8082 19.4407 46.6869 18.5619C47.5657 17.6832 48.7572 17.1889 50 17.1875V17.1875Z" fill="#222226"/>
</svg>
