<svg version="1.0" id="Layer_1" xmlns="http://www.w3.org/2000/svg" xmlns:xlink="http://www.w3.org/1999/xlink" x="0px" y="0px"
	 width="100px" height="100px" viewBox="0 0 100 100" enable-background="new 0 0 100 100" xml:space="preserve">
<path d="M83.333,83.333V60L70,53.333V50h6.667V16.667L63.333,10H36.667l-13.333,6.667V50H30v3.333L16.667,60v23.333L10,86.667V90
	h13.333V76.667h23.333v6.666L40,86.667V90h20v-3.333l-6.667-3.334v-6.666h23.334V90H90v-3.333L83.333,83.333z M30,70h-6.667v-5.879
	L30,60.788V70z M30,20.785l8.241-4.118h23.52L70,20.785v2.549H30V20.785z M30,30h40v13.333H30V30z M63.333,70h-10v-6.667h-6.667V70
	h-10V50h26.667V70z M76.667,70H70v-9.212l6.667,3.333V70z"/>
<circle cx="50" cy="36.667" r="2.5"/>
<circle cx="60.833" cy="36.667" r="2.5"/>
<circle cx="39.167" cy="36.667" r="2.5"/>
</svg>
