<svg version="1.0" id="Layer_1" xmlns="http://www.w3.org/2000/svg" xmlns:xlink="http://www.w3.org/1999/xlink" x="0px" y="0px"
	 width="100px" height="100px" viewBox="0 0 100 100" enable-background="new 0 0 100 100" xml:space="preserve">
<path d="M76.667,23.314c-4.395,1.819-9.037,2.073-13.334,1.055V20h-6.666v30.599C54.492,50.234,52.278,50,50,50
	c-22.09,0-40,17.91-40,40h6.667c0-18.408,14.925-33.333,33.333-33.333c2.285,0,4.512,0.23,6.667,0.67v19.33h6.666V59.46
	c11.768,5.146,20,16.875,20,30.54H90c0-17.409-11.143-32.178-26.667-37.676v-7.838c1.657,0.299,3.324,0.501,4.997,0.501
	c3.685,0,7.373-0.726,10.886-2.178c3.479-1.442,7.269-1.481,10.784-0.241V22.259C85.703,21.24,81.062,21.498,76.667,23.314z
	 M76.667,36.647c-4.395,1.82-9.037,2.074-13.334,1.055v-6.549c1.657,0.299,3.324,0.501,4.997,0.501
	c3.685,0,7.373-0.726,10.886-2.178c1.338-0.554,2.725-0.837,4.117-0.983v6.569C81.101,35.228,78.854,35.746,76.667,36.647z"/>
<polygon points="17.611,15 20,10 15,12.386 10,10 12.389,15 10,20 15,17.611 20,20 "/>
<polygon points="87.61,51.667 90,46.667 85,49.056 80,46.667 82.39,51.667 80,56.667 85,54.277 90,56.667 "/>
<polygon points="44.277,25 46.667,20 41.667,22.389 36.667,20 39.056,25 36.667,30 41.667,27.611 46.667,30 "/>
<polygon points="27.611,41.667 30,36.667 25,39.056 20,36.667 22.389,41.667 20,46.667 25,44.277 30,46.667 "/>
<circle cx="45.833" cy="40.833" r="2.5"/>
<circle cx="52.5" cy="12.5" r="2.5"/>
<circle cx="72.5" cy="17.5" r="2.5"/>
<circle cx="27.5" cy="25.833" r="2.5"/>
<circle cx="15.833" cy="54.167" r="2.5"/>
</svg>
