<svg width="100" height="100" viewBox="0 0 100 100" fill="none" xmlns="http://www.w3.org/2000/svg">
<path d="M59.375 42.1661V35.8594C60.7273 35.6689 61.9587 34.9775 62.8254 33.9221C63.6921 32.8667 64.1308 31.5243 64.0546 30.1608C63.9785 28.7972 63.393 27.512 62.4142 26.5597C61.4354 25.6074 60.1346 25.0574 58.7695 25.0186L70.1477 2.26223C70.333 1.89155 70.3635 1.46241 70.2325 1.06923C70.1015 0.67605 69.8196 0.351028 69.4489 0.165666C69.0782 -0.019695 68.6491 -0.0502118 68.2559 0.0808292C67.8627 0.21187 67.5377 0.493735 67.3524 0.864416L55.2841 25H52.5284L63.8977 2.26145C64.083 1.89077 64.1135 1.46163 63.9825 1.06845C63.8515 0.675269 63.5696 0.350247 63.1989 0.164885C62.8282 -0.0204762 62.3991 -0.0509931 62.0059 0.0800479C61.6127 0.211089 61.2877 0.492954 61.1024 0.863635L49.0341 25H46.2784L57.6477 2.26145C57.833 1.89077 57.8635 1.46163 57.7325 1.06845C57.6015 0.675269 57.3196 0.350247 56.9489 0.164885C56.5782 -0.0204762 56.1491 -0.0509931 55.7559 0.0800479C55.3627 0.211089 55.0377 0.492954 54.8523 0.863635L50 10.5683L45.1477 0.863635C44.9623 0.492954 44.6373 0.211089 44.2441 0.0800479C43.8509 -0.0509932 43.4218 -0.0204763 43.0511 0.164885C42.6804 0.350247 42.3986 0.675269 42.2675 1.06845C42.1365 1.46163 42.167 1.89077 42.3523 2.26145L48.2528 14.0625L46.875 16.8183L38.8977 0.863635C38.8059 0.680092 38.6788 0.516424 38.5238 0.381976C38.3688 0.247528 38.1888 0.144933 37.9941 0.0800478C37.7994 0.0151629 37.5939 -0.0107409 37.3892 0.00381554C37.1845 0.018372 36.9846 0.0731035 36.8011 0.164885C36.6176 0.256667 36.4539 0.383701 36.3194 0.538735C36.185 0.693769 36.0824 0.873767 36.0175 1.06845C35.9526 1.26313 35.9267 1.46869 35.9413 1.67339C35.9558 1.87808 36.0106 2.0779 36.1023 2.26145L45.1278 20.3125L43.75 23.0683L32.6477 0.863635C32.5559 0.680092 32.4288 0.516424 32.2738 0.381976C32.1188 0.247528 31.9388 0.144933 31.7441 0.0800479C31.5494 0.015163 31.3439 -0.0107408 31.1392 0.0038156C30.9345 0.018372 30.7346 0.0731035 30.5511 0.164885C30.3676 0.256667 30.2039 0.383701 30.0694 0.538735C29.935 0.693769 29.8324 0.873767 29.7675 1.06845C29.7026 1.26313 29.6767 1.46869 29.6913 1.67339C29.7058 1.87808 29.7606 2.0779 29.8523 2.26145L41.2305 25.0179C39.8645 25.0555 38.5626 25.605 37.5828 26.5574C36.603 27.5099 36.017 28.7958 35.9408 30.1601C35.8646 31.5245 36.3038 32.8676 37.1715 33.9232C38.0391 34.9789 39.2718 35.67 40.625 35.8594V42.1669C33.9353 44.3934 28.2563 48.928 24.6047 54.9592C20.953 60.9903 19.567 68.1242 20.6947 75.0839C21.8225 82.0436 25.3904 88.3748 30.7598 92.9442C36.1292 97.5135 42.9495 100.023 50 100.023C57.0505 100.023 63.8708 97.5135 69.2402 92.9442C74.6096 88.3748 78.1775 82.0436 79.3053 75.0839C80.433 68.1242 79.047 60.9903 75.3953 54.9592C71.7437 48.928 66.0647 44.3934 59.375 42.1669V42.1661ZM39.0625 30.4688C39.0632 29.8474 39.3104 29.2517 39.7498 28.8123C40.1891 28.3729 40.7849 28.1257 41.4063 28.125H58.5938C59.2154 28.125 59.8115 28.372 60.251 28.8115C60.6906 29.251 60.9375 29.8472 60.9375 30.4688C60.9375 31.0904 60.6906 31.6865 60.251 32.1261C59.8115 32.5656 59.2154 32.8125 58.5938 32.8125H41.4063C40.7849 32.8118 40.1891 32.5647 39.7498 32.1253C39.3104 31.6859 39.0632 31.0902 39.0625 30.4688V30.4688ZM43.75 41.2925V35.9375H56.25V41.2925C54.1955 40.8533 52.1009 40.6296 50 40.625C47.9001 40.6467 45.8071 40.8702 43.75 41.2925V41.2925ZM50 96.875C44.7484 96.8736 39.6152 95.3152 35.2492 92.3967C30.8833 89.4782 27.4807 85.3307 25.4716 80.4787C23.4626 75.6266 22.9373 70.2877 23.9622 65.1371C24.987 59.9865 27.5161 55.2554 31.2295 51.542C34.9429 47.8286 39.674 45.2996 44.8246 44.2747C49.9752 43.2498 55.314 43.7751 60.1661 45.7842C65.0182 47.7932 69.1657 51.1958 72.0842 55.5618C75.0027 59.9277 76.5611 65.061 76.5625 70.3125C76.5547 77.3549 73.7536 84.1066 68.7739 89.0864C63.7941 94.0661 57.0424 96.8672 50 96.875V96.875Z" fill="#222226"/>
<path d="M50 46.875C45.3645 46.875 40.8331 48.2496 36.9788 50.8249C33.1246 53.4003 30.1205 57.0607 28.3466 61.3434C26.5727 65.626 26.1085 70.3385 27.0129 74.8849C27.9172 79.4314 30.1494 83.6075 33.4272 86.8853C36.705 90.1631 40.8811 92.3953 45.4276 93.2997C49.974 94.204 54.6865 93.7399 58.9691 91.9659C63.2518 90.192 66.9122 87.188 69.4876 83.3337C72.0629 79.4794 73.4375 74.948 73.4375 70.3125C73.4305 64.0986 70.9589 58.1413 66.5651 53.7475C62.1712 49.3536 56.2139 46.882 50 46.875V46.875ZM50 90.625C45.9826 90.625 42.0554 89.4337 38.715 87.2017C35.3746 84.9698 32.7711 81.7974 31.2337 78.0858C29.6963 74.3741 29.294 70.29 30.0778 66.3497C30.8616 62.4095 32.7961 58.7902 35.6369 55.9494C38.4777 53.1086 42.097 51.1741 46.0372 50.3903C49.9775 49.6065 54.0616 50.0088 57.7733 51.5462C61.4849 53.0836 64.6573 55.6871 66.8892 59.0275C69.1212 62.3679 70.3125 66.2951 70.3125 70.3125C70.3066 75.6979 68.1646 80.861 64.3565 84.669C60.5485 88.4771 55.3854 90.619 50 90.625V90.625Z" fill="#222226"/>
<path d="M60.9039 65.5869L54.3381 64.6338L51.4006 58.6844C51.2569 58.4406 51.052 58.2385 50.8063 58.0981C50.5606 57.9578 50.2825 57.8839 49.9994 57.8839C49.7164 57.8839 49.4383 57.9578 49.1926 58.0981C48.9469 58.2385 48.742 58.4406 48.5983 58.6844L45.6625 64.6338L39.0967 65.5869C38.8082 65.6287 38.5371 65.7504 38.3141 65.9383C38.0911 66.1262 37.9251 66.3727 37.835 66.65C37.7448 66.9273 37.734 67.2242 37.8038 67.5073C37.8736 67.7904 38.0212 68.0483 38.23 68.2519L42.98 72.8836L41.8594 79.4236C41.81 79.711 41.8421 80.0065 41.952 80.2766C42.0618 80.5468 42.2451 80.7808 42.481 80.9522C42.7169 81.1235 42.9961 81.2255 43.287 81.2465C43.5779 81.2674 43.8688 81.2066 44.1269 81.0708L50 77.9831L55.8716 81.0708C56.1296 81.2066 56.4206 81.2674 56.7114 81.2465C57.0023 81.2255 57.2815 81.1235 57.5174 80.9522C57.7534 80.7808 57.9366 80.5468 58.0465 80.2766C58.1563 80.0065 58.1884 79.711 58.1391 79.4236L57.0175 72.8836L61.7706 68.2525C61.9796 68.049 62.1273 67.791 62.1973 67.5078C62.2672 67.2246 62.2564 66.9276 62.1662 66.6502C62.076 66.3728 61.91 66.1262 61.6869 65.9382C61.4638 65.7503 61.1926 65.6286 60.9039 65.5869V65.5869ZM54.2476 71.2189C54.0665 71.3959 53.931 71.6143 53.8528 71.8552C53.7746 72.0961 53.7561 72.3524 53.7989 72.602L54.5237 76.8311L50.7269 74.8344C50.5027 74.7164 50.2532 74.6547 49.9998 74.6547C49.7465 74.6547 49.497 74.7164 49.2728 74.8344L45.475 76.8311L46.2006 72.602C46.2431 72.3525 46.2244 72.0963 46.1461 71.8555C46.0679 71.6148 45.9324 71.3966 45.7512 71.2197L42.6789 68.2244L46.9245 67.6078C47.1754 67.5715 47.4137 67.4746 47.6188 67.3257C47.8239 67.1767 47.9897 66.98 48.1019 66.7527L50 62.9052L51.8997 66.7527C52.0116 66.98 52.1772 67.1767 52.3822 67.3257C52.5872 67.4747 52.8254 67.5715 53.0762 67.6078L57.3211 68.2244L54.2476 71.2189Z" fill="#222226"/>
</svg>
