<svg width="100" height="100" viewBox="0 0 100 100" fill="none" xmlns="http://www.w3.org/2000/svg">
<path d="M57.8125 51.2677V43.75H59.375C60.6182 43.75 61.8105 43.2561 62.6896 42.3771C63.5686 41.498 64.0625 40.3057 64.0625 39.0625C64.0625 37.8193 63.5686 36.627 62.6896 35.7479C61.8105 34.8689 60.6182 34.375 59.375 34.375H57.8125V29.0909L69.4489 23.2727C69.7084 23.1429 69.9267 22.9434 70.0792 22.6965C70.2318 22.4496 70.3125 22.1652 70.3125 21.875V1.5625C70.3125 1.1481 70.1479 0.750671 69.8549 0.457646C69.5618 0.16462 69.1644 0 68.75 0C68.3356 0 67.9382 0.16462 67.6451 0.457646C67.3521 0.750671 67.1875 1.1481 67.1875 1.5625V20.9091L57.8125 25.5966V1.5625C57.8125 1.1481 57.6479 0.750671 57.3549 0.457646C57.0618 0.16462 56.6644 0 56.25 0C55.8356 0 55.4382 0.16462 55.1451 0.457646C54.8521 0.750671 54.6875 1.1481 54.6875 1.5625V26.5625H45.3125V1.5625C45.3125 1.1481 45.1479 0.750671 44.8548 0.457646C44.5618 0.16462 44.1644 0 43.75 0C43.3356 0 42.9382 0.16462 42.6451 0.457646C42.3521 0.750671 42.1875 1.1481 42.1875 1.5625V25.5966L32.8125 20.9091V1.5625C32.8125 1.1481 32.6479 0.750671 32.3548 0.457646C32.0618 0.16462 31.6644 0 31.25 0C30.8356 0 30.4382 0.16462 30.1451 0.457646C29.8521 0.750671 29.6875 1.1481 29.6875 1.5625V21.875C29.6875 22.1652 29.7682 22.4496 29.9208 22.6965C30.0733 22.9434 30.2916 23.1429 30.5511 23.2727L42.1875 29.0909V34.375H40.625C39.3818 34.375 38.1895 34.8689 37.3104 35.7479C36.4314 36.627 35.9375 37.8193 35.9375 39.0625C35.9375 40.3057 36.4314 41.498 37.3104 42.3771C38.1895 43.2561 39.3818 43.75 40.625 43.75H42.1875V51.2677C36.5405 53.1254 31.7403 56.9346 28.6482 62.0118C25.556 67.089 24.3743 73.1019 25.315 78.9717C26.2557 84.8415 29.2573 90.184 33.7812 94.0406C38.3051 97.8972 44.0553 100.016 50 100.016C55.9447 100.016 61.6949 97.8972 66.2188 94.0406C70.7427 90.184 73.7443 84.8415 74.685 78.9717C75.6257 73.1019 74.444 67.089 71.3518 62.0118C68.2597 56.9346 63.4595 53.1254 57.8125 51.2677ZM45.3125 29.6875H54.6875V34.375H45.3125V29.6875ZM39.0625 39.0625C39.063 38.6483 39.2278 38.2511 39.5207 37.9582C39.8136 37.6653 40.2108 37.5005 40.625 37.5H59.375C59.7894 37.5 60.1868 37.6646 60.4799 37.9576C60.7729 38.2507 60.9375 38.6481 60.9375 39.0625C60.9375 39.4769 60.7729 39.8743 60.4799 40.1674C60.1868 40.4604 59.7894 40.625 59.375 40.625H40.625C40.2108 40.6245 39.8136 40.4597 39.5207 40.1668C39.2278 39.8739 39.063 39.4767 39.0625 39.0625ZM45.3125 50.4402V43.75H54.6875V50.4402C53.1393 50.168 51.5718 50.0208 50 50C48.4282 50.0208 46.8607 50.168 45.3125 50.4402V50.4402ZM50 96.875C45.6748 96.8741 41.447 95.5908 37.8511 93.1873C34.2552 90.7838 31.4527 87.368 29.798 83.3719C28.1432 79.3758 27.7105 74.9787 28.5545 70.7367C29.3985 66.4947 31.4814 62.5981 34.5398 59.5398C37.5981 56.4814 41.4947 54.3985 45.7367 53.5545C49.9787 52.7105 54.3758 53.1432 58.3719 54.798C62.368 56.4528 65.7838 59.2552 68.1873 62.8511C70.5908 66.447 71.8741 70.6748 71.875 75C71.8685 80.7996 69.5617 86.3598 65.4607 90.4607C61.3598 94.5617 55.7996 96.8685 50 96.875Z" fill="#222226"/>
<path d="M50 54.6875C45.9826 54.6875 42.0554 55.8788 38.715 58.1108C35.3746 60.3427 32.7711 63.5151 31.2337 67.2267C29.6963 70.9384 29.294 75.0225 30.0778 78.9628C30.8616 82.903 32.7961 86.5224 35.6369 89.3631C38.4777 92.2039 42.097 94.1384 46.0372 94.9222C49.9775 95.706 54.0616 95.3037 57.7733 93.7663C61.4849 92.2289 64.6573 89.6254 66.8892 86.285C69.1212 82.9446 70.3125 79.0174 70.3125 75C70.3066 69.6146 68.1646 64.4515 64.3565 60.6435C60.5485 56.8354 55.3854 54.6935 50 54.6875V54.6875ZM50 92.1875C46.6006 92.1875 43.2776 91.1795 40.4511 89.2909C37.6247 87.4023 35.4217 84.718 34.1208 81.5774C32.8199 78.4368 32.4796 74.9809 33.1428 71.6469C33.8059 68.3128 35.4429 65.2503 37.8466 62.8466C40.2503 60.4429 43.3128 58.8059 46.6469 58.1428C49.9809 57.4796 53.4368 57.8199 56.5774 59.1208C59.718 60.4217 62.4023 62.6247 64.2909 65.4511C66.1795 68.2776 67.1875 71.6006 67.1875 75C67.1823 79.5568 65.3699 83.9255 62.1477 87.1477C58.9255 90.3699 54.5568 92.1823 50 92.1875V92.1875Z" fill="#222226"/>
<path d="M62.165 71.338C62.0749 71.0606 61.909 70.814 61.686 70.626C61.4629 70.438 61.1918 70.3162 60.9031 70.2744L54.3374 69.3213L51.4016 63.3713C51.2577 63.1276 51.0527 62.9257 50.8069 62.7854C50.5611 62.6451 50.283 62.5714 50 62.5714C49.717 62.5714 49.4389 62.6451 49.1931 62.7854C48.9473 62.9257 48.7424 63.1276 48.5985 63.3713L45.6627 69.3207L39.0969 70.2738C38.8083 70.3156 38.5372 70.4373 38.3143 70.6252C38.0913 70.8131 37.9253 71.0596 37.8352 71.3369C37.745 71.6141 37.7342 71.9111 37.804 72.1942C37.8738 72.4773 38.0214 72.7352 38.2302 72.9388L42.9802 77.5705L41.8594 84.1111C41.81 84.3985 41.8421 84.694 41.952 84.9642C42.0618 85.2343 42.2451 85.4683 42.481 85.6397C42.717 85.8111 42.9962 85.913 43.287 85.934C43.5779 85.9549 43.8688 85.8941 44.1269 85.7583L50 82.6706L55.8731 85.7583C56.1312 85.8941 56.4221 85.9549 56.713 85.934C57.0039 85.913 57.2831 85.8111 57.519 85.6397C57.7549 85.4683 57.9382 85.2343 58.0481 84.9642C58.1579 84.694 58.19 84.3985 58.1406 84.1111L57.0191 77.5711L61.7699 72.9394C61.9785 72.7359 62.1261 72.4781 62.196 72.1951C62.2658 71.9121 62.2551 71.6152 62.165 71.338ZM54.2488 75.9072C54.0677 76.0841 53.9321 76.3023 53.8539 76.5431C53.7756 76.7838 53.7569 77.04 53.7994 77.2896L54.525 81.5186L50.7271 79.5219C50.5028 79.4042 50.2533 79.3427 50 79.3427C49.7467 79.3427 49.4972 79.4042 49.273 79.5219L45.475 81.5186L46.2006 77.2896C46.2431 77.04 46.2244 76.7838 46.1462 76.5431C46.0679 76.3023 45.9324 76.0841 45.7513 75.9072L42.6789 72.9119L46.9245 72.2953C47.1754 72.259 47.4137 72.1622 47.6188 72.0132C47.824 71.8642 47.9897 71.6675 48.1019 71.4402L50 67.5938L51.8981 71.4405C52.0103 71.6679 52.1761 71.8645 52.3812 72.0135C52.5863 72.1625 52.8246 72.2593 53.0755 72.2956L57.3211 72.9122L54.2488 75.9072Z" fill="#222226"/>
</svg>
