<svg width="100" height="100" viewBox="0 0 100 100" fill="none" xmlns="http://www.w3.org/2000/svg">
<path d="M76.1309 35.5882C76.0497 35.5913 76.0142 35.5931 76.1201 35.5977C76.1311 35.5981 76.14 35.5984 76.1474 35.5983L76.1309 35.5882V35.5882ZM75.9981 38.7105C75.0565 38.6701 74.325 38.1055 73.7725 37.0945C73.6212 36.8539 73.5336 36.5692 73.5336 36.264V23.0057C73.5336 22.733 73.4139 22.4923 73.227 22.3163C72.9996 22.1021 72.6808 21.9736 72.3413 21.9736C71.9934 21.9736 71.6832 22.1019 71.4638 22.3085C71.2697 22.4914 71.1491 22.7386 71.1491 23.0057H68.024C68.024 22.6158 67.8268 22.1497 67.5115 21.7828C67.2995 21.5361 67.0545 21.3633 66.8317 21.3633C66.4838 21.3633 66.1736 21.4916 65.9543 21.6982C65.7601 21.8811 65.6395 22.1283 65.6395 22.3954V25.5489H62.5144C62.5144 25.2761 62.3947 25.0354 62.2078 24.8593C61.9804 24.6452 61.6615 24.5168 61.322 24.5168C60.9741 24.5168 60.664 24.645 60.4446 24.8517C60.2504 25.0345 60.1298 25.2817 60.1298 25.5489V28.2521H57.0047C57.0047 27.9259 56.8701 27.6281 56.6533 27.4113C56.4365 27.1946 56.1387 27.0599 55.8124 27.0599C55.4862 27.0599 55.1884 27.1946 54.9716 27.4113C54.7549 27.6281 54.6202 27.9259 54.6202 28.2521V36.264V40.047V44.8118C54.6202 46.6538 55.0484 48.1959 55.8083 49.5322C56.5779 50.8857 57.7067 52.0701 59.0906 53.1659C59.4897 53.449 59.7502 53.9147 59.7502 54.4413V61.0848H73.074V53.9881C73.07 53.4648 73.3288 52.9515 73.8043 52.6523L73.8067 52.6562C74.8248 52.0153 75.735 50.8318 76.4648 49.4206C77.3141 47.7782 77.8921 45.868 78.1104 44.1258C78.1193 44.0092 78.1416 43.8918 78.1781 43.7755L78.1807 43.7763C78.8521 41.6412 79.4941 40.2011 80.637 38.7316C81.7239 37.3341 83.238 35.9729 85.6877 33.9536C85.7128 33.9329 85.6983 33.7664 85.6574 33.5459C85.6266 33.3795 85.5576 33.209 85.4503 33.0548C85.358 32.9223 85.2386 32.8106 85.0936 32.7392C84.6632 32.5272 83.9474 32.582 82.8724 33.1713C81.7652 33.7782 81.0082 34.2017 80.4132 34.7148C79.8334 35.2147 79.3079 35.8725 78.6187 36.9716C78.5884 37.0309 78.5541 37.0891 78.5155 37.1456L78.5127 37.1437C77.7533 38.2547 76.9114 38.7497 75.9981 38.7105H75.9981ZM76.6587 34.2959C77.2413 33.473 77.7759 32.8751 78.3746 32.3589C79.2256 31.6251 80.1012 31.1329 81.3709 30.4369C83.4886 29.2761 85.2105 29.3219 86.473 29.9438C87.125 30.265 87.6379 30.7327 88.0138 31.2726C88.3747 31.7908 88.6104 32.3861 88.7214 32.9844C88.9582 34.2606 88.5988 35.5888 87.6653 36.3584C85.4147 38.2135 84.038 39.4457 83.1028 40.6482C82.2469 41.7485 81.7392 42.8837 81.2007 44.5729C80.933 46.639 80.2439 48.8993 79.2358 50.8488C78.4277 52.4116 77.4011 53.7961 76.199 54.7675V62.6473C76.199 63.5102 75.4994 64.2098 74.6365 64.2098H58.1876C57.3247 64.2098 56.6251 63.5102 56.6251 62.6473V55.1814C55.1853 53.9676 53.9828 52.6258 53.0983 51.0703C52.0729 49.267 51.4951 47.2194 51.4951 44.8118V40.0469V36.264V28.2521C51.4951 27.0633 51.9804 25.9835 52.7621 25.2018C53.5438 24.4201 54.6235 23.9348 55.8124 23.9348C56.3147 23.9348 56.7975 24.0214 57.2466 24.1805C57.4693 23.5712 57.8363 23.0257 58.3083 22.5811C59.0874 21.8472 60.1548 21.3917 61.322 21.3917C61.7593 21.3917 62.1893 21.4579 62.5979 21.5819C62.7716 20.7483 63.2067 20.0034 63.818 19.4277C64.5971 18.6938 65.6644 18.2382 66.8316 18.2382C68.0033 18.2382 69.0324 18.8177 69.7923 19.6576C70.5083 19.15 71.3917 18.8486 72.3412 18.8486C73.4801 18.8486 74.5685 19.2972 75.3631 20.0457C76.1529 20.7896 76.6586 21.8212 76.6586 23.0057V34.2959L76.6587 34.2959Z" fill="black"/>
<path d="M60.13 28.2938C60.13 27.4309 59.4304 26.7313 58.5675 26.7313C57.7045 26.7313 57.0049 27.4309 57.0049 28.2938V40.2975C57.0049 41.1604 57.7046 41.86 58.5675 41.86C59.4304 41.86 60.13 41.1604 60.13 40.2975V28.2938Z" fill="black"/>
<path d="M65.6394 25.4963C65.6394 24.6333 64.9398 23.9337 64.0769 23.9337C63.2139 23.9337 62.5143 24.6333 62.5143 25.4963V37.6525C62.5143 38.5154 63.214 39.215 64.0769 39.215C64.9398 39.215 65.6394 38.5154 65.6394 37.6525V25.4963V25.4963Z" fill="black"/>
<path d="M71.149 22.1902C71.149 21.3273 70.4494 20.6277 69.5865 20.6277C68.7235 20.6277 68.0239 21.3273 68.0239 22.1902V36.8388C68.0239 37.7017 68.7235 38.4014 69.5865 38.4014C70.4494 38.4014 71.149 37.7017 71.149 36.8388V22.1902Z" fill="black"/>
<path d="M56.1356 68.4091H76.6206V64.2099H56.1356V68.4091V68.4091ZM78.1832 71.5341H54.5731C53.7102 71.5341 53.0106 70.8345 53.0106 69.9716V62.6474C53.0106 61.7844 53.7102 61.0848 54.5731 61.0848H78.1832C79.0461 61.0848 79.7457 61.7844 79.7457 62.6474V69.9716C79.7457 70.8345 79.0461 71.5341 78.1832 71.5341Z" fill="black"/>
<path d="M49.8572 86.7096C49.8572 87.5726 50.5568 88.2722 51.4197 88.2722C52.2826 88.2722 52.9822 87.5726 52.9822 86.7096V74.6947C52.9822 73.8271 53.3383 73.0373 53.9119 72.4637C54.4855 71.8901 55.2753 71.534 56.1429 71.534H76.6135C77.4811 71.534 78.2709 71.8901 78.8445 72.4637C79.4181 73.0373 79.7741 73.8271 79.7741 74.6947V86.7096C79.7741 87.5726 80.4737 88.2722 81.3367 88.2722C82.1996 88.2722 82.8992 87.5726 82.8992 86.7096V74.6947C82.8992 72.9646 82.1924 71.3927 81.0539 70.2542C79.9155 69.1157 78.3436 68.4089 76.6135 68.4089H56.1429C54.4127 68.4089 52.8409 69.1157 51.7024 70.2542C50.5639 71.3927 49.8571 72.9646 49.8571 74.6947V86.7096H49.8572Z" fill="black"/>
<path d="M37.4753 29.0778C37.394 29.0809 37.3585 29.0827 37.4644 29.0873C37.4754 29.0878 37.4844 29.088 37.4917 29.0879L37.4753 29.0778V29.0778ZM37.3424 32.2002C36.4009 32.1597 35.6694 31.5951 35.1169 30.5842C34.9656 30.3436 34.878 30.0588 34.878 29.7536V16.4954C34.878 16.2226 34.7582 15.9819 34.5713 15.8059C34.3439 15.5917 34.0251 15.4633 33.6857 15.4633C33.3377 15.4633 33.0275 15.5915 32.8082 15.7981C32.614 15.981 32.4934 16.2282 32.4934 16.4954H29.3684C29.3684 16.1054 29.1712 15.6393 28.8559 15.2724C28.6438 15.0258 28.3989 14.8529 28.1761 14.8529C27.8282 14.8529 27.518 14.9813 27.2987 15.1878C27.1044 15.3708 26.9838 15.6179 26.9838 15.885V19.0385H23.8587C23.8587 18.7657 23.739 18.525 23.5522 18.349C23.3248 18.1349 23.006 18.0064 22.6664 18.0064C22.3185 18.0064 22.0083 18.1347 21.7889 18.3413C21.5948 18.5242 21.4742 18.7713 21.4742 19.0385V21.7417H18.3491C18.3491 21.4155 18.2144 21.1177 17.9977 20.9009C17.7809 20.6842 17.4831 20.5495 17.1568 20.5495C16.8305 20.5495 16.5327 20.6842 16.3159 20.9009C16.0992 21.1177 15.9645 21.4155 15.9645 21.7417V29.7536V33.5366V38.3014C15.9645 40.1434 16.3928 41.6855 17.1527 43.0219C17.9222 44.3752 19.051 45.5596 20.4349 46.6555C20.8341 46.9386 21.0946 47.4043 21.0946 47.9309V54.5744H34.4183V47.4777C34.4143 46.9544 34.6732 46.4411 35.1487 46.1419L35.1511 46.1458C36.1692 45.5049 37.0794 44.3214 37.8092 42.9102C38.6583 41.2682 39.2362 39.3584 39.4546 37.6164C39.4635 37.4995 39.4858 37.3818 39.5224 37.2651L39.525 37.2659C40.1964 35.1308 40.8384 33.6907 41.9814 32.2213C43.0682 30.8238 44.5823 29.4625 47.0321 27.4432C47.0572 27.4225 47.0427 27.2561 47.0018 27.0355C46.9709 26.8691 46.902 26.6986 46.7946 26.5445C46.7024 26.4119 46.5829 26.3002 46.438 26.2288C46.0075 26.0168 45.2918 26.0716 44.2168 26.6609C43.1095 27.2678 42.3526 27.6913 41.7575 28.2045C41.1778 28.7044 40.6522 29.3622 39.963 30.4612C39.9328 30.5205 39.8984 30.5787 39.8599 30.6352L39.8571 30.6333C39.0977 31.7443 38.2558 32.2394 37.3424 32.2002H37.3424ZM38.003 27.7854C38.5856 26.9626 39.1203 26.3648 39.7189 25.8485C40.5699 25.1147 41.4456 24.6225 42.7153 23.9265C44.8329 22.7657 46.5549 22.8115 47.8174 23.4334C48.4694 23.7546 48.9822 24.2223 49.3581 24.7622C49.719 25.2804 49.9547 25.8757 50.0658 26.4741C50.3025 27.7502 49.9431 29.0785 49.0096 29.848C46.7591 31.7031 45.3823 32.9354 44.4471 34.1378C43.5913 35.2382 43.0835 36.3733 42.545 38.0625C42.2774 40.1287 41.5883 42.389 40.5802 44.3385C39.772 45.9012 38.7454 47.2857 37.5434 48.2571V56.1369C37.5434 56.9999 36.8438 57.6995 35.9809 57.6995H19.532C18.669 57.6995 17.9694 56.9999 17.9694 56.1369V48.671C16.5296 47.4571 15.3272 46.1154 14.4427 44.5599C13.4172 42.7567 12.8394 40.7091 12.8394 38.3014V33.5366V29.7536V21.7417C12.8394 20.5529 13.3247 19.4732 14.1064 18.6914C14.8882 17.9097 15.9679 17.4244 17.1567 17.4244C17.659 17.4244 18.1419 17.511 18.591 17.6701C18.8137 17.0608 19.1806 16.5153 19.6526 16.0708C20.4318 15.3368 21.4991 14.8813 22.6663 14.8813C23.1037 14.8813 23.5336 14.9476 23.9423 15.0715C24.1159 14.238 24.551 13.493 25.1623 12.9173C25.9414 12.1834 27.0088 11.7278 28.176 11.7278C29.3477 11.7278 30.3767 12.3073 31.1367 13.1472C31.8527 12.6396 32.7361 12.3382 33.6856 12.3382C34.8244 12.3382 35.9128 12.7869 36.7075 13.5354C37.4973 14.2792 38.003 15.3108 38.003 16.4953V27.7854L38.003 27.7854Z" fill="black"/>
<path d="M21.4744 21.7833C21.4744 20.9204 20.7748 20.2208 19.9118 20.2208C19.0489 20.2208 18.3493 20.9204 18.3493 21.7833V33.787C18.3493 34.6499 19.0489 35.3495 19.9118 35.3495C20.7748 35.3495 21.4744 34.6499 21.4744 33.787V21.7833V21.7833Z" fill="black"/>
<path d="M26.9838 18.9859C26.9838 18.1229 26.2842 17.4233 25.4212 17.4233C24.5583 17.4233 23.8587 18.1229 23.8587 18.9859V31.1421C23.8587 32.0051 24.5583 32.7047 25.4212 32.7047C26.2842 32.7047 26.9838 32.0051 26.9838 31.1421V18.9859Z" fill="black"/>
<path d="M32.4934 15.6797C32.4934 14.8168 31.7937 14.1172 30.9308 14.1172C30.0679 14.1172 29.3683 14.8168 29.3683 15.6797V30.3283C29.3683 31.1913 30.0679 31.8909 30.9308 31.8909C31.7937 31.8909 32.4934 31.1912 32.4934 30.3283V15.6797V15.6797Z" fill="black"/>
<path d="M17.48 61.8985H37.965V57.6994H17.48V61.8985V61.8985ZM39.5275 65.0236H15.9175C15.0545 65.0236 14.3549 64.324 14.3549 63.4611V56.1369C14.3549 55.2739 15.0545 54.5743 15.9175 54.5743H39.5275C40.3905 54.5743 41.0901 55.2739 41.0901 56.1369V63.4611C41.0901 64.324 40.3905 65.0236 39.5275 65.0236Z" fill="black"/>
<path d="M11.2015 86.6334C11.2015 87.4964 11.9011 88.196 12.7641 88.196C13.627 88.196 14.3266 87.4964 14.3266 86.6334V68.1843C14.3266 67.3168 14.6827 66.5268 15.2562 65.9533C15.8298 65.3797 16.6196 65.0237 17.4873 65.0237H37.9579C38.8254 65.0237 39.6152 65.3797 40.1888 65.9533C40.7624 66.5269 41.1185 67.3168 41.1185 68.1843V86.6334C41.1185 87.4964 41.8181 88.196 42.681 88.196C43.5439 88.196 44.2435 87.4964 44.2435 86.6334V68.1843C44.2435 66.4542 43.5368 64.8823 42.3983 63.7438C41.2598 62.6053 39.688 61.8986 37.9579 61.8986H17.4872C15.757 61.8986 14.1852 62.6053 13.0467 63.7438C11.9082 64.8823 11.2015 66.4542 11.2015 68.1843V86.6334H11.2015Z" fill="black"/>
</svg>
