<svg version="1.0" id="Layer_1" xmlns="http://www.w3.org/2000/svg" xmlns:xlink="http://www.w3.org/1999/xlink" x="0px" y="0px"
	 width="100px" height="100px" viewBox="0 0 100 100" enable-background="new 0 0 100 100" xml:space="preserve">
<path d="M72.435,77.754l-5.045-12.61c3.482-2.25,6.165-5.163,7.728-8.477H80c1.829,0,3.333-1.501,3.333-3.334V40.001
	c0-1.833-1.504-3.333-3.333-3.333h-3.333v-0.002C76.667,21.94,64.729,10,50,10c-14.727,0-26.667,11.94-26.667,26.667v0.002H20
	c-1.833,0-3.333,1.5-3.333,3.333v13.332c0,1.833,1.501,3.334,3.333,3.334h4.883c1.564,3.313,4.248,6.224,7.728,8.477l-5.046,12.61
	h0.002L10,90h11.655l13.073-9.114c4.688,1.575,9.833,2.447,15.272,2.447s10.586-0.875,15.271-2.447L78.343,90H90L72.435,77.754z
	 M50,76.667c-4.876,0-9.586-0.801-13.883-2.341l2.503-6.26C42.075,69.294,45.924,70,50,70c4.075,0,7.923-0.706,11.38-1.931
	l2.504,6.257C59.587,75.866,54.876,76.667,50,76.667z M50,63.333c-10.841,0-20-6.106-20-13.333V36.667c0-11.028,8.971-20,20-20
	c11.028,0,20,8.972,20,20V50C70,57.227,60.84,63.333,50,63.333z"/>
<path d="M35,36.667V50c0,2.683,6.299,6.667,15,6.667S65,52.683,65,50V36.66C55.003,32.057,44.269,32.397,35,36.667z"/>
</svg>
