<svg version="1.0" id="Layer_1" xmlns="http://www.w3.org/2000/svg" xmlns:xlink="http://www.w3.org/1999/xlink" x="0px" y="0px"
	 width="100px" height="100px" viewBox="0 0 100 100" enable-background="new 0 0 100 100" xml:space="preserve">
<path d="M86.094,63.287L65.573,42.76c-2.416-2.408-3.906-5.742-3.906-9.427v-2.585c0-1.836-0.573-4.72-1.276-6.412l-4.231-10.222
	c-0.339-0.813-0.834-1.543-1.445-2.161C53.503,10.748,51.836,10,50,10c-1.843,0-3.509,0.748-4.714,1.953
	c-0.618,0.618-1.106,1.348-1.445,2.161l-4.231,10.222c-0.703,1.692-1.276,4.576-1.276,6.412v2.585c0,3.685-1.49,7.019-3.906,9.427
	L13.906,63.287C11.491,65.703,10,69.036,10,72.715v3.951L38.333,80v5h4.584l-1.25,5h16.666l-1.25-5h4.584v-5L90,76.666v-3.951
	C90,69.036,88.509,65.703,86.094,63.287z M38.333,73.287l-21.38-2.513c0.313-1.035,0.879-1.985,1.667-2.773l19.713-19.72V73.287z
	 M50,16.666l4.231,10.222c0.02,0.042,0.036,0.117,0.056,0.163c-1.403-0.241-2.835-0.385-4.287-0.385
	c-1.455,0-2.884,0.144-4.284,0.385c0.017-0.046,0.033-0.121,0.053-0.163L50,16.666z M45,78.333V34.124c3.274-0.908,6.726-0.908,10,0
	v44.209H45z M61.667,73.287V48.281l19.713,19.72c0.788,0.788,1.354,1.738,1.667,2.773L61.667,73.287z"/>
</svg>
