<svg width="100" height="100" viewBox="0 0 100 100" fill="none" xmlns="http://www.w3.org/2000/svg">
<path d="M96.875 37.5H88.0708L59.1605 11.3542C59.4584 9.9858 59.4459 8.56804 59.124 7.20509C58.802 5.84213 58.1788 4.56862 57.3002 3.4781C56.4215 2.38759 55.3097 1.50778 54.0464 0.903323C52.7831 0.298863 51.4005 -0.0148926 50 -0.0148926C48.5995 -0.0148926 47.2169 0.298863 45.9536 0.903323C44.6903 1.50778 43.5785 2.38759 42.6998 3.4781C41.8212 4.56862 41.198 5.84213 40.876 7.20509C40.5541 8.56804 40.5416 9.9858 40.8395 11.3542L11.9292 37.5H3.125C2.7106 37.5 2.31317 37.6646 2.02015 37.9576C1.72712 38.2507 1.5625 38.6481 1.5625 39.0625V98.4375C1.5625 98.8519 1.72712 99.2493 2.02015 99.5423C2.31317 99.8354 2.7106 100 3.125 100H96.875C97.2894 100 97.6868 99.8354 97.9799 99.5423C98.2729 99.2493 98.4375 98.8519 98.4375 98.4375V39.0625C98.4375 38.6481 98.2729 38.2507 97.9799 37.9576C97.6868 37.6646 97.2894 37.5 96.875 37.5ZM57.898 14.4256L83.4114 37.5H78.7583L55.8083 16.7358C56.6168 16.0749 57.3213 15.2962 57.898 14.4256ZM50 18.75C50.9758 18.7496 51.9455 18.5961 52.8737 18.2951L74.1002 37.5H25.8998L47.1263 18.2951C48.0545 18.5961 49.0242 18.7496 50 18.75ZM50 3.12499C51.6576 3.12499 53.2473 3.78347 54.4194 4.95557C55.5915 6.12767 56.25 7.71739 56.25 9.37499C56.25 11.0326 55.5915 12.6223 54.4194 13.7944C53.2473 14.9665 51.6576 15.625 50 15.625C48.3493 15.6029 46.7723 14.9374 45.605 13.77C44.4376 12.6027 43.772 11.0257 43.75 9.37499C43.7519 7.71796 44.4109 6.12933 45.5826 4.95763C46.7543 3.78593 48.343 3.12685 50 3.12499V3.12499ZM42.102 14.4256C42.6795 15.2956 43.3838 16.0742 44.1917 16.7358L21.2417 37.5H16.5886L42.102 14.4256ZM95.3125 96.875H4.6875V40.625H95.3125V96.875Z" fill="#222226"/>
<path d="M82.8125 45.3125C82.8125 44.8981 82.6479 44.5007 82.3549 44.2076C82.0618 43.9146 81.6644 43.75 81.25 43.75H18.75C18.3356 43.75 17.9382 43.9146 17.6451 44.2076C17.3521 44.5007 17.1875 44.8981 17.1875 45.3125C17.1851 47.3838 16.3612 49.3695 14.8966 50.8341C13.432 52.2987 11.4463 53.1226 9.375 53.125C8.9606 53.125 8.56317 53.2896 8.27015 53.5826C7.97712 53.8757 7.8125 54.2731 7.8125 54.6875V82.8125C7.8125 83.2269 7.97712 83.6243 8.27015 83.9174C8.56317 84.2104 8.9606 84.375 9.375 84.375C11.4463 84.3774 13.432 85.2013 14.8966 86.6659C16.3612 88.1305 17.1851 90.1162 17.1875 92.1875C17.1875 92.6019 17.3521 92.9993 17.6451 93.2924C17.9382 93.5854 18.3356 93.75 18.75 93.75H81.25C81.6644 93.75 82.0618 93.5854 82.3549 93.2924C82.6479 92.9993 82.8125 92.6019 82.8125 92.1875C82.8149 90.1162 83.6388 88.1305 85.1034 86.6659C86.568 85.2013 88.5537 84.3774 90.625 84.375C91.0394 84.375 91.4368 84.2104 91.7299 83.9174C92.0229 83.6243 92.1875 83.2269 92.1875 82.8125V54.6875C92.1875 54.2731 92.0229 53.8757 91.7299 53.5826C91.4368 53.2896 91.0394 53.125 90.625 53.125C88.5537 53.1226 86.568 52.2987 85.1034 50.8341C83.6388 49.3695 82.8149 47.3838 82.8125 45.3125V45.3125ZM89.0625 81.3614C86.727 81.7026 84.5639 82.7884 82.8949 84.4574C81.2259 86.1264 80.1401 88.2895 79.7989 90.625H20.2011C19.8599 88.2895 18.7741 86.1264 17.1051 84.4574C15.4361 82.7884 13.273 81.7026 10.9375 81.3614V56.1386C13.273 55.7974 15.4361 54.7116 17.1051 53.0426C18.7741 51.3736 19.8599 49.2105 20.2011 46.875H79.7989C80.1401 49.2105 81.2259 51.3736 82.8949 53.0426C84.5639 54.7116 86.727 55.7974 89.0625 56.1386V81.3614Z" fill="#222226"/>
<path d="M50 14.0625C50.9271 14.0625 51.8334 13.7876 52.6042 13.2725C53.3751 12.7574 53.9759 12.0254 54.3307 11.1688C54.6855 10.3123 54.7783 9.3698 54.5974 8.46052C54.4166 7.55123 53.9701 6.716 53.3146 6.06044C52.659 5.40488 51.8238 4.95844 50.9145 4.77757C50.0052 4.5967 49.0627 4.68953 48.2062 5.04432C47.3496 5.3991 46.6176 5.99991 46.1025 6.77077C45.5874 7.54162 45.3125 8.4479 45.3125 9.375C45.3139 10.6178 45.8082 11.8093 46.6869 12.6881C47.5657 13.5668 48.7572 14.0611 50 14.0625V14.0625ZM50 7.8125C50.309 7.8125 50.6111 7.90414 50.8681 8.07583C51.125 8.24752 51.3253 8.49155 51.4436 8.77706C51.5618 9.06257 51.5928 9.37674 51.5325 9.67983C51.4722 9.98293 51.3234 10.2613 51.1049 10.4799C50.8863 10.6984 50.6079 10.8472 50.3048 10.9075C50.0017 10.9678 49.6876 10.9368 49.4021 10.8186C49.1165 10.7003 48.8725 10.5 48.7008 10.2431C48.5291 9.98613 48.4375 9.68404 48.4375 9.375C48.438 8.96077 48.6028 8.56365 48.8957 8.27074C49.1886 7.97783 49.5858 7.81304 50 7.8125V7.8125Z" fill="#222226"/>
<path d="M44.2139 62.0797L43.383 66.9235C43.3337 67.2109 43.3657 67.5064 43.4756 67.7765C43.5854 68.0466 43.7687 68.2806 44.0046 68.452C44.2406 68.6234 44.5198 68.7253 44.8106 68.7463C45.1015 68.7673 45.3924 68.7064 45.6505 68.5706L50 66.2842L54.3496 68.5708C54.6076 68.7066 54.8986 68.7674 55.1894 68.7465C55.4803 68.7255 55.7595 68.6236 55.9954 68.4522C56.2314 68.2808 56.4146 68.0468 56.5245 67.7766C56.6343 67.5065 56.6664 67.211 56.6171 66.9236L55.7861 62.0799L59.3049 58.6503C59.5138 58.4468 59.6616 58.1889 59.7315 57.9058C59.8015 57.6227 59.7908 57.3256 59.7007 57.0483C59.6106 56.7709 59.4447 56.5243 59.2217 56.3363C58.9987 56.1484 58.7276 56.0266 58.4389 55.9847L53.576 55.2781L51.4016 50.8719C51.2577 50.6282 51.0527 50.4263 50.8069 50.286C50.5611 50.1457 50.283 50.072 50 50.072C49.717 50.072 49.4389 50.1457 49.1931 50.286C48.9474 50.4263 48.7424 50.6282 48.5985 50.8719L46.4241 55.2781L41.5611 55.9847C41.2725 56.0266 41.0014 56.1484 40.7784 56.3363C40.5554 56.5243 40.3895 56.7709 40.2993 57.0483C40.2092 57.3256 40.1986 57.6227 40.2685 57.9058C40.3385 58.1889 40.4863 58.4468 40.6952 58.6503L44.2139 62.0797ZM47.686 58.2527C47.9369 58.2163 48.1752 58.1195 48.3803 57.9705C48.5854 57.8215 48.7512 57.6249 48.8633 57.3975L50 55.0938L51.1368 57.3978C51.2489 57.6252 51.4147 57.8218 51.6198 57.9708C51.8249 58.1198 52.0632 58.2166 52.3141 58.253L54.8561 58.6224L53.0167 60.4152C52.8353 60.5921 52.6996 60.8104 52.6212 61.0513C52.5428 61.2923 52.5241 61.5487 52.5666 61.7984L53.0014 64.3314L50.7271 63.1358C50.5028 63.0181 50.2533 62.9566 50 62.9566C49.7468 62.9566 49.4973 63.0181 49.273 63.1358L46.9986 64.3314L47.4335 61.7984C47.476 61.5487 47.4573 61.2923 47.3789 61.0513C47.3004 60.8104 47.1647 60.5921 46.9833 60.4152L45.1439 58.6224L47.686 58.2527Z" fill="#222226"/>
<path d="M35.9375 75H64.0625C64.4769 75 64.8743 74.8354 65.1674 74.5424C65.4604 74.2493 65.625 73.8519 65.625 73.4375C65.625 73.0231 65.4604 72.6257 65.1674 72.3326C64.8743 72.0396 64.4769 71.875 64.0625 71.875H35.9375C35.5231 71.875 35.1257 72.0396 34.8326 72.3326C34.5396 72.6257 34.375 73.0231 34.375 73.4375C34.375 73.8519 34.5396 74.2493 34.8326 74.5424C35.1257 74.8354 35.5231 75 35.9375 75Z" fill="#222226"/>
<path d="M71.875 78.125H28.125C27.7106 78.125 27.3132 78.2896 27.0201 78.5826C26.7271 78.8757 26.5625 79.2731 26.5625 79.6875C26.5625 80.1019 26.7271 80.4993 27.0201 80.7924C27.3132 81.0854 27.7106 81.25 28.125 81.25H71.875C72.2894 81.25 72.6868 81.0854 72.9799 80.7924C73.2729 80.4993 73.4375 80.1019 73.4375 79.6875C73.4375 79.2731 73.2729 78.8757 72.9799 78.5826C72.6868 78.2896 72.2894 78.125 71.875 78.125Z" fill="#222226"/>
<path d="M60.9375 84.375H39.0625C38.6481 84.375 38.2507 84.5396 37.9576 84.8326C37.6646 85.1257 37.5 85.5231 37.5 85.9375C37.5 86.3519 37.6646 86.7493 37.9576 87.0424C38.2507 87.3354 38.6481 87.5 39.0625 87.5H60.9375C61.3519 87.5 61.7493 87.3354 62.0424 87.0424C62.3354 86.7493 62.5 86.3519 62.5 85.9375C62.5 85.5231 62.3354 85.1257 62.0424 84.8326C61.7493 84.5396 61.3519 84.375 60.9375 84.375Z" fill="#222226"/>
</svg>
