<svg version="1.0" id="Layer_1" xmlns="http://www.w3.org/2000/svg" xmlns:xlink="http://www.w3.org/1999/xlink" x="0px" y="0px"
	 width="100px" height="100px" viewBox="0 0 100 100" enable-background="new 0 0 100 100" xml:space="preserve">
<path d="M90,20.002c0,1.843-1.497,3.333-3.333,3.333c-1.842,0-3.333-1.491-3.333-3.333c0-1.839,1.491-3.333,3.333-3.333
	C88.503,16.669,90,18.164,90,20.002z"/>
<path d="M80.001,86.666c0,1.842-1.497,3.333-3.333,3.333c-1.843,0-3.334-1.491-3.334-3.333c0-1.843,1.491-3.333,3.334-3.333
	C78.504,83.333,80.001,84.823,80.001,86.666z"/>
<circle cx="13.335" cy="13.336" r="3.333"/>
<circle cx="20.001" cy="80" r="3.333"/>
<path d="M84.226,30.939c-4.511-2.103-9.765-0.527-12.473,3.463L46.45,25.367c0.882-5.713-1.982-11.549-7.481-14.114
	c-6.673-3.112-14.607-0.225-17.717,6.448c-2.917,6.253-0.518,13.564,5.281,17.024l-5.586,15.361
	c-4.095-0.388-8.172,1.75-10.007,5.689c-2.334,5.003-0.169,10.953,4.835,13.287c4.019,1.872,8.611,0.811,11.489-2.253l19.744,10.769
	c-1.055,4.222,0.703,8.798,4.662,11.08c4.778,2.76,10.897,1.123,13.658-3.659c2.317-4.017,1.504-8.951-1.641-12.069l13.609-23.332
	c4.635,1.307,9.664-0.863,11.767-5.368C91.394,39.224,89.229,33.273,84.226,30.939z M33.334,16.669c3.677,0,6.667,2.991,6.667,6.667
	c0,3.678-2.99,6.666-6.667,6.666c-3.676,0-6.667-2.988-6.667-6.666C26.667,19.661,29.658,16.669,33.334,16.669z M20.001,63.334
	c-1.837,0-3.333-1.494-3.333-3.334c0-1.839,1.496-3.333,3.333-3.333s3.333,1.494,3.333,3.333
	C23.334,61.84,21.839,63.334,20.001,63.334z M56.669,83.333c-1.843,0-3.334-1.494-3.334-3.333c0-1.84,1.491-3.334,3.334-3.334
	c1.835,0,3.333,1.494,3.333,3.334C60.002,81.839,58.504,83.333,56.669,83.333z M59.37,70.407c-3.58-1.006-7.441,0.052-9.987,2.772
	L29.688,62.436c1.019-4.03-0.597-8.288-4.04-10.651l5.579-15.34c5.324,0.853,10.719-1.595,13.533-6.37l25.315,9.04
	c-0.264,2.956,0.801,5.872,2.906,7.962L59.37,70.407z M80.001,43.335c-1.843,0-3.333-1.494-3.333-3.333
	c0-1.836,1.49-3.333,3.333-3.333c1.836,0,3.333,1.498,3.333,3.333C83.334,41.841,81.837,43.335,80.001,43.335z"/>
<polygon points="70.151,16.669 73.334,10.003 66.668,13.187 60.002,10.003 63.186,16.669 60.002,23.336 66.668,20.152 
	73.334,23.336 "/>
<polygon points="17.614,38.335 20.001,33.335 15.001,35.725 10.002,33.335 12.389,38.335 10.002,43.335 15.001,40.946 
	20.001,43.335 "/>
<polygon points="37.611,84.999 40,80 35,82.389 30.001,80 32.39,84.999 30.001,89.999 35,87.609 40,89.999 "/>
<polygon points="87.611,68.333 90,63.334 85.001,65.723 80.001,63.334 82.39,68.333 80.001,73.333 85.001,70.944 90,73.333 "/>
</svg>
