<svg width="100" height="100" viewBox="0 0 100 100" fill="none" xmlns="http://www.w3.org/2000/svg">
<path d="M51.0041 77.9746C50.3839 78.5712 50.3648 79.5578 50.9614 80.178C51.558 80.7982 52.5446 80.8173 53.1648 80.2207L66.1612 67.6827L65.0809 66.5597L66.1657 67.6842C66.7868 67.085 66.8045 66.0959 66.2054 65.4748C66.1666 65.4346 66.1261 65.397 66.0842 65.3618L62.9174 62.2752C62.3005 61.6752 61.314 61.6889 60.714 62.3057C60.1141 62.9226 60.1277 63.9092 60.7446 64.5091L62.8425 66.5538L51.0041 77.9746L51.0041 77.9746Z" fill="black"/>
<path d="M56.2237 59.7442C56.8405 60.3441 57.8271 60.3304 58.4271 59.7136C59.027 59.0967 59.0133 58.1102 58.3965 57.5102L47.1686 46.5764L47.1716 46.5733C46.5534 45.9713 45.5641 45.9844 44.9621 46.6027L44.961 46.6038L17.8315 73.7333L17.8313 73.7332C17.2212 74.3434 17.2212 75.3328 17.8313 75.9429C17.8575 75.9691 17.8844 75.9941 17.9119 76.018L22.2995 80.4492C22.9063 81.0593 23.8928 81.0621 24.5029 80.4554C25.113 79.8486 25.1158 78.8621 24.509 78.252L21.1372 74.8466L46.099 49.8848L56.2236 59.7442L56.2237 59.7442Z" fill="black"/>
<path d="M66.5424 56.4075C65.9222 57.0041 65.9031 57.9907 66.4997 58.6109C67.0963 59.2311 68.0829 59.2502 68.703 58.6536C71.3105 56.135 71.2468 54.5045 71.1709 52.5629C71.0963 50.6561 71.0047 48.3157 76.5169 42.8035L76.517 42.8036C77.1272 42.1934 77.1272 41.204 76.517 40.5939L76.5082 40.5852L66.3064 30.3835L66.3065 30.3834C65.6964 29.7732 64.707 29.7732 64.0968 30.3834L64.0882 30.3923L57.9719 36.5086C55.8889 36.8852 53.2822 36.7987 50.9428 36.7209C47.7274 36.6139 44.9484 36.5215 43.602 37.7273C42.4683 38.7428 41.6513 40.7376 41.0965 42.9568C40.3808 45.8196 40.0402 49.1765 40.0402 51.0344C40.0402 51.8974 40.7398 52.597 41.6027 52.597C42.4656 52.597 43.1652 51.8973 43.1652 51.0344C43.1652 49.3531 43.4743 46.3117 44.1238 43.7137C44.5467 42.022 45.0749 40.5861 45.6773 40.0466C46.0915 39.6756 48.2954 39.7489 50.845 39.8337C53.4845 39.9215 56.441 40.0198 58.9456 39.4897C59.2782 39.4481 59.6 39.2997 59.8553 39.0443L59.8552 39.0442L65.2017 33.6977L73.2196 41.7157C67.8532 47.4304 67.9651 50.3116 68.058 52.6849C68.1043 53.8679 68.1431 54.8614 66.5423 56.4075H66.5424Z" fill="black"/>
<path d="M68.8715 58.4986C69.4816 57.8918 69.4843 56.9053 68.8776 56.2952C68.2708 55.6851 67.2843 55.6823 66.6742 56.2891L53.8563 68.9994C53.5702 69.2831 53.1883 69.4255 52.8032 69.4255C52.4255 69.4255 52.0492 69.2838 51.7649 68.9994C51.4801 68.7147 51.338 68.3377 51.338 67.9593C51.338 67.5751 51.4805 67.1938 51.7649 66.908L61.2675 57.3584C61.8743 56.7483 61.8715 55.7618 61.2614 55.1551C60.6513 54.5483 59.6648 54.5511 59.0581 55.1612L49.5554 64.7107C48.661 65.6095 48.2129 66.7865 48.2129 67.9593C48.2129 69.1361 48.6599 70.3134 49.5554 71.209C50.4508 72.1044 51.627 72.5506 52.8032 72.5506C53.9753 72.5506 55.1526 72.1023 56.0536 71.209L68.8715 58.4986L68.8715 58.4986Z" fill="black"/>
<path d="M13.9248 77.7826C13.0619 77.7826 12.3623 78.4822 12.3623 79.3451C12.3623 80.2081 13.0619 80.9077 13.9248 80.9077H70.8184C71.6813 80.9077 72.3809 80.2081 72.3809 79.3451C72.3809 78.4822 71.6813 77.7826 70.8184 77.7826H13.9248V77.7826Z" fill="black"/>
<path d="M79.3873 40.8068L65.9092 27.3287L65.9091 27.3289C65.2989 26.7187 65.2989 25.7293 65.9091 25.1191L65.918 25.1105L71.4837 19.5448L71.4836 19.5447C72.0937 18.9345 73.0832 18.9345 73.6933 19.5447L73.702 19.5535L87.18 33.0316L87.1801 33.0315C87.7903 33.6416 87.7903 34.6311 87.1801 35.2412L87.1713 35.2499L81.6055 40.8156L81.6056 40.8157C80.9955 41.4259 80.0061 41.4259 79.3959 40.8157L79.3873 40.8068V40.8068ZM69.2235 26.224L80.5008 37.5013L83.8658 34.1363L72.5885 22.859L69.2235 26.224Z" fill="black"/>
</svg>
