<svg version="1.0" id="Layer_1" xmlns="http://www.w3.org/2000/svg" xmlns:xlink="http://www.w3.org/1999/xlink" x="0px" y="0px"
	 width="100px" height="100px" viewBox="0 0 100 100" enable-background="new 0 0 100 100" xml:space="preserve">
<path d="M82.5,24.999c4.147,0,7.5-3.363,7.5-7.5c0-4.144-3.353-7.5-7.5-7.5c-4.147-0.003-7.5,3.353-7.5,7.5
	c0,0.833,0.169,1.621,0.42,2.37l-3.903,3.906C65.71,19.347,58.206,16.668,50,16.668c-8.205,0-15.707,2.679-21.514,7.103
	l-3.903-3.903C24.833,19.12,25,18.335,25,17.501c0-4.144-3.363-7.5-7.501-7.5c-4.144,0-7.499,3.356-7.499,7.5
	c-0.003,4.147,3.353,7.503,7.499,7.5c0.833,0,1.623-0.166,2.371-0.42l3.771,3.77c-4.355,5.072-6.975,11.413-6.975,18.317
	c0,23.935,14.922,43.333,33.333,43.333c18.411,0,33.333-19.398,33.333-43.333c0-6.904-2.617-13.246-6.973-18.314l3.773-3.773
	C80.882,24.833,81.667,24.999,82.5,24.999z M76.667,46.668c0,20.218-11.963,36.666-26.667,36.666
	c-14.704,0-26.667-16.447-26.667-36.666C23.333,33.8,35.296,23.335,50,23.335C64.704,23.335,76.667,33.8,76.667,46.668z"/>
<path d="M42.467,47.534c3.998,3.993,5.384,9.085,3.099,11.366c-2.28,2.285-7.373,0.896-11.367-3.098
	c-3.996-3.994-5.382-9.085-3.099-11.371C33.38,42.15,38.473,43.54,42.467,47.534z"/>
<path d="M57.532,47.534c3.994-3.998,9.086-5.384,11.367-3.099c2.285,2.279,0.896,7.374-3.099,11.368
	c-3.994,3.996-9.085,5.383-11.37,3.098C52.148,56.623,53.538,51.527,57.532,47.534z"/>
<path d="M56.465,67.318c-1.729,1.732-4.023,2.684-6.465,2.684h-0.003c-2.442,0-4.737-0.951-6.458-2.676L40,70.854
	c5.521,5.527,14.476,5.527,20,0L56.465,67.318z"/>
</svg>
