<svg version="1.0" id="Layer_1" xmlns="http://www.w3.org/2000/svg" xmlns:xlink="http://www.w3.org/1999/xlink" x="0px" y="0px"
	 width="100px" height="100px" viewBox="0 0 100 100" enable-background="new 0 0 100 100" xml:space="preserve">
<path d="M68.792,59.499c-1.299-1.296-3.421-1.296-4.717,0l-2.356,2.356l-2.832-2.829l5.186-4.241l-7.07-7.07l4.873-4.876
	c8.984,7.012,21.003,7.279,28.125,0.156L75.856,28.854l8.252-10.605l-2.36-2.356l-10.603,8.249v0.003L56.999,10
	c-7.119,7.119-6.846,19.144,0.162,28.125l-4.876,4.873l-7.07-7.067l-4.242,5.182l-2.825-2.826l2.356-2.356
	c1.296-1.296,1.296-3.418,0-4.714L26.364,17.074c-1.295-1.296-3.418-1.296-4.713,0l-9.43,9.43c-1.296,1.295-1.296,3.418,0,4.713
	l14.144,14.141c1.296,1.296,3.418,1.296,4.714,0l2.356-2.356l3.298,3.297L17.617,69.655c-2.012,2.457-2.106,6.109-0.417,8.73
	L10,87.644L12.357,90l9.258-7.2c2.619,1.689,6.271,1.595,8.727-0.417l23.362-19.114l3.301,3.304l-2.356,2.356
	c-1.296,1.296-1.296,3.418,0,4.714l14.144,14.141c1.296,1.296,3.418,1.296,4.714,0l9.427-9.427c1.296-1.296,1.296-3.418,0-4.714
	L68.792,59.499z M58.581,21.009l20.413,20.407c-4.863,0.775-10.566-1.136-14.922-5.492C59.724,31.572,57.806,25.863,58.581,21.009z
	 M28.721,38.288l-9.427-9.427l4.714-4.714l9.427,9.427L28.721,38.288z M26.123,77.22c-0.195,0.16-0.771,0.134-0.941-0.045
	l-2.36-2.351c-0.169-0.179-0.202-0.755-0.045-0.947l14.448-17.656l6.554,6.553L26.123,77.22z M48.965,58.532l-7.495-7.5l4.24-5.179
	l8.441,8.437L48.965,58.532z M71.149,80.713l-9.431-9.427l4.714-4.714l9.43,9.427L71.149,80.713z"/>
</svg>
