<svg width="100" height="100" viewBox="0 0 100 100" fill="none" xmlns="http://www.w3.org/2000/svg">
<path d="M49.9791 14.0625C45.788 14.0625 42.0348 14.7494 39.4007 16.6134C36.8748 18.4007 35.3125 21.3828 35.3125 26.062C35.3125 30.9934 37.3037 36.1937 40.2188 40.1587C43.0143 43.9609 46.6047 46.5734 49.9791 46.5734C53.3535 46.5734 56.9439 43.9609 59.7393 40.1587C62.6544 36.1937 64.6456 30.9934 64.6456 26.062C64.6456 21.3828 63.0833 18.4007 60.5575 16.6134C57.9233 14.7494 54.1702 14.0625 49.9791 14.0625H49.9791ZM37.6062 14.0744C40.8456 11.7822 45.2072 10.9374 49.9791 10.9374C54.751 10.9374 59.1126 11.7821 62.352 14.0744C65.6999 16.4434 67.7707 20.2426 67.7707 26.062C67.7707 31.6664 65.5318 37.5437 62.254 42.002C58.9 46.564 54.4053 49.6985 49.9791 49.6985C45.5529 49.6985 41.0581 46.564 37.7041 42.002C34.4264 37.5438 32.1874 31.6664 32.1874 26.062C32.1874 20.2425 34.2582 16.4434 37.6061 14.0744H37.6062Z" fill="black"/>
<path d="M56.6364 13.5604C56.7206 12.7042 56.0948 11.9417 55.2386 11.8575C54.3825 11.7732 53.62 12.399 53.5357 13.2552L53.4969 13.6443C53.1948 16.665 50.2774 20.4354 46.498 23.4823C42.7296 26.5203 38.1805 28.7554 34.554 28.7554C33.6911 28.7554 32.9915 29.455 32.9915 30.3179C32.9915 31.1808 33.6911 31.8804 34.554 31.8804C38.9121 31.8804 44.1853 29.3504 48.451 25.9115C52.8181 22.3909 56.2091 17.8334 56.5975 13.9495L56.6364 13.5604L56.6364 13.5604Z" fill="black"/>
<path d="M53.1657 19.7556C52.6601 19.0613 51.6872 18.9082 50.9928 19.4138C50.2984 19.9194 50.1454 20.8923 50.651 21.5867L51.371 22.5725C52.9112 24.6814 55.1925 26.3338 57.7132 27.478C60.4556 28.7227 63.5127 29.3836 66.2082 29.3836C67.0711 29.3836 67.7707 28.684 67.7707 27.8211C67.7707 26.9582 67.0711 26.2586 66.2082 26.2586C63.9287 26.2586 61.3332 25.6951 58.995 24.6337C56.9245 23.6939 55.0812 22.3784 53.8857 20.7415L53.1657 19.7556L53.1657 19.7556Z" fill="black"/>
<path d="M69.8945 63.6781C70.3294 64.423 71.2858 64.6744 72.0308 64.2396C72.7757 63.8047 73.0271 62.8482 72.5923 62.1033C70.9247 59.2475 68.6877 56.7323 66.0311 54.7021C63.4166 52.7039 60.3934 51.1792 57.1052 50.2664L57.1065 50.2618C56.5142 50.0974 55.907 50.2972 55.5231 50.7263L49.9791 56.0627L44.3504 50.6447L44.3532 50.6417C43.907 50.2122 43.2715 50.1007 42.727 50.3018C39.4875 51.2184 36.5081 52.7297 33.927 54.7021C31.2703 56.7324 29.0334 59.2476 27.3658 62.1033C26.931 62.8482 27.1824 63.8047 27.9273 64.2396C28.6722 64.6744 29.6287 64.423 30.0636 63.6781C31.5303 61.1663 33.4925 58.9582 35.8191 57.1802C37.9012 55.5889 40.2736 54.339 42.8431 53.5198L48.8169 59.2699C48.8288 59.2832 48.8409 59.2963 48.8533 59.3092C49.4517 59.9309 50.4409 59.9498 51.0626 59.3514L51.0598 59.3484L57.1151 53.5198C59.6845 54.3389 62.0569 55.5888 64.139 57.1801C66.4655 58.9581 68.4279 61.1663 69.8945 63.678V63.6781Z" fill="black"/>
<path d="M19.6969 61.3281H80.2614C81.1243 61.3281 81.8239 62.0277 81.8239 62.8907V87.4999C81.8239 88.3628 81.1243 89.0624 80.2614 89.0624H19.6969C18.834 89.0624 18.1344 88.3628 18.1344 87.4999V62.8907C18.1344 62.0277 18.834 61.3281 19.6969 61.3281ZM78.6988 64.4532H21.2595V85.9374H78.6988V64.4532Z" fill="black"/>
<path d="M18.0926 70.8738C17.2567 70.6682 16.4122 71.1793 16.2066 72.0152C16.001 72.8511 16.512 73.6956 17.348 73.9012L21.4825 74.9263C22.3185 75.1319 23.163 74.6209 23.3685 73.785C23.5741 72.949 23.0631 72.1045 22.2272 71.8989L18.0926 70.8738Z" fill="black"/>
<path d="M82.652 73.9012C83.4879 73.6956 83.999 72.8511 83.7934 72.0152C83.5878 71.1793 82.7433 70.6682 81.9073 70.8738L77.7728 71.8989C76.9369 72.1045 76.4259 72.949 76.6315 73.785C76.8371 74.6209 77.6815 75.1319 78.5175 74.9263L82.652 73.9012Z" fill="black"/>
<path d="M18.0926 74.8137C17.2567 74.6081 16.4122 75.1191 16.2066 75.955C16.001 76.791 16.512 77.6354 17.348 77.841L21.4825 78.8661C22.3185 79.0717 23.163 78.5607 23.3685 77.7248C23.5741 76.8888 23.0631 76.0444 22.2272 75.8388L18.0926 74.8137Z" fill="black"/>
<path d="M82.652 77.8409C83.4879 77.6353 83.999 76.7908 83.7934 75.9549C83.5878 75.119 82.7433 74.6079 81.9073 74.8135L77.7728 75.8386C76.9369 76.0442 76.4259 76.8887 76.6315 77.7247C76.8371 78.5606 77.6815 79.0716 78.5175 78.866L82.652 77.8409Z" fill="black"/>
<path d="M18.0926 78.7532C17.2567 78.5476 16.4122 79.0587 16.2066 79.8946C16.001 80.7305 16.512 81.575 17.348 81.7806L21.4825 82.8058C22.3185 83.0114 23.163 82.5004 23.3685 81.6644C23.5741 80.8285 23.0631 79.984 22.2272 79.7784L18.0926 78.7532Z" fill="black"/>
<path d="M82.652 81.7806C83.4879 81.575 83.999 80.7305 83.7934 79.8946C83.5878 79.0587 82.7433 78.5476 81.9073 78.7532L77.7728 79.7784C76.9369 79.984 76.4259 80.8285 76.6315 81.6644C76.8371 82.5004 77.6815 83.0114 78.5175 82.8058L82.652 81.7806Z" fill="black"/>
<path d="M18.0926 66.9341C17.2567 66.7285 16.4122 67.2396 16.2066 68.0755C16.001 68.9115 16.512 69.7559 17.348 69.9615L21.4825 70.9866C22.3185 71.1922 23.163 70.6812 23.3685 69.8453C23.5741 69.0093 23.0631 68.1648 22.2272 67.9592L18.0926 66.9341Z" fill="black"/>
<path d="M82.652 69.9615C83.4879 69.7559 83.999 68.9114 83.7934 68.0755C83.5878 67.2396 82.7433 66.7285 81.9073 66.9341L77.7728 67.9592C76.9369 68.1648 76.4259 69.0093 76.6315 69.8453C76.8371 70.6812 77.6815 71.1922 78.5175 70.9866L82.652 69.9615Z" fill="black"/>
<path d="M26.9518 70.3727H30.0594C30.7593 70.3727 31.2926 70.4317 31.6612 70.552C32.1553 70.7138 32.5787 71.0024 32.9297 71.4179C33.2826 71.8311 33.5512 72.3384 33.7355 72.9375C33.9179 73.5388 34.01 74.2778 34.01 75.159C34.01 75.9308 33.9238 76.5977 33.7512 77.1575C33.5414 77.8396 33.2414 78.3928 32.8493 78.8149C32.5552 79.1363 32.1572 79.3855 31.6553 79.5648C31.2809 79.6982 30.779 79.7638 30.1496 79.7638H26.9519V70.3727L26.9518 70.3727ZM28.6517 71.9623V78.1808H29.9202C30.3947 78.1808 30.7378 78.1523 30.9495 78.0911C31.224 78.0146 31.4534 77.8855 31.6357 77.7019C31.8181 77.5182 31.9651 77.2143 32.0808 76.7945C32.1945 76.3747 32.2533 75.7996 32.2533 75.0737C32.2533 74.3478 32.1945 73.7924 32.0808 73.4032C31.9651 73.014 31.8043 72.7101 31.5985 72.4937C31.3907 72.275 31.1279 72.1285 30.8103 72.052C30.5731 71.9908 30.1084 71.9623 29.4144 71.9623H28.6517V71.9623ZM35.453 79.7638V70.3727H41.6955V71.9623H37.1528V74.0439H41.3799V75.6247H37.1528V78.1808H41.8563V79.7638H35.453V79.7638ZM43.3032 70.3727H46.6696C47.3361 70.3727 47.8341 70.4033 48.1616 70.4667C48.489 70.5279 48.7811 70.657 49.0399 70.8538C49.2987 71.0505 49.5124 71.3108 49.685 71.6387C49.8575 71.9645 49.9437 72.3318 49.9437 72.7363C49.9437 73.1759 49.8379 73.5804 49.6261 73.9477C49.4124 74.315 49.1242 74.5905 48.7615 74.7742C49.2732 74.9403 49.6693 75.2246 49.9437 75.6247C50.2202 76.027 50.3575 76.4993 50.3575 77.0416C50.3575 77.468 50.2692 77.8834 50.0908 78.2879C49.9123 78.6902 49.6693 79.0138 49.3614 79.2543C49.0536 79.4948 48.6733 79.6435 48.2204 79.7003C47.938 79.7332 47.2538 79.755 46.1696 79.7638H43.3032V70.3727L43.3032 70.3727ZM45.005 71.9361V74.1073H46.1186C46.7813 74.1073 47.193 74.0963 47.3538 74.0745C47.644 74.0373 47.8733 73.9258 48.04 73.74C48.2067 73.5541 48.289 73.3092 48.289 73.0053C48.289 72.7144 48.2184 72.4783 48.0753 72.2968C47.9302 72.1153 47.7165 72.006 47.4342 71.9689C47.2656 71.947 46.7813 71.9361 45.9814 71.9361H45.005V71.9361ZM45.005 75.6706V78.1808H46.5774C47.1911 78.1808 47.5793 78.1633 47.744 78.1239C47.9969 78.0736 48.2028 77.9468 48.3615 77.75C48.5204 77.5511 48.6007 77.2843 48.6007 76.9519C48.6007 76.6698 48.538 76.4315 48.4164 76.2347C48.293 76.038 48.1165 75.8936 47.8851 75.804C47.6538 75.7144 47.1499 75.6706 46.3774 75.6706H45.005H45.005ZM59.3879 79.7638H57.5371L56.8019 77.6298H53.4355L52.7415 79.7638H50.9377L54.2178 70.3727H56.0157L59.3879 79.7638H59.3879ZM56.2569 76.049L55.0962 72.5636L53.959 76.049H56.2569H56.2569ZM61.3113 79.7638V71.9623H58.8135V70.3727H65.5049V71.9623H63.013V79.7638H61.3113ZM66.6029 79.7638V70.3727H72.8454V71.9623H68.3027V74.0439H72.5298V75.6247H68.3027V78.1808H73.0062V79.7638H66.6029V79.7638Z" fill="black"/>
</svg>
