<svg version="1.0" id="Layer_1" xmlns="http://www.w3.org/2000/svg" xmlns:xlink="http://www.w3.org/1999/xlink" x="0px" y="0px"
	 width="100px" height="100px" viewBox="0 0 100 100" enable-background="new 0 0 100 100" xml:space="preserve">
<polygon points="10,22.962 25.322,10 27.679,12.357 14.713,27.676 "/>
<polygon points="77.034,38.62 87.644,30.371 90,32.728 81.751,43.333 "/>
<polygon points="77.034,85.29 87.644,77.038 90,79.395 81.751,90 "/>
<circle cx="28.942" cy="49.391" r="5"/>
<path d="M53.942,61.058c0,3.686-2.982,6.667-6.667,6.667c-3.685,0-6.667-2.981-6.667-6.667c0-3.685,2.981-6.666,6.667-6.666
	C50.96,54.392,53.942,57.373,53.942,61.058z"/>
<circle cx="55.609" cy="47.725" r="3.333"/>
<circle cx="33.109" cy="66.892" r="2.5"/>
<circle cx="48.109" cy="76.892" r="2.5"/>
<circle cx="43.109" cy="43.558" r="2.5"/>
<circle cx="62.5" cy="19.167" r="2.5"/>
<circle cx="72.5" cy="12.5" r="2.5"/>
<circle cx="85.833" cy="52.5" r="2.5"/>
<path d="M82.881,61.364l-5.713-3.486c0.036-0.609,0.107-1.208,0.107-1.823c0-14.538-9.323-26.865-22.305-31.419l-1.028-6.582
	c-6.667-2.76-13.822-2.565-20,0l-1.028,6.582c-12.982,4.554-22.305,16.882-22.305,31.419c0,5.176,1.211,10.056,3.318,14.421
	L10,75.856C12.762,82.522,17.959,87.444,24.141,90l5.389-3.933c4.363,2.109,9.238,3.324,14.412,3.324
	c9.86,0,18.675-4.32,24.769-11.13l6.514,1.579C80.325,74.736,82.884,68.05,82.881,61.364z M55.811,68.274l-1.572,6.481l6.872,1.663
	c-4.639,3.92-10.615,6.306-17.168,6.306c-2.815,0-5.503-0.488-8.047-1.302l5.688-4.15l-3.929-5.385l-14.116,10.3
	c-2.297-1.478-4.24-3.431-5.728-5.726l10.303-14.115l-5.386-3.932l-4.152,5.689c-0.815-2.542-1.3-5.23-1.3-8.05
	c0-10.309,5.863-19.238,14.429-23.672l-1.095,7.005l6.585,1.028l2.699-17.266c2.669-0.579,5.423-0.573,8.099,0l2.695,17.266
	l6.589-1.028l-1.097-7.009c7.923,4.099,13.443,12.061,14.244,21.383l-5.977-3.646l-3.47,5.69l14.915,9.102
	c-0.488,2.686-1.546,5.228-3.099,7.483L55.811,68.274z"/>
<polygon points="69.968,25.319 87.644,10 90,12.357 74.681,30.033 "/>
</svg>
