<svg version="1.0" id="Layer_1" xmlns="http://www.w3.org/2000/svg" xmlns:xlink="http://www.w3.org/1999/xlink" x="0px" y="0px"
	 width="100px" height="100px" viewBox="0 0 100 100" enable-background="new 0 0 100 100" xml:space="preserve">
<path d="M66.667,10c-12.888,0-23.334,10.446-23.334,23.333c0,1.11,0.104,2.194,0.254,3.265v-0.003L10,50.508l2.552,6.158
	l32.914-13.632c0.693,1.514,1.546,2.937,2.532,4.255L10,85.287L14.714,90l38.001-37.998c1.321,0.992,2.751,1.85,4.274,2.545
	c-0.007-0.002-0.017-0.006-0.023-0.01L43.333,87.451L49.492,90l13.913-33.588h-0.004c1.071,0.15,2.155,0.254,3.266,0.254
	C79.551,56.666,90,46.217,90,33.333C90,20.446,79.551,10,66.667,10z M66.667,50c-3.396,0-6.547-1.029-9.18-2.773l4.368-4.369
	l-4.714-4.713l-4.368,4.369C51.028,39.879,50,36.729,50,33.333c0-9.206,7.461-16.667,16.667-16.667
	c9.202,0,16.666,7.461,16.666,16.667C83.333,42.536,75.869,50,66.667,50z"/>
</svg>
