<svg version="1.0" id="Layer_1" xmlns="http://www.w3.org/2000/svg" xmlns:xlink="http://www.w3.org/1999/xlink" x="0px" y="0px"
	 width="100px" height="100px" viewBox="0 0 100 100" enable-background="new 0 0 100 100" xml:space="preserve">
<path d="M71.143,33.568c-1.302,1.302-3.411,1.302-4.714,0c-1.302-1.299-1.302-3.408,0-4.714c1.303-1.299,3.412-1.299,4.714,0
	C72.444,30.16,72.444,32.269,71.143,33.568z"/>
<circle cx="59.355" cy="40.641" r="3.333"/>
<path d="M90,10c-14.502,0-28.997,5.514-40.081,16.523c-5.219-5.013-13.51-4.974-18.652,0.169L14.769,43.19h23.568l2.164,2.165
	l-11.783,7.071l3.76,3.76C19.277,61.732,10,74.779,10,90c15.212-0.004,28.262-9.273,33.812-22.475l0,0l3.76,3.76l7.07-11.787v-0.002
	l2.165,2.164l0.003,23.568l16.498-16.494c5.143-5.145,5.182-13.436,0.169-18.653C84.485,38.994,90,24.502,90,10z M30.866,36.523
	l5.113-5.117c2.602-2.598,6.83-2.598,9.428,0l0.107,0.104c-1.279,1.621-2.448,3.298-3.525,5.017L30.866,36.523z M17.656,82.34
	c2.63-9.953,10.29-17.844,20.059-20.914l0,0l0.856,0.855C35.501,72.051,27.61,79.711,17.656,82.34z M49.785,54.643l-3.535,5.889
	l-6.78-6.781l5.892-3.535l4.427,4.428H49.785z M68.591,64.018l-5.114,5.117l-0.003-11.127c1.719-1.074,3.395-2.24,5.016-3.52
	l0.102,0.102C71.191,57.191,71.191,61.42,68.591,64.018z M68.626,45.514c-3.111,3.109-6.641,5.794-10.533,8.005L46.478,41.904
	c2.214-3.89,4.896-7.422,8.008-10.534c7.771-7.771,17.646-12.679,28.344-14.199C81.312,27.868,76.399,37.741,68.626,45.514z"/>
</svg>
