<svg width="100" height="100" viewBox="0 0 100 100" fill="none" xmlns="http://www.w3.org/2000/svg">
<path d="M93.75 7.8125C92.2418 7.81814 90.7875 8.37369 89.6596 9.375H73.2156C72.8712 8.03672 72.0926 6.8505 71.0017 6.00223C69.9108 5.15395 68.5693 4.69156 67.1875 4.6875H32.8125C31.4306 4.69156 30.0891 5.15395 28.9982 6.00223C27.9074 6.8505 27.1287 8.03672 26.7843 9.375H10.3403C9.43819 8.57942 8.32569 8.06105 7.13628 7.88208C5.94687 7.7031 4.73109 7.87114 3.63481 8.36601C2.53854 8.86089 1.60835 9.66159 0.955856 10.672C0.303367 11.6825 -0.0437012 12.8597 -0.0437012 14.0625C-0.0437012 15.2653 0.303367 16.4425 0.955856 17.453C1.60835 18.4634 2.53854 19.2641 3.63481 19.759C4.73109 20.2539 5.94687 20.4219 7.13628 20.2429C8.32569 20.064 9.43819 19.5456 10.3403 18.75H26.5625V81.25C26.5625 81.5255 26.6353 81.796 26.7736 82.0342C26.9119 82.2725 27.1107 82.4699 27.3498 82.6066L49.2248 95.1066C49.4609 95.2414 49.7281 95.3124 50 95.3124C50.2719 95.3124 50.5391 95.2414 50.7751 95.1066L72.6501 82.6066C72.8893 82.4699 73.0881 82.2725 73.2263 82.0342C73.3646 81.796 73.4374 81.5255 73.4375 81.25V18.75H89.6596C90.4194 19.4132 91.3286 19.8824 92.3094 20.1172C93.2902 20.3521 94.3133 20.3456 95.2911 20.0985C96.2688 19.8513 97.1721 19.3707 97.9234 18.698C98.6747 18.0252 99.2517 17.1803 99.605 16.2357C99.9583 15.2911 100.077 14.2749 99.9517 13.2742C99.8262 12.2735 99.4599 11.3182 98.8843 10.4901C98.3087 9.66201 97.5409 8.98582 96.6466 8.51947C95.7524 8.05313 94.7585 7.81054 93.75 7.8125V7.8125ZM65.625 7.8125V77.623L50 86.5517L34.375 77.623V7.8125H65.625ZM3.12497 14.0625C3.12592 13.234 3.45547 12.4397 4.04131 11.8538C4.62716 11.268 5.42146 10.9385 6.24997 10.9375C7.07877 10.9375 7.87363 11.2667 8.45968 11.8528C9.04573 12.4388 9.37497 13.2337 9.37497 14.0625C9.37497 14.8913 9.04573 15.6862 8.45968 16.2722C7.87363 16.8583 7.07877 17.1875 6.24997 17.1875C5.42146 17.1865 4.62716 16.857 4.04131 16.2712C3.45547 15.6853 3.12592 14.891 3.12497 14.0625V14.0625ZM12.3015 15.625C12.3186 15.56 12.325 15.4922 12.3398 15.4266C12.4391 14.9785 12.4928 14.5214 12.5 14.0625C12.4893 13.5361 12.4227 13.0124 12.3015 12.5H26.5625V15.625H12.3015ZM70.3125 80.3437L50 91.9502L29.6875 80.3437V10.9375C29.6892 10.3915 29.8345 9.85552 30.1088 9.38336C30.383 8.9112 30.7766 8.51943 31.25 8.24734V78.5294C31.25 78.8048 31.3228 79.0754 31.4611 79.3136C31.5994 79.5518 31.7982 79.7493 32.0373 79.8859L49.2248 89.708C49.4609 89.8429 49.7281 89.9138 50 89.9138C50.2719 89.9138 50.5391 89.8429 50.7751 89.708L67.9626 79.8859C68.2018 79.7493 68.4006 79.5518 68.5388 79.3136C68.6771 79.0754 68.7499 78.8048 68.75 78.5294V8.24734C69.2234 8.51943 69.6169 8.9112 69.8912 9.38336C70.1654 9.85552 70.3107 10.3915 70.3125 10.9375V80.3437ZM73.4375 15.625V12.5H87.6984C87.5793 13.0127 87.5129 13.5363 87.5 14.0625C87.5108 14.5889 87.5773 15.1126 87.6984 15.625H73.4375ZM93.75 17.1875C92.9212 17.1875 92.1263 16.8583 91.5403 16.2722C90.9542 15.6862 90.625 14.8913 90.625 14.0625C90.625 13.2337 90.9542 12.4388 91.5403 11.8528C92.1263 11.2667 92.9212 10.9375 93.75 10.9375C94.5788 10.9375 95.3736 11.2667 95.9597 11.8528C96.5457 12.4388 96.875 13.2337 96.875 14.0625C96.875 14.8913 96.5457 15.6862 95.9597 16.2722C95.3736 16.8583 94.5788 17.1875 93.75 17.1875Z" fill="#222226"/>
<path d="M43.3929 48.875L42.3675 54.8495C42.3184 55.1367 42.3505 55.4318 42.4603 55.7017C42.5701 55.9715 42.7532 56.2053 42.9888 56.3766C43.2244 56.5479 43.5033 56.65 43.7938 56.6712C44.0844 56.6924 44.3751 56.632 44.6331 56.4967L50 53.6758L55.3665 56.4964C55.6246 56.6316 55.9153 56.6921 56.2058 56.6709C56.4964 56.6496 56.7752 56.5476 57.0108 56.3763C57.2465 56.205 57.4295 55.9712 57.5393 55.7014C57.6491 55.4315 57.6813 55.1364 57.6322 54.8492L56.607 48.875L60.9481 44.6445C61.1571 44.441 61.3049 44.183 61.3749 43.8998C61.4448 43.6166 61.4341 43.3195 61.3439 43.042C61.2537 42.7646 61.0876 42.518 60.8645 42.3301C60.6414 42.1422 60.3701 42.0204 60.0814 41.9787L54.0833 41.1075L51.4008 35.6719C51.257 35.4282 51.0522 35.2263 50.8065 35.086C50.5609 34.9457 50.2829 34.8719 50 34.8719C49.7171 34.8719 49.4391 34.9457 49.1934 35.086C48.9478 35.2263 48.7429 35.4282 48.5992 35.6719L45.9167 41.107L39.9186 41.9783C39.6299 42.02 39.3586 42.1417 39.1355 42.3296C38.9123 42.5175 38.7463 42.7642 38.6561 43.0416C38.5659 43.319 38.5552 43.6161 38.6251 43.8993C38.6951 44.1825 38.8429 44.4405 39.0519 44.644L43.3929 48.875ZM47.1786 44.0822C47.4294 44.0458 47.6676 43.949 47.8726 43.7999C48.0776 43.6509 48.2432 43.4542 48.3551 43.2268L50 39.894L51.6448 43.2265C51.7568 43.4539 51.9224 43.6506 52.1274 43.7996C52.3324 43.9486 52.5706 44.0455 52.8214 44.0819L56.4987 44.6159L53.8376 47.2097C53.6564 47.3866 53.5209 47.605 53.4428 47.8459C53.3646 48.0868 53.3461 48.3431 53.3889 48.5928L54.0176 52.2564L50.7262 50.5269C50.5022 50.409 50.2528 50.3475 49.9997 50.3475C49.7465 50.3475 49.4972 50.409 49.2731 50.5269L45.9817 52.2564L46.6111 48.5937C46.6538 48.3441 46.6354 48.0878 46.5572 47.8469C46.479 47.6059 46.3435 47.3876 46.1623 47.2106L43.5012 44.6169L47.1786 44.0822Z" fill="#222226"/>
</svg>
