<svg version="1.0" id="Layer_1" xmlns="http://www.w3.org/2000/svg" xmlns:xlink="http://www.w3.org/1999/xlink" x="0px" y="0px"
	 width="100px" height="100px" viewBox="0 0 100 100" enable-background="new 0 0 100 100" xml:space="preserve">
<path d="M37.853,64.812l0.43-13.711l-11.136,8.398l-12.902-4.16l4.16,12.903L10,79.382l13.711-0.43L31.434,90l4.31-13.164
	l13.175-4.316L37.853,64.812z M31.779,72.878L29.8,78.933l-3.54-5.065l-5.978,0.188l3.678-4.876l-1.963-6.087l6.087,1.959
	l4.873-3.672l-0.189,5.983l5.065,3.528L31.779,72.878z"/>
<path d="M73.333,43.333c-5.523,0-10,4.479-10,10c0,5.521,4.477,10,10,10c5.521,0,10-4.479,10-10
	C83.333,47.813,78.854,43.333,73.333,43.333z M73.333,56.667c-1.842,0-3.333-1.491-3.333-3.334C70,51.494,71.491,50,73.333,50
	c1.84,0,3.334,1.494,3.334,3.333C76.667,55.176,75.173,56.667,73.333,56.667z"/>
<path d="M36.667,10c-5.524,0-10,4.479-10,10s4.476,10,10,10c5.521,0,10-4.479,10-10S42.188,10,36.667,10z M36.667,23.333
	c-1.842,0-3.333-1.491-3.333-3.333s1.491-3.333,3.333-3.333C38.506,16.667,40,18.158,40,20S38.506,23.333,36.667,23.333z"/>
<polygon points="86.816,83.333 90,76.667 83.333,79.851 76.667,76.667 79.851,83.333 76.667,90 83.333,86.816 90,90 "/>
<polygon points="17.611,33.333 20,28.333 15,30.723 10,28.333 12.389,33.333 10,38.333 15,35.944 20,38.333 "/>
<polygon points="84.277,18.333 86.667,13.333 81.667,15.723 76.667,13.333 79.056,18.333 76.667,23.333 81.667,20.944 
	86.667,23.333 "/>
<polygon points="55.944,43.333 58.333,38.333 53.333,40.723 48.333,38.333 50.723,43.333 48.333,48.333 53.333,45.944 
	58.333,48.333 "/>
<circle cx="16.667" cy="16.667" r="3.333"/>
<circle cx="30" cy="46.667" r="3.333"/>
<circle cx="63.333" cy="23.333" r="3.333"/>
<circle cx="86.667" cy="35" r="3.333"/>
<circle cx="60" cy="70" r="3.333"/>
<circle cx="84.167" cy="69.167" r="2.5"/>
<circle cx="69.167" cy="80.833" r="2.5"/>
<circle cx="72.5" cy="35.833" r="2.5"/>
<circle cx="39.167" cy="37.5" r="2.5"/>
<circle cx="49.167" cy="59.167" r="2.5"/>
<circle cx="54.167" cy="12.5" r="2.5"/>
<circle cx="15.833" cy="47.5" r="2.5"/>
<circle cx="50" cy="86.667" r="3.333"/>
</svg>
