<svg version="1.0" id="Layer_1" xmlns="http://www.w3.org/2000/svg" xmlns:xlink="http://www.w3.org/1999/xlink" x="0px" y="0px"
	 width="100px" height="100px" viewBox="0 0 100 100" enable-background="new 0 0 100 100" xml:space="preserve">
<path d="M89.796,39.336c-1.357-5.091-9.368-7.754-20.466-7.669c-4.856-5.124-11.712-8.333-19.329-8.333
	c-12.585,0-23.112,8.733-25.911,20.462c0-0.003,0-0.003,0-0.006c-9.648,5.472-15.248,11.783-13.887,16.869
	c1.367,5.09,9.375,7.756,20.469,7.672c4.856,5.123,11.712,8.336,19.329,8.336c12.581,0,23.105-8.732,25.908-20.459
	C85.558,50.736,91.16,44.424,89.796,39.336z M50.001,30c11.042,0,20,8.955,20,20c0,0.719-0.042,1.426-0.117,2.125
	c-4.964,2.234-11.013,4.385-17.663,6.166c-6.641,1.781-12.942,2.939-18.353,3.49C31.446,58.473,30.001,54.41,30.001,50
	C30.001,38.955,38.959,30,50.001,30z M16.837,58.887c-0.554-2.064,1.973-4.756,6.569-7.543c0.191,3.875,1.197,7.523,2.871,10.791
	C20.919,62.018,17.391,60.947,16.837,58.887z M50.001,70c-3.431,0-6.66-0.865-9.485-2.393c4.3-0.561,8.828-1.436,13.482-2.682
	c4.639-1.244,8.991-2.744,12.985-4.402C63.455,66.205,57.179,70,50.001,70z M76.6,48.652c-0.192-3.871-1.198-7.52-2.871-10.785
	c5.357,0.117,8.887,1.188,9.437,3.246C83.719,43.174,81.192,45.869,76.6,48.652z"/>
</svg>
