<svg version="1.0" id="Layer_1" xmlns="http://www.w3.org/2000/svg" xmlns:xlink="http://www.w3.org/1999/xlink" x="0px" y="0px"
	 width="100px" height="100px" viewBox="0 0 100 100" enable-background="new 0 0 100 100" xml:space="preserve">
<path d="M76.667,13.333c-5.524,0-10,4.477-10,10c0,5.524,4.476,10,10,10c5.521,0,10-4.476,10-10
	C86.667,17.81,82.188,13.333,76.667,13.333z M76.667,26.667c-1.843,0-3.334-1.491-3.334-3.334c0-1.842,1.491-3.333,3.334-3.333
	C78.506,20,80,21.491,80,23.333C80,25.176,78.506,26.667,76.667,26.667z"/>
<path d="M23.333,66.667c-5.523,0-10,4.476-10,10c0,5.521,4.477,10,10,10c5.521,0,10-4.479,10-10
	C33.333,71.143,28.854,66.667,23.333,66.667z M23.333,80C21.491,80,20,78.509,20,76.667c0-1.843,1.491-3.334,3.333-3.334
	c1.84,0,3.334,1.491,3.334,3.334C26.667,78.509,25.173,80,23.333,80z"/>
<path d="M50,36.667c-7.368,0-13.333,5.967-13.333,13.33S42.632,63.333,50,63.333c7.363,0,13.333-5.973,13.333-13.336
	S57.363,36.667,50,36.667z M50,56.667c-3.685,0-6.667-2.988-6.667-6.667c0-3.682,2.982-6.667,6.667-6.667
	c3.682,0,6.667,2.985,6.667,6.667C56.667,53.679,53.682,56.667,50,56.667z"/>
<path d="M40.01,67.308C42.95,69.011,46.354,70,50,70c11.045,0,20-8.958,20-20.003c0-3.643-0.989-7.048-2.692-9.99l5.769-3.33
	c2.269,3.922,3.591,8.463,3.591,13.32c0,14.723-11.94,26.67-26.667,26.67c-4.86,0-9.399-1.318-13.321-3.588L40.01,67.308z"/>
<path d="M32.694,59.993C30.989,57.048,30,53.643,30,49.997C30,38.952,38.948,30,50,30c3.646,0,7.051,0.989,9.993,2.692l3.33-5.769
	C59.401,24.651,54.86,23.333,50,23.333c-14.736,0-26.667,11.938-26.667,26.664c0,4.859,1.32,9.4,3.591,13.326L32.694,59.993z"/>
<path d="M81.296,38.61c1.295,3.558,2.037,7.379,2.037,11.383c0,18.405-14.925,33.34-33.333,33.34c-4.007,0-7.831-0.742-11.388-2.037
	l-2.279,6.256C40.603,89.108,45.192,90,50,90c22.09,0,40-17.92,40-40.007c0-4.805-0.892-9.391-2.444-13.662L81.296,38.61z"/>
<path d="M18.708,61.39c-1.297-3.561-2.041-7.386-2.041-11.396c0-18.404,14.914-33.326,33.333-33.326
	c4.007,0,7.832,0.742,11.39,2.037l2.279-6.256C59.397,10.892,54.808,10,50,10c-22.103,0-40,17.907-40,39.993
	c0,4.812,0.892,9.401,2.45,13.676L18.708,61.39z"/>
</svg>
