<svg version="1.0" id="Layer_1" xmlns="http://www.w3.org/2000/svg" xmlns:xlink="http://www.w3.org/1999/xlink" x="0px" y="0px"
	 width="100px" height="100px" viewBox="0 0 100 100" enable-background="new 0 0 100 100" xml:space="preserve">
<circle cx="50" cy="43.333" r="3.333"/>
<circle cx="50" cy="56.666" r="3.333"/>
<path d="M76.667,51.666h-10v-1.441c0-8.232-1.784-16.039-4.932-23.102l-0.222-0.456C58.672,20.433,54.785,14.779,50,10
	c-4.785,4.779-8.672,10.433-11.517,16.667l-0.219,0.456c-3.147,7.063-4.932,14.87-4.932,23.102v1.441h-10
	C15.97,51.666,10,57.633,10,65v25h16.667l6.666-13.334H40L36.667,90h26.666L60,76.666h6.667L73.333,90H90V65
	C90,57.633,84.03,51.666,76.667,51.666z M33.333,61.752L22.546,83.334h-5.879V65c0-3.676,2.988-6.666,6.666-6.666h10V61.752z
	 M50,20.137c1.563,2.074,2.937,4.261,4.147,6.53h-8.295C47.063,24.398,48.438,22.21,50,20.137z M54.795,83.334h-9.59l1.67-6.668
	h6.25L54.795,83.334z M60,70H40V50.225c0-5.853,1.022-11.54,2.93-16.891H57.07C58.978,38.685,60,44.372,60,50.225V70z
	 M83.333,83.334h-5.879L66.667,61.752v-3.418h10c3.678,0,6.666,2.99,6.666,6.666V83.334z"/>
</svg>
