<svg version="1.0" id="Layer_1" xmlns="http://www.w3.org/2000/svg" xmlns:xlink="http://www.w3.org/1999/xlink" x="0px" y="0px"
	 width="100px" height="100px" viewBox="0 0 100 100" enable-background="new 0 0 100 100" xml:space="preserve">
<path d="M82.275,70.283l-4.59-41.318c3.33-1.623,5.647-5.01,5.647-8.965c0-5.522-4.479-10-10-10c-4.847,0-8.887,3.454-9.801,8.034
	l-28.051,4.007c-1.673-3.18-4.971-5.375-8.814-5.375c-5.521,0-10,4.478-10,10c0,3.762,2.103,6.997,5.169,8.705l-3.577,21.471
	C13.567,57.67,10,61.742,10,66.666c0,5.521,4.479,10,10,10c3.571,0,6.687-1.887,8.45-4.707l41.674,9.262
	C70.732,86.158,74.896,90,80,90c5.521,0,10-4.479,10-10C90,75.264,86.696,71.318,82.275,70.283z M20,70
	c-1.836,0-3.333-1.494-3.333-3.334c0-1.838,1.497-3.332,3.333-3.332s3.333,1.494,3.333,3.332C23.333,68.506,21.836,70,20,70z
	 M23.333,26.667c0-1.837,1.498-3.333,3.334-3.333S30,24.829,30,26.667C30,28.504,28.503,30,26.667,30S23.333,28.504,23.333,26.667z
	 M71.546,74.707l-41.67-9.262c-0.396-3.234-2.317-5.967-5.045-7.482l3.577-21.472c4.046-0.714,7.259-3.841,8.06-7.858l28.051-4.007
	c1.331,2.531,3.685,4.424,6.539,5.091l4.59,41.318C73.962,71.859,72.539,73.125,71.546,74.707z M73.333,23.333
	C71.494,23.333,70,21.837,70,20s1.494-3.333,3.333-3.333c1.84,0,3.334,1.496,3.334,3.333S75.173,23.333,73.333,23.333z M80,83.334
	c-1.839,0-3.333-1.494-3.333-3.334s1.494-3.334,3.333-3.334S83.333,78.16,83.333,80S81.839,83.334,80,83.334z"/>
</svg>
