<svg width="100" height="100" viewBox="0 0 100 100" fill="none" xmlns="http://www.w3.org/2000/svg">
<path d="M79.3029 45.0938L77.0126 42.5272C76.6003 42.0647 76.2946 41.5173 76.1172 40.9236C75.9397 40.3299 75.8949 39.7045 75.9858 39.0916L76.1687 37.8168C76.3184 36.7813 76.2464 35.7258 75.9573 34.7203C75.6682 33.7148 75.1687 32.7822 74.4918 31.9844C73.8317 31.2073 73.0138 30.5793 72.0926 30.1423C71.1713 29.7052 70.1676 29.469 69.1481 29.4493C68.4146 29.4329 67.6991 29.2193 67.0768 28.8309C66.4544 28.4426 65.9481 27.8937 65.6111 27.2421L64.012 24.1952C63.5467 23.3055 62.9017 22.5221 62.118 21.8946C61.3342 21.2672 60.4287 20.8092 59.4587 20.5499C58.4991 20.2989 57.4978 20.2496 56.5182 20.4052C55.5385 20.5608 54.6018 20.9179 53.7672 21.4539L52.1787 22.4763C51.5285 22.8932 50.7722 23.1149 49.9998 23.1149C49.2274 23.1149 48.4712 22.8932 47.8209 22.4763L46.2325 21.4539C45.3983 20.917 44.4615 20.5593 43.4817 20.4037C42.5019 20.248 41.5004 20.2978 40.5409 20.5499C39.5711 20.8092 38.6656 21.2671 37.8819 21.8944C37.0981 22.5217 36.4531 23.3049 35.9876 24.1944L34.3886 27.2413C34.0514 27.8931 33.5448 28.4421 32.9222 28.8305C32.2995 29.2189 31.5837 29.4324 30.85 29.4485C29.8307 29.4685 28.8273 29.705 27.9064 30.1422C26.9854 30.5794 26.1679 31.2073 25.5081 31.9844C24.8312 32.7822 24.3316 33.7149 24.0425 34.7204C23.7534 35.726 23.6814 36.7816 23.8312 37.8171L24.0157 39.0943C24.1059 39.707 24.0606 40.3321 23.8829 40.9255C23.7052 41.5188 23.3995 42.066 22.9873 42.5283L20.697 45.0938C19.4912 46.4433 18.8247 48.1897 18.8247 49.9994C18.8247 51.8091 19.4912 53.5555 20.697 54.905L22.9873 57.4716C23.3996 57.9341 23.7053 58.4816 23.8828 59.0752C24.0602 59.6689 24.1051 60.2943 24.0142 60.9072L23.8312 62.1821C23.6813 63.2177 23.7533 64.2734 24.0424 65.2792C24.3315 66.2849 24.8311 67.2177 25.5081 68.0157C26.1683 68.7928 26.9861 69.4207 27.9074 69.8578C28.8287 70.2949 29.8323 70.5311 30.8518 70.5508C31.5853 70.5672 32.3008 70.7808 32.9232 71.1691C33.5456 71.5575 34.0519 72.1064 34.3889 72.758L35.9879 75.8049C36.4532 76.6946 37.0982 77.4779 37.882 78.1054C38.6658 78.7329 39.5713 79.1908 40.5412 79.4502C41.5008 79.7019 42.5022 79.7516 43.482 79.5959C44.4617 79.4403 45.3984 79.0828 46.2328 78.5461L47.8212 77.5238C48.4715 77.1068 49.2277 76.8852 50.0001 76.8852C50.7726 76.8852 51.5288 77.1068 52.179 77.5238L53.7675 78.5461C54.6019 79.0827 55.5386 79.4401 56.5183 79.5957C57.4981 79.7513 58.4994 79.7018 59.459 79.4502C60.4289 79.1908 61.3343 78.733 62.1181 78.1057C62.9018 77.4783 63.5469 76.6951 64.0123 75.8057L65.6114 72.7588C65.9485 72.107 66.4551 71.558 67.0778 71.1696C67.7005 70.7812 68.4163 70.5677 69.15 70.5516C70.1692 70.5316 71.1726 70.2951 72.0935 69.8579C73.0145 69.4207 73.832 68.7928 74.4918 68.0157C75.1688 67.2178 75.6683 66.2852 75.9574 65.2796C76.2465 64.2741 76.3185 63.2185 76.1687 62.183L75.9843 60.9063C75.8942 60.2935 75.9395 59.6684 76.1172 59.0751C76.2949 58.4817 76.6006 57.9346 77.0128 57.4722L79.3029 54.9063C80.5091 53.5567 81.1758 51.8101 81.1758 50C81.1758 48.19 80.5091 46.4434 79.3029 45.0938ZM76.9714 52.8238L74.6811 55.3907C73.9651 56.193 73.4337 57.1426 73.1243 58.1725C72.815 59.2024 72.7352 60.2877 72.8906 61.3518L73.0737 62.6282C73.1612 63.2248 73.1206 63.8333 72.9546 64.4131C72.7885 64.9928 72.5009 65.5306 72.1109 65.9905C71.7413 66.4328 71.2804 66.7901 70.76 67.0379C70.2395 67.2857 69.6717 67.4182 69.0953 67.4263C67.8007 67.4521 66.537 67.826 65.4367 68.5086C64.3365 69.1912 63.4403 70.1574 62.8422 71.3058L61.2431 74.3538C60.9824 74.8617 60.6177 75.3089 60.1725 75.6664C59.7274 76.0238 59.212 76.2834 58.6598 76.4283C58.1201 76.5732 57.5558 76.6026 57.0039 76.5148C56.452 76.427 55.9248 76.2238 55.4567 75.9186L53.8682 74.8963C52.7137 74.155 51.3706 73.761 49.9986 73.761C48.6265 73.761 47.2834 74.155 46.1289 74.8963L44.5404 75.9186C44.072 76.2233 43.5448 76.426 42.993 76.5138C42.4412 76.6017 41.8771 76.5725 41.3373 76.4283C40.785 76.2834 40.2695 76.0237 39.8244 75.6661C39.3793 75.3085 39.0145 74.8611 38.754 74.353L37.155 71.3061C36.557 70.1579 35.6611 69.1918 34.5611 68.5092C33.4611 67.8266 32.1977 67.4527 30.9034 67.4266C30.3268 67.4186 29.7588 67.2862 29.2381 67.0384C28.7175 66.7906 28.2565 66.4332 27.8867 65.9908C27.4966 65.5307 27.209 64.9929 27.043 64.413C26.8769 63.8331 26.8363 63.2245 26.9239 62.6277L27.1054 61.3536C27.262 60.2895 27.1831 59.204 26.8744 58.1737C26.5657 57.1434 26.0347 56.1934 25.3189 55.3907L23.0286 52.8241C22.3343 52.0471 21.9505 51.0417 21.9505 49.9997C21.9505 48.9578 22.3343 47.9523 23.0286 47.1753L25.3189 44.6094C26.0349 43.8071 26.5663 42.8575 26.8756 41.8276C27.1849 40.7976 27.2647 39.7124 27.1093 38.6483L26.9262 37.3719C26.8387 36.7752 26.8794 36.1668 27.0454 35.587C27.2114 35.0073 27.499 34.4695 27.889 34.0096C28.2587 33.5673 28.7195 33.21 29.24 32.9622C29.7604 32.7144 30.3283 32.5819 30.9047 32.5738C32.1992 32.5479 33.4629 32.1741 34.5632 31.4915C35.6634 30.8088 36.5597 29.8426 37.1578 28.6943L38.7568 25.6463C39.0175 25.1384 39.3823 24.6912 39.8274 24.3337C40.2725 23.9763 40.7879 23.7166 41.3401 23.5718C41.8799 23.4274 42.4441 23.3981 42.9959 23.4859C43.5477 23.5737 44.0749 23.7766 44.5432 24.0814L46.1317 25.1038C47.2862 25.845 48.6294 26.2391 50.0014 26.2391C51.3734 26.2391 52.7165 25.845 53.8711 25.1038L55.4595 24.0814C55.9275 23.776 56.4547 23.5726 57.0067 23.4848C57.5586 23.397 58.1229 23.4266 58.6626 23.5718C59.2149 23.7167 59.7304 23.9764 60.1756 24.334C60.6207 24.6916 60.9854 25.139 61.2459 25.6471L62.845 28.6939C63.4429 29.8421 64.3389 30.8082 65.4388 31.4908C66.5388 32.1735 67.8022 32.5474 69.0965 32.5735C69.6731 32.5815 70.2411 32.7139 70.7618 32.9617C71.2824 33.2095 71.7434 33.5668 72.1132 34.0093C72.5033 34.4693 72.791 35.0072 72.957 35.5871C73.123 36.167 73.1636 36.7756 73.0761 37.3724L72.8945 38.6464C72.738 39.7106 72.8168 40.796 73.1255 41.8263C73.4342 42.8566 73.9652 43.8067 74.6811 44.6094L76.9714 47.176C77.6655 47.9529 78.0493 48.9583 78.0493 50.0002C78.0493 51.0421 77.6655 52.0475 76.9714 52.8244V52.8238Z" fill="#222226"/>
<path d="M50 31.25C46.2916 31.25 42.6665 32.3497 39.5831 34.4099C36.4996 36.4702 34.0964 39.3986 32.6773 42.8247C31.2581 46.2508 30.8868 50.0208 31.6103 53.6579C32.3338 57.2951 34.1195 60.636 36.7418 63.2583C39.364 65.8805 42.7049 67.6663 46.3421 68.3897C49.9792 69.1132 53.7492 68.7419 57.1753 67.3227C60.6014 65.9036 63.5298 63.5004 65.5901 60.4169C67.6503 57.3335 68.75 53.7084 68.75 50C68.7445 45.0289 66.7672 40.263 63.2521 36.7479C59.737 33.2328 54.9711 31.2555 50 31.25V31.25ZM50 65.625C46.9097 65.625 43.8887 64.7086 41.3192 62.9917C38.7497 61.2748 36.747 58.8345 35.5644 55.9794C34.3818 53.1243 34.0723 49.9827 34.6752 46.9517C35.2781 43.9208 36.7663 41.1367 38.9515 38.9515C41.1367 36.7663 43.9208 35.2781 46.9517 34.6752C49.9827 34.0723 53.1243 34.3818 55.9794 35.5644C58.8345 36.747 61.2748 38.7497 62.9917 41.3192C64.7086 43.8887 65.625 46.9097 65.625 50C65.6203 54.1426 63.9726 58.1141 61.0433 61.0433C58.1141 63.9726 54.1426 65.6203 50 65.625V65.625Z" fill="#222226"/>
<path d="M59.2606 45.6436L53.83 44.8547L51.4008 39.9338C51.257 39.6901 51.0522 39.4882 50.8065 39.3479C50.5609 39.2076 50.2829 39.1338 50 39.1338C49.7171 39.1338 49.4391 39.2076 49.1934 39.3479C48.9478 39.4882 48.743 39.6901 48.5992 39.9338L46.17 44.8547L40.7394 45.6436C40.4507 45.6853 40.1794 45.8071 39.9563 45.995C39.7332 46.1829 39.5672 46.4296 39.477 46.707C39.3868 46.9844 39.3761 47.2815 39.446 47.5647C39.516 47.8479 39.6638 48.1059 39.8728 48.3094L43.8034 52.1392L42.8756 57.5486C42.8265 57.8358 42.8587 58.1309 42.9685 58.4008C43.0783 58.6706 43.2613 58.9044 43.4969 59.0757C43.7326 59.247 44.0114 59.349 44.302 59.3703C44.5925 59.3915 44.8832 59.331 45.1412 59.1958L50 56.6422L54.8584 59.1958C55.1164 59.331 55.4071 59.3915 55.6977 59.3703C55.9883 59.349 56.2671 59.247 56.5027 59.0757C56.7384 58.9044 56.9214 58.6706 57.0312 58.4008C57.141 58.1309 57.1731 57.8358 57.124 57.5486L56.1962 52.1392L60.1269 48.3094C60.3358 48.1059 60.4837 47.8479 60.5536 47.5647C60.6236 47.2815 60.6128 46.9844 60.5227 46.707C60.4325 46.4296 60.2665 46.1829 60.0434 45.995C59.8203 45.8071 59.549 45.6853 59.2603 45.6436H59.2606ZM53.4272 50.4745C53.246 50.6515 53.1105 50.8699 53.0323 51.1109C52.9542 51.3518 52.9357 51.6081 52.9786 51.8578L53.5098 54.9561L50.7266 53.4934C50.5025 53.3756 50.2531 53.3141 50 53.3141C49.7468 53.3141 49.4975 53.3756 49.2734 53.4934L46.4901 54.9561L47.0214 51.8578C47.0642 51.6081 47.0457 51.3518 46.9675 51.1109C46.8893 50.8699 46.7538 50.6515 46.5726 50.4745L44.3222 48.2812L47.4315 47.8295C47.6824 47.7933 47.9206 47.6964 48.1256 47.5474C48.3306 47.3984 48.4962 47.2017 48.6081 46.9744L50 44.1563L51.3915 46.9745C51.5035 47.2019 51.6691 47.3986 51.8741 47.5476C52.0791 47.6966 52.3173 47.7934 52.5681 47.8297L55.6775 48.2814L53.4272 50.4745Z" fill="#222226"/>
<path d="M92.4688 50L99.7625 38.3281C99.9107 38.0917 99.9928 37.8198 100 37.5409C100.008 37.2619 99.9404 36.9861 99.8052 36.742C99.6699 36.4979 99.4717 36.2946 99.2311 36.1531C98.9906 36.0116 98.7166 35.9371 98.4375 35.9375H80.9062C80.4918 35.9375 80.0944 36.1021 79.8014 36.3951C79.5084 36.6882 79.3438 37.0856 79.3438 37.5C79.3438 37.9144 79.5084 38.3118 79.8014 38.6049C80.0944 38.8979 80.4918 39.0625 80.9062 39.0625H95.6172L89.3 49.1719C89.1444 49.42 89.0618 49.7071 89.0618 50C89.0618 50.2929 89.1444 50.58 89.3 50.8281L95.6177 60.9375H80.9062C80.4918 60.9375 80.0944 61.1021 79.8014 61.3951C79.5084 61.6882 79.3438 62.0856 79.3438 62.5C79.3438 62.9144 79.5084 63.3118 79.8014 63.6049C80.0944 63.8979 80.4918 64.0625 80.9062 64.0625H98.4375C98.7165 64.0628 98.9905 63.9883 99.231 63.8468C99.4714 63.7052 99.6696 63.5019 99.8048 63.2578C99.94 63.0138 100.007 62.7379 99.9998 62.459C99.9923 62.1801 99.9102 61.9083 99.762 61.6719L92.4688 50Z" fill="#222226"/>
<path d="M19.0937 60.9375H4.38233L10.6995 50.8281C10.8552 50.58 10.9377 50.2929 10.9377 50C10.9377 49.7071 10.8552 49.42 10.6995 49.1719L4.38233 39.0625H19.0937C19.5081 39.0625 19.9056 38.8979 20.1986 38.6049C20.4916 38.3118 20.6562 37.9144 20.6562 37.5C20.6562 37.0856 20.4916 36.6882 20.1986 36.3951C19.9056 36.1021 19.5081 35.9375 19.0937 35.9375H1.56249C1.28348 35.9372 1.00949 36.0117 0.769024 36.1532C0.528563 36.2948 0.330415 36.4981 0.195194 36.7422C0.0599729 36.9862 -0.0073806 37.2621 0.000140221 37.541C0.00766104 37.8199 0.0897814 38.0917 0.237958 38.3281L7.53124 50L0.237958 61.6719C0.0897814 61.9083 0.00766104 62.1801 0.000140221 62.459C-0.0073806 62.7379 0.0599729 63.0138 0.195194 63.2578C0.330415 63.5019 0.528563 63.7052 0.769024 63.8468C1.00949 63.9883 1.28348 64.0628 1.56249 64.0625H19.0937C19.5081 64.0625 19.9056 63.8979 20.1986 63.6049C20.4916 63.3118 20.6562 62.9144 20.6562 62.5C20.6562 62.0856 20.4916 61.6882 20.1986 61.3951C19.9056 61.1021 19.5081 60.9375 19.0937 60.9375Z" fill="#222226"/>
</svg>
