<svg version="1.0" id="Layer_1" xmlns="http://www.w3.org/2000/svg" xmlns:xlink="http://www.w3.org/1999/xlink" x="0px" y="0px"
	 width="100px" height="100px" viewBox="0 0 100 100" enable-background="new 0 0 100 100" xml:space="preserve">
<path d="M73.545,17.663l-4.971,4.307L50.706,11.813c-7.211-2.988-15.208-2.162-22.304,1.585c2.368,7.666,7.438,13.906,14.651,16.892
	l19.818,5.449l0.466,6.563l6.158,2.552l2.021-13.594v-0.003l8.188-11.045L73.545,17.663z M65.059,29.427l-19.805-5.443
	c-3.197-1.409-5.877-3.766-7.871-6.865c3.602-0.781,7.165-0.553,10.423,0.71l17.851,10.156L65.059,29.427z"/>
<path d="M81.892,30.144c-2.969-1.234-6.237-0.16-7.295,2.389c-1.052,2.549,0.501,5.619,3.47,6.849
	c3.981,1.647,8.291,1.334,11.934-0.472C88.698,35.059,85.872,31.794,81.892,30.144z"/>
<polygon points="34.277,36.667 36.667,31.667 31.667,34.056 26.667,31.667 29.056,36.667 26.667,41.667 31.667,39.277 
	36.667,41.667 "/>
<polygon points="20.944,15 23.333,10 18.333,12.39 13.333,10 15.723,15 13.333,20 18.333,17.611 23.333,20 "/>
<polygon points="87.61,80 90,75 85,77.39 80,75 82.39,80 80,85 85,82.61 90,85 "/>
<circle cx="72.5" cy="87.5" r="2.5"/>
<circle cx="17.5" cy="82.5" r="2.5"/>
<circle cx="82.5" cy="49.167" r="2.5"/>
<circle cx="87.5" cy="12.5" r="2.5"/>
<circle cx="20.833" cy="47.5" r="2.5"/>
<circle cx="12.5" cy="30.833" r="2.5"/>
<path d="M83.333,64.997c0-4.763-6.917-8.916-17.252-11.27c-4.18-6.263-11.313-10.394-19.415-10.394
	c-8.097,0-15.228,4.127-19.412,10.394C16.92,56.084,10,60.234,10,64.997c0,4.446,6.001,8.369,15.187,10.794
	C28.74,84.144,37.021,90,46.667,90c9.652,0,17.93-5.856,21.478-14.209C77.337,73.369,83.333,69.443,83.333,64.997z M46.667,50
	c9.206,0,16.667,7.458,16.667,16.663c0,1.208-0.143,2.38-0.384,3.516c-4.414,0.883-9.851,1.488-16.283,1.488
	s-11.868-0.605-16.281-1.491C30.143,69.043,30,67.871,30,66.663C30,57.458,37.464,50,46.667,50z M17.023,65
	c0.995-0.967,3.34-2.253,6.887-3.438c-0.366,1.644-0.576,3.347-0.576,5.101c0,0.551,0.045,1.091,0.081,1.631
	C20.145,67.146,17.975,65.925,17.023,65z M46.667,83.333c-5.039,0-9.502-2.285-12.559-5.82c3.923,0.521,8.14,0.82,12.559,0.82
	c4.42,0,8.639-0.299,12.559-0.82C56.172,81.052,51.706,83.333,46.667,83.333z M69.915,68.294c0.039-0.54,0.085-1.08,0.085-1.631
	c0-1.758-0.208-3.463-0.579-5.107c3.555,1.188,5.898,2.475,6.891,3.444C75.361,65.925,73.19,67.148,69.915,68.294z"/>
</svg>
