<svg version="1.0" id="Layer_1" xmlns="http://www.w3.org/2000/svg" xmlns:xlink="http://www.w3.org/1999/xlink" x="0px" y="0px"
	 width="100px" height="100px" viewBox="0 0 100 100" enable-background="new 0 0 100 100" xml:space="preserve">
<path d="M83.333,90c0-18.408-14.925-33.334-33.333-33.334S16.667,71.592,16.667,90H10c0-22.09,17.91-40,40-40s40,17.91,40,40H83.333
	z"/>
<path d="M56.667,10c0,18.408,14.925,33.334,33.333,33.334V50c-22.09,0-40-17.91-40-40H56.667z"/>
<path d="M80,10c-5.524,0-10,4.478-10,10.002c0,5.521,4.476,10,10,10s10-4.479,10-10C90,14.478,85.524,10,80,10z M80,23.335
	c-1.843,0-3.333-1.493-3.333-3.333c0-1.843,1.49-3.335,3.333-3.335s3.333,1.493,3.333,3.335C83.333,21.842,81.843,23.335,80,23.335z
	"/>
<path d="M26.667,10C17.464,10,10,17.463,10,26.666c0,9.205,7.464,16.668,16.667,16.668c9.205,0,16.666-7.463,16.666-16.668
	C43.333,17.463,35.872,10,26.667,10z M26.667,36.666c-5.521,0-10-4.477-10-10c0-5.521,4.479-10,10-10c5.521,0,10,4.478,10,10
	C36.667,32.189,32.188,36.666,26.667,36.666z"/>
<path d="M50,63.334c-7.363,0-13.333,5.97-13.333,13.333S42.637,90,50,90s13.333-5.97,13.333-13.333S57.363,63.334,50,63.334z
	 M50,83.333c-3.682,0-6.667-2.984-6.667-6.666S46.318,70,50,70s6.667,2.985,6.667,6.667S53.682,83.333,50,83.333z"/>
</svg>
