<svg version="1.0" id="Layer_1" xmlns="http://www.w3.org/2000/svg" xmlns:xlink="http://www.w3.org/1999/xlink" x="0px" y="0px"
	 width="100px" height="100px" viewBox="0 0 100 100" enable-background="new 0 0 100 100" xml:space="preserve">
<path d="M90,9.998l-37.712,20v-20L17.811,44.474c-10.417,10.417-10.413,27.305,0,37.715c10.415,10.417,27.296,10.417,37.713,0
	L90,47.713H70L90,9.998z M73.906,54.383L50.811,77.475c-3.779,3.776-8.802,5.859-14.144,5.859s-10.365-2.083-14.142-5.859
	c-3.778-3.775-5.858-8.802-5.858-14.141c0-5.345,2.08-10.367,5.858-14.146l23.097-23.096v14.987l28.311-15.013L58.919,54.383H73.906
	z"/>
<path d="M36.667,49.998c-7.362,0-13.333,5.973-13.333,13.336c0.002,7.37,5.972,13.334,13.333,13.334
	C44.035,76.668,50,70.697,50,63.334S44.035,50.001,36.667,49.998z M36.668,70.001c-3.683,0-6.667-2.981-6.667-6.667
	c0-3.685,2.985-6.666,6.667-6.666c3.685,0,6.667,2.981,6.667,6.666C43.335,67.02,40.355,70.001,36.668,70.001z"/>
</svg>
