<svg version="1.0" id="Layer_1" xmlns="http://www.w3.org/2000/svg" xmlns:xlink="http://www.w3.org/1999/xlink" x="0px" y="0px"
	 width="100px" height="100px" viewBox="0 0 100 100" enable-background="new 0 0 100 100" xml:space="preserve">
<circle cx="25" cy="68.333" r="3.333"/>
<circle cx="65" cy="13.333" r="3.333"/>
<circle cx="74.167" cy="87.5" r="2.5"/>
<circle cx="84.167" cy="19.167" r="2.5"/>
<circle cx="35.833" cy="75.833" r="2.5"/>
<polygon points="87.61,76.667 90,71.667 85,74.056 80,71.667 82.39,76.667 80,81.667 85,79.277 90,81.667 "/>
<polygon points="79.277,33.333 81.667,28.333 76.667,30.723 71.667,28.333 74.056,33.333 71.667,38.333 76.667,35.944 
	81.667,38.333 "/>
<path d="M87.363,45.215c-7.991-0.746-15.693,1.549-21.214,7.073L53.532,68.509l-6.241-2.08l-4.713,4.714l8.828,5.3
	c-7.301,4.375-14.725,6.891-21.129,6.891c-4.385,0-7.787-1.178-10.109-3.499c-4.238-4.238-4.6-12.894-0.744-22.842
	c4.65,3.948,10.661,6.341,17.24,6.341c14.73,0,26.669-11.937,26.669-26.667C63.333,21.94,51.394,10,36.664,10
	C21.935,10,10,21.94,10,36.667c0,5.492,1.662,10.589,4.503,14.831C8.442,64.71,8.297,77.393,15.454,84.548
	c8.542,8.541,24.962,6.695,40.764-3.242L61.436,90l4.714-4.714l-2.08-6.24L80.29,66.429C85.813,60.908,88.108,53.206,87.363,45.215z
	 M47.806,53.278c-2.741-2.441-4.473-5.987-4.473-9.945c0-6.979,5.384-12.64,12.213-13.22c0.713,2.054,1.12,4.255,1.12,6.553
	C56.667,43.59,53.151,49.688,47.806,53.278z M29.999,17.829v5.505c0,3.675-2.99,6.667-6.667,6.667h-5.503
	C19.837,24.326,24.323,19.837,29.999,17.829z M23.332,36.667c7.362,0,13.333-5.97,13.333-13.333v-6.667
	c6.222,0,11.779,2.842,15.451,7.298c-8.835,2.07-15.45,9.906-15.45,19.369c0,4.86,1.735,9.31,4.616,12.777
	c-1.484,0.352-3.027,0.557-4.619,0.557c-11.045,0-19.997-8.952-19.997-20H23.332z M59.629,74.053l-1.104-1.104l12.607-16.214
	c2.526-2.416,5.729-3.991,9.355-4.646c-0.654,3.626-2.229,6.829-4.646,9.355L59.629,74.053z"/>
</svg>
