<svg width="100" height="100" viewBox="0 0 100 100" fill="none" xmlns="http://www.w3.org/2000/svg">
<path d="M92.1875 17.1875C69.6548 17.1875 51.239 0.578103 51.0551 0.410447C50.767 0.146444 50.3904 0 49.9996 0C49.6088 0 49.2322 0.146444 48.944 0.410447C48.7609 0.578103 30.3809 17.1875 7.81248 17.1875C7.39808 17.1875 7.00066 17.3521 6.70763 17.6451C6.41461 17.9381 6.24998 18.3356 6.24998 18.75V35.6956C6.21449 49.4809 10.3062 62.9613 17.9982 74.4011C25.6902 85.8409 36.6305 94.7164 49.4103 99.8848C49.7884 100.038 50.2115 100.038 50.5897 99.8848C63.3695 94.7164 74.3097 85.8409 82.0018 74.4011C89.6938 62.9613 93.7855 49.4809 93.75 35.6956V18.75C93.75 18.3356 93.5854 17.9381 93.2923 17.6451C92.9993 17.3521 92.6019 17.1875 92.1875 17.1875ZM90.625 35.6956C90.6589 48.7507 86.8162 61.5219 79.5839 72.3907C72.3516 83.2594 62.0553 91.7363 50 96.7468C37.9447 91.7363 27.6484 83.2594 20.4161 72.3907C13.1837 61.5219 9.34103 48.7507 9.37498 35.6956V20.2881C29.5372 19.6647 45.7642 7.19435 50 3.6331C54.2358 7.19451 70.4636 19.6644 90.625 20.2881V35.6956Z" fill="#222226"/>
<path d="M49.0647 8.3458C42.717 13.0913 29.7073 21.3174 13.8878 23.0938C13.5059 23.1365 13.1532 23.3186 12.8972 23.6051C12.6411 23.8916 12.4997 24.2625 12.5 24.6467V35.6956C12.5124 47.7797 15.9909 59.6067 22.5228 69.7733C29.0548 79.9399 38.3659 88.0195 49.3516 93.0534C49.5551 93.1464 49.7762 93.1945 50 93.1945C50.2238 93.1945 50.4449 93.1464 50.6484 93.0534C61.6341 88.0195 70.9452 79.9399 77.4772 69.7733C84.0091 59.6067 87.4876 47.7797 87.5 35.6956V24.6467C87.4999 24.2625 87.3583 23.8918 87.1021 23.6054C86.846 23.319 86.4933 23.137 86.1114 23.0942C70.2942 21.3174 57.2833 13.0913 50.9353 8.3458C50.6653 8.14374 50.3372 8.03455 50 8.03455C49.6628 8.03455 49.3347 8.14374 49.0647 8.3458V8.3458ZM84.375 26.0269V35.6956C84.3632 47.0591 81.1267 58.1859 75.0417 67.7829C68.9567 77.3799 60.2731 85.0529 50 89.9102C39.7269 85.0529 31.0433 77.3799 24.9583 67.7829C18.8733 58.1859 15.6368 47.0591 15.625 35.6956V26.0269C30.8075 23.9631 43.3091 16.3949 50 11.538C56.6909 16.3949 69.1941 23.9631 84.375 26.0269Z" fill="#222226"/>
<path d="M48.5984 28.9962L43.3776 39.5743L31.7039 41.2697C31.4152 41.3114 31.144 41.4331 30.9209 41.621C30.6978 41.8089 30.5318 42.0555 30.4416 42.3329C30.3514 42.6103 30.3406 42.9074 30.4105 43.1906C30.4805 43.4738 30.6282 43.7317 30.8372 43.9353L39.2853 52.1697L37.2909 63.7976C37.2416 64.085 37.2737 64.3805 37.3835 64.6507C37.4934 64.9208 37.6766 65.1548 37.9126 65.3262C38.1485 65.4976 38.4277 65.5995 38.7186 65.6205C39.0094 65.6414 39.3004 65.5806 39.5584 65.4448L50 59.9564L60.4431 65.4457C60.7011 65.581 60.9918 65.6414 61.2824 65.6202C61.5729 65.599 61.8518 65.497 62.0874 65.3257C62.323 65.1544 62.5061 64.9206 62.6159 64.6507C62.7257 64.3809 62.7578 64.0857 62.7087 63.7986L60.7144 52.1706L69.1631 43.9362C69.372 43.7327 69.5198 43.4747 69.5898 43.1916C69.6597 42.9084 69.6489 42.6113 69.5588 42.3339C69.4686 42.0565 69.3026 41.8099 69.0795 41.622C68.8564 41.4341 68.5852 41.3124 68.2966 41.2706L56.622 39.5753L51.4012 28.9972C51.2574 28.7535 51.0525 28.5516 50.8068 28.4113C50.5611 28.271 50.283 28.1971 50.0001 28.197C49.7172 28.1969 49.4391 28.2706 49.1933 28.4107C48.9475 28.5509 48.7425 28.7527 48.5984 28.9962ZM54.1839 41.6947C54.2958 41.922 54.4614 42.1187 54.6664 42.2677C54.8714 42.4167 55.1096 42.5135 55.3605 42.5498L64.7141 43.9079L57.9453 50.5057C57.7641 50.6828 57.6286 50.9011 57.5505 51.1421C57.4723 51.383 57.4539 51.6394 57.4967 51.889L59.0937 61.2061L50.7266 56.8076C50.5023 56.6899 50.2528 56.6284 49.9995 56.6284C49.7462 56.6284 49.4968 56.6899 49.2725 56.8076L40.9062 61.2061L42.5045 51.889C42.547 51.6393 42.5283 51.383 42.4501 51.1421C42.3718 50.9012 42.2363 50.6828 42.0551 50.5057L35.2859 43.9079L44.6395 42.5498C44.8904 42.5133 45.1286 42.4164 45.3337 42.2675C45.5388 42.1185 45.7046 41.9219 45.8169 41.6947L50 33.2187L54.1839 41.6947Z" fill="#222226"/>
</svg>
