<svg version="1.0" id="Layer_1" xmlns="http://www.w3.org/2000/svg" xmlns:xlink="http://www.w3.org/1999/xlink" x="0px" y="0px"
	 width="100px" height="100px" viewBox="0 0 100 100" enable-background="new 0 0 100 100" xml:space="preserve">
<path d="M59.974,50.244L90,42.197L81.374,10L42.736,20.353l1.726,6.439l-25.757,6.903l1.725,6.438L10,42.928l1.725,6.438
	l10.43-2.794l1.726,6.442l16.255-4.357C40.075,49.1,40,49.54,40,50c0,2.435,0.903,4.632,2.347,6.367L26.667,90h7.354l12.646-27.119
	V90h6.667V62.881L65.979,90h7.354l-15.68-33.633C59.05,54.69,59.919,52.578,59.974,50.244z M28.595,44.847l-1.727-6.439
	l19.319-5.176l1.726,6.439L28.595,44.847z M50,53.333c-1.842,0-3.333-1.49-3.333-3.333c0-1.842,1.491-3.333,3.333-3.333
	c1.843,0,3.333,1.491,3.333,3.333C53.333,51.843,51.843,53.333,50,53.333z M50.901,25.067l25.759-6.901l5.176,19.318l-25.759,6.901
	L50.901,25.067z"/>
</svg>
