<svg version="1.0" id="Layer_1" xmlns="http://www.w3.org/2000/svg" xmlns:xlink="http://www.w3.org/1999/xlink" x="0px" y="0px"
	 width="100px" height="100px" viewBox="0 0 100 100" enable-background="new 0 0 100 100" xml:space="preserve">
<path d="M66.667,43.333H90V16.667H76.667V10H70v6.667H30V10H10v40h20v-6.667h16.667v3.333c0,2.125,0.674,4.085,1.803,5.706
	L32.884,90h7.214l13.235-31.953V90H60V58.047L73.235,90h7.217L64.863,52.373c1.13-1.621,1.804-3.581,1.804-5.706V43.333z
	 M23.333,43.333h-6.666V16.667h6.666V43.333z M70,23.333V30h6.667v-6.667h6.666v13.333H46.667V23.333H70z M30,36.667V23.333h10
	v13.333H30z M60,43.333v3.333C60,48.506,58.506,50,56.667,50c-1.843,0-3.334-1.494-3.334-3.333v-3.333H60z"/>
</svg>
